<svg xmlns="http://www.w3.org/2000/svg" viewBox="0 0 34 34"><g clip-path="url(#clip0)"><path d="M34 10.76c-.06-.37-.11-.66-.51-.9C17.27.24 17.5-.48 16.45.16 4.15 7.8.73 9.5.25 10.1-.2 10.55 0 11.25 0 21.85c-.03 1.2 10.97 7.74 16.32 11.9.47.34 1.06.29 1.42-.03C33.64 22.44 34.03 22.9 34 21.85c0 0-.02-11.23 0-11.09zm-2.12 9.2l-5.5-3.34 5.5-3.82v7.16zM24.4 15.4l-6.34-3.86v-8.6L31 10.82l-6.6 4.59zM17 20.56l-5.5-3.82 5.5-3.35 5.5 3.35-5.5 3.82zm-1.06-17.6v8.6c-2.47 1.53-4.55 2.8-6.3 3.87L3 10.83l12.93-7.88zm-8.3 13.67c-2.65 1.6-4.39 2.62-5.51 3.3V12.8l5.51 3.83zm1.88 1.31l6.42 4.46v8.5L3 21.9l6.51-3.96zm8.54 12.96v-8.5l6.42-4.46 6.51 3.97-12.93 9z"/></g><defs><clipPath id="clip0"><path fill="#fff" d="M0 0h34v34H0z"/></clipPath></defs></svg>
