<svg fill="none" xmlns="http://www.w3.org/2000/svg" viewBox="0 0 40 40"><path d="M29.02 4.86s1.2 2.41.13 4.79a9 9 0 012.12 6.06c0 3.76-2 6.9-8.67 7.61.9.63 1.48 1.66 1.48 2.84v5.05c0 1.9-1.55 3.46-3.45 3.46h-2.24a3.46 3.46 0 01-3.46-3.46v-2.9c-.37.13-.89.2-1.48.2-.95 0-2.08-.19-3.08-.64-1.7-.78-1.5-1.99-2.58-3.46-.47-.64-2.11-1.32-1.68-1.64.22-.16.48-.22.75-.22 1.03 0 2.24.94 2.24.94 1.07.9.72 2.02 3.14 2.74.27.08.54.1.8.1 1.05 0 1.9-.53 1.9-.53l.01-.02c.1-1.05.65-1.9 1.47-2.46-6.64-.72-8.63-3.86-8.63-7.61 0-2.38.5-4.54 1.9-6.18-1-2.34.17-4.67.17-4.67 2.27.04 4.61 1.63 4.96 1.88a21.9 21.9 0 014.71-.46c1.72 0 3.2.18 4.49.49 0 0 2.54-1.87 5-1.91zm.76-1.27l-.78.02c-2.17.04-4.3 1.23-5.24 1.82a24.16 24.16 0 00-8.69-.02c-.96-.61-3.06-1.76-5.19-1.8l-.79-.02-.35.7a7.57 7.57 0 00-.46 5c-1.17 1.66-1.74 3.77-1.74 6.42 0 2.84 1 5.03 2.96 6.53a5.14 5.14 0 00-2.64-.94 2.5 2.5 0 00-1.5.46c-.37.28-.58.7-.57 1.16.01.83.68 1.29 1.33 1.73.21.15.57.4.67.5.3.42.48.82.68 1.25.4.9.86 1.91 2.38 2.6a8.9 8.9 0 003.83.75v1.46c0 2.6 2.11 4.7 4.7 4.7h2.25c2.59 0 4.7-2.1 4.7-4.7v-5.05a4.7 4.7 0 00-.42-1.94c3.85-.86 7.6-3.08 7.6-8.51 0-1.73-.34-4.15-1.94-6.3a7.54 7.54 0 00-.43-5.11l-.36-.7zM13.04 25.1c-.16 0-.3-.02-.44-.06-1.13-.34-1.33-.67-1.66-1.22-.23-.38-.51-.84-1.03-1.28 1.11.75 2.5 1.31 4.18 1.68-.1.23-.2.48-.26.73-.22.08-.5.15-.8.15z" fill="#0C3934"/><path d="M7.84 22.95c-.08 0-.14.03-.18.09-.06.1.01.25.16.34a.4.4 0 00.2.06c.08 0 .14-.03.18-.09.06-.1-.01-.26-.16-.34a.39.39 0 00-.2-.06zM8.64 23.67a.16.16 0 00-.1.03c-.1.07-.09.24.02.38.07.1.17.14.25.14.04 0 .08 0 .1-.03.1-.07.1-.24-.01-.38-.07-.09-.18-.14-.26-.14zM9.33 24.61a.17.17 0 00-.1.03c-.1.08-.1.24.01.38.07.1.17.15.26.15.04 0 .07-.01.1-.04.1-.07.09-.24-.02-.37-.07-.1-.17-.15-.25-.15zM10.24 25.69a.18.18 0 00-.14.06c-.08.09-.03.25.1.36.07.06.16.1.23.1.06 0 .11-.03.14-.07.08-.09.04-.25-.1-.36a.38.38 0 00-.23-.1zM11.58 26.39c-.15 0-.28.07-.3.18-.04.14.1.3.3.34a.5.5 0 00.12.02c.15 0 .28-.07.3-.18.04-.14-.1-.3-.3-.35a.5.5 0 00-.12-.01zM13.06 26.6c-.2 0-.36.12-.37.25 0 .15.16.27.37.28h.02c.2 0 .36-.1.37-.25 0-.14-.16-.26-.37-.27h-.02zM14.52 26.46l-.11.01c-.2.04-.34.2-.31.34.02.11.15.19.31.19.04 0 .07 0 .1-.02.21-.04.35-.19.32-.33-.02-.12-.15-.2-.31-.2z" fill="#0C3934"/></svg>