<svg fill="none" viewBox="0 0 50 50">
  <path d="M38.2909 6.57969s1.5078 3.01718.1609 5.99221c1.9734 2.2281 2.6516 5.0219 2.6516 7.5734 0 4.7063-2.4922 8.6297-10.8344 9.5203 1.1172.7797 1.85 2.075 1.85 3.5422v6.3125c0 2.3859-1.9344 4.3219-4.3203 4.3219h-2.7969c-2.3859 0-4.3203-1.9344-4.3203-4.3219v-3.6125c-.4594.1453-1.1094.2313-1.8516.2313-1.1859 0-2.6031-.225-3.8484-.7938-2.1234-.9719-1.8734-2.4828-3.2266-4.3219-.5859-.7953-2.64216-1.6547-2.1031-2.05.27657-.2031.5984-.2828.9359-.2828 1.2922 0 2.8094 1.1828 2.8094 1.1828 1.3328 1.1157.9 2.5188 3.925 3.4188.3375.1.6735.1406.9938.1406 1.3078 0 2.3734-.6719 2.3734-.6719s.0188-.0265.0203-.0265c.1172-1.311.8094-2.3641 1.8297-3.0766-8.3-.9-10.7812-4.8172-10.7812-9.5141 0-2.9765.6125-5.6703 2.3625-7.7265-1.2313-2.92658.2234-5.83751.2234-5.83751 2.8406.05 5.7625 2.04375 6.1984 2.35 1.6594-.36719 3.6078-.56719 5.8891-.56719 2.1531 0 4.0078.22031 5.6078.60781-.0016-.00156 3.1734-2.33594 6.2516-2.39062zM39.2471 5l-.9844.01719c-2.7031.04843-5.3718 1.53593-6.5406 2.28125C30.1143 6.96719 28.3362 6.8 26.4284 6.8c-2.0438 0-3.9125.15781-5.5657.47031-1.2046-.76093-3.8328-2.20469-6.4937-2.25156L13.3846 5l-.439.88125c-.0672.13281-1.4844 3.03594-.5797 6.24845-1.461 2.064-2.1735 4.6984-2.1735 8.0156 0 3.5578 1.2407 6.2859 3.7016 8.1672-.7156-.4766-2-1.1844-3.3063-1.1844-.69371 0-1.33746.2016-1.85933.5844-.47188.3484-.7375.8734-.72813 1.4422.01875 1.0391.85625 1.6125 1.66406 2.1687.27032.1829.7203.4922.8375.6344.3813.5172.6078 1.0172.8469 1.5469.5094 1.1219 1.0859 2.3922 2.9828 3.2609 1.7766.8141 3.5812.936 4.4984.936.0969 0 .1938-.0016.2891-.0047v1.8234c0 3.2438 2.6375 5.8844 5.8828 5.8844h2.7969c3.2437 0 5.8828-2.6391 5.8828-5.8844v-6.3125c0-.8484-.1844-1.6734-.525-2.4266 4.8109-1.0687 9.5094-3.8499 9.5094-10.6359 0-2.1562-.4407-5.189-2.4391-7.8641.9922-3.27026-.4703-6.26245-.5391-6.39995L39.2471 5zM18.3159 31.8687c-.1938 0-.3782-.025-.5485-.075-1.4156-.4234-1.6656-.8359-2.0797-1.5234-.2828-.4687-.6343-1.0516-1.2875-1.5969 0-.0015-.0015-.0015-.0031-.0031 1.3985.9422 3.1422 1.6438 5.2297 2.1016-.1312.2937-.2375.5984-.3187.9125-.2735.0984-.6235.1843-.9922.1843z"/>
  <path d="M11.8191 29.197c-.0968 0-.1796.036-.2234.1078-.075.1282.0125.3203.1953.4282.0828.0484.1703.0718.2485.0718.0968 0 .1796-.0359.2234-.1062.0766-.1281-.0125-.3203-.1969-.4281-.0797-.0485-.1687-.0735-.2469-.0735zM12.8187 30.0938c-.0484 0-.0937.0124-.1281.0406-.1187.0906-.1094.3015.0219.4718.0906.1172.214.1829.3203.1829.0469 0 .0922-.0125.1281-.0407.1188-.0906.1078-.3015-.0219-.4703-.089-.1172-.2156-.1843-.3203-.1843zM13.675 31.2717c-.0469 0-.0922.0141-.1281.0407-.1172.0921-.1079.3015.0218.4718.0907.1172.2141.1828.3203.1828.0485 0 .0938-.0125.1297-.0406.1172-.0906.1078-.3-.0218-.4703-.0922-.1172-.2157-.1844-.3219-.1844zM14.819 32.6172c-.0734 0-.1391.025-.1797.075-.0969.1141-.0406.3187.1234.4547.0922.0765.1985.1156.2922.1156.0735 0 .1375-.025.1782-.075.0968-.1156.0406-.3188-.1219-.4547-.0922-.0766-.1985-.1156-.2922-.1156zM16.488 33.4939c-.1875 0-.3453.0875-.3781.225-.0453.175.1234.3687.375.4328.0531.0141.1062.0203.1594.0203.1875 0 .3437-.0859.3765-.2234.0453-.1766-.1234-.3688-.375-.4344-.0547-.0141-.1078-.0203-.1578-.0203zM18.3392 33.7688c-.2484 0-.4484.1344-.4562.3078-.0063.1813.1984.3375.4593.3469h.025c.2485 0 .45-.1344.4563-.3094.0078-.1797-.1969-.3359-.4563-.3453h-.0281zM20.1657 33.5828c-.0438 0-.0906.0047-.136.014-.2531.0532-.4296.2407-.3937.4188.0312.1453.1953.2375.3937.2375a.6793.6793 0 00.136-.0141c.2531-.0531.4297-.239.3937-.4172-.0297-.1453-.1953-.239-.3937-.239z"/>
</svg>
