<svg width="251" height="91" viewBox="0 0 251 91" fill="none" xmlns="http://www.w3.org/2000/svg">
<path d="M17.074 1.906L27.372 29H21.14L19.012 22.958H8.942L6.738 29H0.658L10.956 1.906H17.074ZM17.568 18.626L13.996 8.556L10.386 18.626H17.568ZM47.3057 29H41.9477V13.534H36.7797L36.5517 20.45C36.5263 21.21 36.501 21.818 36.4757 22.274C36.4503 22.7047 36.3743 23.2873 36.2477 24.022C36.1463 24.7567 36.0197 25.352 35.8677 25.808C35.7157 26.2387 35.475 26.7327 35.1457 27.29C34.8417 27.822 34.4743 28.24 34.0437 28.544C33.6383 28.8227 33.1063 29.0633 32.4477 29.266C31.789 29.494 31.0543 29.608 30.2437 29.608C28.9263 29.608 27.951 29.4813 27.3177 29.228V24.934C27.951 25.0607 28.4577 25.124 28.8377 25.124C30.383 25.124 31.1937 23.7687 31.2697 21.058L31.5737 9.392H47.3057V29ZM70.0211 22.92C69.4131 25.0227 68.2857 26.6567 66.6391 27.822C65.0177 28.9873 63.0797 29.57 60.8251 29.57C57.8104 29.57 55.3784 28.6327 53.5291 26.758C51.7051 24.8833 50.7931 22.4007 50.7931 19.31C50.7931 16.27 51.7177 13.762 53.5671 11.786C55.4164 9.81 57.7724 8.822 60.6351 8.822C63.5991 8.822 65.9551 9.83533 67.7031 11.862C69.4511 13.8633 70.3251 16.5867 70.3251 20.032V20.564H56.2651C56.2904 22.2613 56.6957 23.5533 57.4811 24.44C58.2917 25.3267 59.4191 25.77 60.8631 25.77C62.7631 25.77 64.0931 24.82 64.8531 22.92H70.0211ZM64.8531 17.144C64.7264 15.852 64.3084 14.8007 63.5991 13.99C62.8897 13.154 61.9017 12.736 60.6351 12.736C59.4444 12.736 58.4564 13.1287 57.6711 13.914C56.8857 14.6993 56.4171 15.776 56.2651 17.144H64.8531ZM93.4374 29H86.9014L81.2394 20.564L78.8454 22.996V29H73.5634V9.392H78.8454V17.144L86.0274 9.392H92.3734L84.7734 16.992L93.4374 29ZM113.26 21.438C112.93 23.9713 111.93 25.9473 110.258 27.366C108.611 28.7847 106.483 29.494 103.874 29.494C100.859 29.494 98.4397 28.5693 96.6157 26.72C94.7917 24.8707 93.8797 22.4133 93.8797 19.348C93.8797 16.1813 94.7917 13.6353 96.6157 11.71C98.4651 9.78467 100.91 8.822 103.95 8.822C106.559 8.822 108.687 9.49333 110.334 10.836C111.98 12.1533 112.918 13.952 113.146 16.232H107.864C107.458 13.9773 106.166 12.85 103.988 12.85C102.518 12.85 101.366 13.42 100.53 14.56C99.7191 15.6747 99.3137 17.2327 99.3137 19.234C99.3137 21.1847 99.7064 22.7047 100.492 23.794C101.302 24.858 102.43 25.39 103.874 25.39C106.23 25.39 107.623 24.0727 108.054 21.438H113.26ZM134.624 29H129.152C128.975 28.4933 128.848 27.86 128.772 27.1C127.125 28.7467 125.01 29.57 122.426 29.57C120.247 29.57 118.537 29.0507 117.296 28.012C116.055 26.948 115.434 25.4913 115.434 23.642C115.434 22.806 115.535 22.0713 115.738 21.438C115.966 20.8047 116.321 20.2727 116.802 19.842C117.309 19.4113 117.777 19.0567 118.208 18.778C118.664 18.4993 119.285 18.2713 120.07 18.094C120.855 17.9167 121.489 17.79 121.97 17.714C122.451 17.6127 123.123 17.5113 123.984 17.41C125.884 17.1567 127.151 16.8907 127.784 16.612C128.443 16.3333 128.772 15.814 128.772 15.054C128.772 13.306 127.594 12.432 125.238 12.432C123.997 12.432 123.085 12.66 122.502 13.116C121.919 13.5467 121.539 14.3193 121.362 15.434H116.308C116.612 11.026 119.639 8.822 125.39 8.822C131.09 8.822 133.94 10.95 133.94 15.206V23.68C133.94 26.1627 134.168 27.936 134.624 29ZM128.734 19.462C128.101 19.842 126.834 20.184 124.934 20.488C123.338 20.7413 122.299 21.058 121.818 21.438C121.261 21.894 120.982 22.5527 120.982 23.414C120.982 24.2247 121.235 24.8707 121.742 25.352C122.274 25.808 123.009 26.036 123.946 26.036C125.39 26.036 126.543 25.656 127.404 24.896C128.291 24.1107 128.734 23.034 128.734 21.666V19.462ZM156.558 29H151.2V20.754H143.638V29H138.28V9.392H143.638V16.498H151.2V9.392H156.558V29ZM181.972 34.776H176.918V29H163.998V34.776H158.944V24.858H161.3C161.933 23.642 162.503 21.8687 163.01 19.538C163.516 17.2073 163.77 14.9653 163.77 12.812V9.392H179.426V24.858H181.972V34.776ZM174.068 24.858V13.382H168.786V13.876C168.786 15.776 168.545 17.79 168.064 19.918C167.608 22.0207 167.114 23.6673 166.582 24.858H174.068ZM189.683 9.392V11.824C191.102 9.848 193.128 8.86 195.763 8.86C198.398 8.86 200.513 9.81 202.109 11.71C203.705 13.61 204.503 16.1433 204.503 19.31C204.503 22.3753 203.718 24.8453 202.147 26.72C200.602 28.5693 198.55 29.494 195.991 29.494C193.356 29.494 191.342 28.5187 189.949 26.568V35.954H184.591V9.392H189.683ZM194.433 13.192C192.964 13.192 191.811 13.724 190.975 14.788C190.164 15.852 189.759 17.334 189.759 19.234C189.759 21.134 190.177 22.616 191.013 23.68C191.849 24.744 193.002 25.276 194.471 25.276C195.915 25.276 197.042 24.744 197.853 23.68C198.689 22.616 199.107 21.1593 199.107 19.31C199.107 17.41 198.689 15.9153 197.853 14.826C197.017 13.7367 195.877 13.192 194.433 13.192Z" fill="#0C3934"/>
<path d="M18.074 2.906L19.0088 2.55071L18.7637 1.906H18.074V2.906ZM28.372 30V31H29.8219L29.3068 29.6447L28.372 30ZM22.14 30L21.1968 30.3322L21.432 31H22.14V30ZM20.012 23.958L20.9552 23.6258L20.72 22.958H20.012V23.958ZM9.942 23.958V22.958H9.24233L9.00255 23.6153L9.942 23.958ZM7.738 30V31H8.43768L8.67745 30.3427L7.738 30ZM1.658 30L0.723243 29.6447L0.20812 31H1.658V30ZM11.956 2.906V1.906H11.2663L11.0212 2.55071L11.956 2.906ZM18.568 19.626V20.626H19.9838L19.5105 19.2917L18.568 19.626ZM14.996 9.556L15.9385 9.22169L15.001 6.57879L14.0547 9.21854L14.996 9.556ZM11.386 19.626L10.4447 19.2885L9.96519 20.626H11.386V19.626ZM17.1392 3.26128L27.4372 30.3553L29.3068 29.6447L19.0088 2.55071L17.1392 3.26128ZM28.372 29H22.14V31H28.372V29ZM23.0832 29.6678L20.9552 23.6258L19.0688 24.2902L21.1968 30.3322L23.0832 29.6678ZM20.012 22.958H9.942V24.958H20.012V22.958ZM9.00255 23.6153L6.79855 29.6573L8.67745 30.3427L10.8814 24.3007L9.00255 23.6153ZM7.738 29H1.658V31H7.738V29ZM2.59276 30.3553L12.8908 3.26128L11.0212 2.55071L0.723243 29.6447L2.59276 30.3553ZM11.956 3.906H18.074V1.906H11.956V3.906ZM19.5105 19.2917L15.9385 9.22169L14.0535 9.89031L17.6255 19.9603L19.5105 19.2917ZM14.0547 9.21854L10.4447 19.2885L12.3273 19.9635L15.9373 9.89346L14.0547 9.21854ZM11.386 20.626H18.568V18.626H11.386V20.626ZM48.3057 30V31H49.3057V30H48.3057ZM42.9477 30H41.9477V31H42.9477V30ZM42.9477 14.534H43.9477V13.534H42.9477V14.534ZM37.7797 14.534V13.534H36.8121L36.7802 14.5011L37.7797 14.534ZM37.5517 21.45L38.5511 21.4833L38.5511 21.4829L37.5517 21.45ZM37.4757 23.274L38.474 23.3327L38.4741 23.3295L37.4757 23.274ZM37.2477 25.022L36.2622 24.8521L36.2594 24.8687L36.257 24.8854L37.2477 25.022ZM36.8677 26.808L37.8107 27.1408L37.8136 27.1325L37.8164 27.1242L36.8677 26.808ZM36.1457 28.29L35.2847 27.7813L35.281 27.7875L35.2774 27.7939L36.1457 28.29ZM35.0437 29.544L35.6102 30.3681L35.6204 30.361L35.0437 29.544ZM33.4477 30.266L33.1536 29.3102L33.137 29.3153L33.1206 29.321L33.4477 30.266ZM28.3177 30.228H27.3177V30.905L27.9463 31.1565L28.3177 30.228ZM28.3177 25.934L28.5138 24.9534L27.3177 24.7142V25.934H28.3177ZM32.2697 22.058L33.2693 22.086L33.2693 22.084L32.2697 22.058ZM32.5737 10.392V9.392H31.5994L31.574 10.3659L32.5737 10.392ZM48.3057 10.392H49.3057V9.392H48.3057V10.392ZM48.3057 29H42.9477V31H48.3057V29ZM43.9477 30V14.534H41.9477V30H43.9477ZM42.9477 13.534H37.7797V15.534H42.9477V13.534ZM36.7802 14.5011L36.5522 21.4171L38.5511 21.4829L38.7791 14.5669L36.7802 14.5011ZM36.5522 21.4167C36.527 22.1734 36.502 22.7731 36.4772 23.2185L38.4741 23.3295C38.5001 22.8629 38.5257 22.2466 38.5511 21.4833L36.5522 21.4167ZM36.4774 23.2153C36.4553 23.5914 36.3864 24.1319 36.2622 24.8521L38.2331 25.1919C38.3623 24.4428 38.4454 23.8179 38.4739 23.3327L36.4774 23.2153ZM36.257 24.8854C36.1601 25.588 36.044 26.1166 35.919 26.4918L37.8164 27.1242C37.9953 26.5874 38.1325 25.9253 38.2383 25.1586L36.257 24.8854ZM35.9247 26.4752C35.8011 26.8253 35.5936 27.2587 35.2847 27.7813L37.0066 28.7987C37.3565 28.2067 37.6302 27.6521 37.8107 27.1408L35.9247 26.4752ZM35.2774 27.7939C35.0343 28.2194 34.7603 28.52 34.467 28.727L35.6204 30.361C36.1884 29.96 36.6491 29.4246 37.0139 28.7861L35.2774 27.7939ZM34.4771 28.72C34.1815 28.9232 33.751 29.1264 33.1536 29.3102L33.7418 31.2218C34.4617 31.0003 35.0952 30.7221 35.6102 30.368L34.4771 28.72ZM33.1206 29.321C32.5827 29.5072 31.9608 29.608 31.2437 29.608V31.608C32.1479 31.608 32.9953 31.4808 33.7748 31.211L33.1206 29.321ZM31.2437 29.608C29.9575 29.608 29.1395 29.4797 28.6891 29.2995L27.9463 31.1565C28.7625 31.483 29.8952 31.608 31.2437 31.608V29.608ZM29.3177 30.228V25.934H27.3177V30.228H29.3177ZM28.1216 26.9146C28.7814 27.0465 29.3619 27.124 29.8377 27.124V25.124C29.5534 25.124 29.1206 25.0748 28.5138 24.9534L28.1216 26.9146ZM29.8377 27.124C30.9715 27.124 31.8819 26.5922 32.4629 25.6208C32.9984 24.7255 33.2295 23.5053 33.2693 22.086L31.2701 22.03C31.2339 23.3213 31.0217 24.1341 30.7465 24.5942C30.5168 24.9781 30.2492 25.124 29.8377 25.124V27.124ZM33.2693 22.084L33.5733 10.418L31.574 10.3659L31.27 22.0319L33.2693 22.084ZM32.5737 11.392H48.3057V9.392H32.5737V11.392ZM47.3057 10.392V30H49.3057V10.392H47.3057ZM71.0211 23.92L71.9817 24.1978L72.3512 22.92H71.0211V23.92ZM67.6391 28.822L67.0614 28.0057L67.0554 28.01L67.6391 28.822ZM54.5291 27.758L53.8123 28.4554L53.8172 28.4603L54.5291 27.758ZM54.5671 12.786L55.2972 13.4693V13.4693L54.5671 12.786ZM68.7031 12.862L67.9458 13.5151L67.9499 13.5198L68.7031 12.862ZM71.3251 21.564V22.564H72.3251V21.564H71.3251ZM57.2651 21.564V20.564H56.25L56.2652 21.5789L57.2651 21.564ZM58.4811 25.44L57.7325 26.103L57.7377 26.1089L57.743 26.1148L58.4811 25.44ZM65.8531 23.92V22.92H65.176L64.9246 23.5486L65.8531 23.92ZM65.8531 18.144V19.144H66.9559L66.8483 18.0464L65.8531 18.144ZM64.5991 14.99L63.8366 15.637L63.8415 15.6428L63.8465 15.6485L64.5991 14.99ZM58.6711 14.914L59.3782 15.6211L58.6711 14.914ZM57.2651 18.144L56.2712 18.0336L56.1478 19.144H57.2651V18.144ZM70.0604 23.6422C69.5097 25.5469 68.507 26.9827 67.0614 28.0057L68.2167 29.6383C70.0645 28.3306 71.3165 26.4984 71.9817 24.1978L70.0604 23.6422ZM67.0554 28.01C65.6257 29.0376 63.8985 29.57 61.8251 29.57V31.57C64.261 31.57 66.4098 30.9371 68.2227 29.634L67.0554 28.01ZM61.8251 29.57C59.0358 29.57 56.8747 28.7118 55.241 27.0557L53.8172 28.4603C55.8821 30.5535 58.585 31.57 61.8251 31.57V29.57ZM55.2458 27.0606C53.6359 25.4061 52.7931 23.1909 52.7931 20.31H50.7931C50.7931 23.6105 51.7742 26.3606 53.8123 28.4554L55.2458 27.0606ZM52.7931 20.31C52.7931 17.49 53.6431 15.2367 55.2972 13.4693L53.8369 12.1027C51.7924 14.2873 50.7931 17.05 50.7931 20.31H52.7931ZM55.2972 13.4693C56.9455 11.7081 59.0312 10.822 61.6351 10.822V8.822C58.5136 8.822 55.8873 9.91192 53.8369 12.1027L55.2972 13.4693ZM61.6351 10.822C64.3433 10.822 66.4096 11.734 67.9458 13.5151L69.4603 12.2089C67.5005 9.93669 64.8548 8.822 61.6351 8.822V10.822ZM67.9499 13.5198C69.4963 15.2904 70.3251 17.7552 70.3251 21.032H72.3251C72.3251 17.4181 71.4058 14.4363 69.4562 12.2042L67.9499 13.5198ZM70.3251 21.032V21.564H72.3251V21.032H70.3251ZM71.3251 20.564H57.2651V22.564H71.3251V20.564ZM56.2652 21.5789C56.2926 23.4134 56.732 24.9735 57.7325 26.103L59.2297 24.777C58.6595 24.1332 58.2882 23.1092 58.2649 21.5491L56.2652 21.5789ZM57.743 26.1148C58.781 27.2501 60.1998 27.77 61.8631 27.77V25.77C60.6383 25.77 59.8024 25.4033 59.2191 24.7652L57.743 26.1148ZM61.8631 27.77C62.9865 27.77 64.0058 27.4862 64.8668 26.8712C65.7225 26.2601 66.3483 25.3744 66.7815 24.2914L64.9246 23.5486C64.5978 24.3656 64.1787 24.9049 63.7043 25.2438C63.2353 25.5788 62.6396 25.77 61.8631 25.77V27.77ZM65.8531 24.92H71.0211V22.92H65.8531V24.92ZM66.8483 18.0464C66.7055 16.5902 66.2247 15.3292 65.3516 14.3315L63.8465 15.6485C64.3921 16.2721 64.7473 17.1138 64.8578 18.2416L66.8483 18.0464ZM65.3616 14.343C64.4317 13.2471 63.1446 12.736 61.6351 12.736V14.736C62.6588 14.736 63.3478 15.0609 63.8366 15.637L65.3616 14.343ZM61.6351 12.736C60.2003 12.736 58.9513 13.2196 57.964 14.2069L59.3782 15.6211C59.9615 15.0378 60.6885 14.736 61.6351 14.736V12.736ZM57.964 14.2069C56.9826 15.1882 56.4421 16.4953 56.2712 18.0336L58.2589 18.2544C58.392 17.0567 58.7888 16.2104 59.3782 15.6211L57.964 14.2069ZM57.2651 19.144H65.8531V17.144H57.2651V19.144ZM94.4374 30V31H96.392L95.2483 29.4149L94.4374 30ZM87.9014 30L87.0711 30.5573L87.3682 31H87.9014V30ZM82.2394 21.564L83.0697 21.0067L82.3866 19.989L81.5267 20.8625L82.2394 21.564ZM79.8454 23.996L79.1327 23.2945L78.8454 23.5864V23.996H79.8454ZM79.8454 30V31H80.8454V30H79.8454ZM74.5634 30H73.5634V31H74.5634V30ZM74.5634 10.392V9.392H73.5634V10.392H74.5634ZM79.8454 10.392H80.8454V9.392H79.8454V10.392ZM79.8454 18.144H78.8454V20.6948L80.5789 18.8236L79.8454 18.144ZM87.0274 10.392V9.392H86.5906L86.2938 9.71238L87.0274 10.392ZM93.3734 10.392L94.0805 11.0991L95.7876 9.392H93.3734V10.392ZM85.7734 17.992L85.0663 17.2849L84.4644 17.8868L84.9624 18.5771L85.7734 17.992ZM94.4374 29H87.9014V31H94.4374V29ZM88.7317 29.4427L83.0697 21.0067L81.4091 22.1213L87.0711 30.5573L88.7317 29.4427ZM81.5267 20.8625L79.1327 23.2945L80.558 24.6975L82.952 22.2655L81.5267 20.8625ZM78.8454 23.996V30H80.8454V23.996H78.8454ZM79.8454 29H74.5634V31H79.8454V29ZM75.5634 30V10.392H73.5634V30H75.5634ZM74.5634 11.392H79.8454V9.392H74.5634V11.392ZM78.8454 10.392V18.144H80.8454V10.392H78.8454ZM80.5789 18.8236L87.7609 11.0716L86.2938 9.71238L79.1118 17.4644L80.5789 18.8236ZM87.0274 11.392H93.3734V9.392H87.0274V11.392ZM92.6663 9.68489L85.0663 17.2849L86.4805 18.6991L94.0805 11.0991L92.6663 9.68489ZM84.9624 18.5771L93.6264 30.5851L95.2483 29.4149L86.5843 17.4069L84.9624 18.5771ZM114.26 22.438L115.251 22.5669L115.398 21.438H114.26V22.438ZM111.258 28.366L110.611 27.6035L110.605 27.6084L111.258 28.366ZM97.6157 27.72L96.9038 28.4222L97.6157 27.72ZM97.6157 12.71L96.8945 12.0173L96.8898 12.0223L97.6157 12.71ZM111.334 11.836L110.702 12.6111L110.709 12.6169L111.334 11.836ZM114.146 17.232V18.232H115.251L115.141 17.1325L114.146 17.232ZM108.864 17.232L107.879 17.4089L108.027 18.232H108.864V17.232ZM101.53 15.56L100.723 14.9686L100.721 14.9718L101.53 15.56ZM101.492 24.794L100.681 25.3788L100.688 25.3895L100.696 25.4L101.492 24.794ZM109.054 22.438V21.438H108.204L108.067 22.2767L109.054 22.438ZM113.268 22.3091C112.965 24.6391 112.062 26.372 110.611 27.6035L111.905 29.1285C113.797 27.5227 114.896 25.3036 115.251 22.5669L113.268 22.3091ZM110.605 27.6084C109.175 28.8407 107.294 29.494 104.874 29.494V31.494C107.672 31.494 110.047 30.7286 111.91 29.1236L110.605 27.6084ZM104.874 29.494C102.08 29.494 99.9334 28.6458 98.3277 27.0178L96.9038 28.4222C98.946 30.4929 101.638 31.494 104.874 31.494V29.494ZM98.3277 27.0178C96.7211 25.3889 95.8797 23.2013 95.8797 20.348H93.8797C93.8797 23.6253 94.8623 26.3524 96.9038 28.4222L98.3277 27.0178ZM95.8797 20.348C95.8797 17.3844 96.7269 15.1023 98.3417 13.3977L96.8898 12.0223C94.8566 14.1684 93.8797 16.9782 93.8797 20.348H95.8797ZM98.3369 13.4027C99.9709 11.7016 102.141 10.822 104.95 10.822V8.822C101.679 8.822 98.9593 9.86769 96.8945 12.0173L98.3369 13.4027ZM104.95 10.822C107.383 10.822 109.271 11.4448 110.702 12.611L111.966 11.061C110.103 9.54189 107.735 8.822 104.95 8.822V10.822ZM110.709 12.6169C112.126 13.7507 112.947 15.2935 113.151 17.3315L115.141 17.1325C114.889 14.6104 113.834 12.556 111.958 11.0551L110.709 12.6169ZM114.146 16.232H108.864V18.232H114.146V16.232ZM109.848 17.0551C109.619 15.7792 109.115 14.6986 108.248 13.942C107.375 13.1801 106.251 12.85 104.988 12.85V14.85C105.903 14.85 106.514 15.0836 106.933 15.449C107.358 15.8197 107.704 16.4301 107.879 17.4089L109.848 17.0551ZM104.988 12.85C103.215 12.85 101.756 13.5601 100.723 14.9686L102.336 16.1514C102.975 15.2799 103.822 14.85 104.988 14.85V12.85ZM100.721 14.9718C99.7412 16.319 99.3137 18.113 99.3137 20.234H101.314C101.314 18.3524 101.697 17.0303 102.338 16.1482L100.721 14.9718ZM99.3137 20.234C99.3137 22.3036 99.7282 24.0578 100.681 25.3788L102.303 24.2092C101.685 23.3515 101.314 22.0658 101.314 20.234H99.3137ZM100.696 25.4C101.713 26.7343 103.146 27.39 104.874 27.39V25.39C103.713 25.39 102.892 24.9817 102.287 24.188L100.696 25.4ZM104.874 27.39C106.246 27.39 107.45 27.001 108.373 26.1286C109.28 25.2704 109.804 24.0498 110.041 22.5993L108.067 22.2767C107.873 23.4609 107.484 24.2163 106.999 24.6754C106.528 25.1203 105.858 25.39 104.874 25.39V27.39ZM109.054 23.438H114.26V21.438H109.054V23.438ZM135.624 30V31H137.141L136.543 29.6061L135.624 30ZM130.152 30L129.208 30.3304L129.443 31H130.152V30ZM129.772 28.1L130.767 28.0005L130.557 25.9007L129.065 27.3929L129.772 28.1ZM118.296 29.012L117.645 29.7713L117.654 29.7789L118.296 29.012ZM116.738 22.438L115.797 22.0993L115.791 22.1161L115.786 22.1332L116.738 22.438ZM117.802 20.842L117.154 20.0801L117.145 20.0883L117.135 20.0968L117.802 20.842ZM119.208 19.778L118.687 18.9247L118.676 18.9314L118.665 18.9384L119.208 19.778ZM122.97 18.714L123.126 19.7018L123.151 19.6978L123.176 19.6925L122.97 18.714ZM124.984 18.41L125.101 19.4032L125.109 19.4022L125.116 19.4012L124.984 18.41ZM128.784 17.612L128.394 16.691L128.388 16.6938L128.381 16.6967L128.784 17.612ZM123.502 14.116L124.096 14.9202L124.107 14.912L124.118 14.9035L123.502 14.116ZM122.362 16.434V17.434H123.216L123.35 16.5911L122.362 16.434ZM117.308 16.434L116.31 16.3652L116.237 17.434H117.308V16.434ZM129.734 20.462H130.734V18.6958L129.22 19.6045L129.734 20.462ZM125.934 21.488L126.091 22.4756L126.092 22.4754L125.934 21.488ZM122.818 22.438L122.198 21.6531L122.192 21.6585L122.185 21.664L122.818 22.438ZM122.742 26.352L122.053 27.077L122.072 27.0946L122.091 27.1113L122.742 26.352ZM128.404 25.896L129.066 26.6458L129.067 26.6446L128.404 25.896ZM135.624 29H130.152V31H135.624V29ZM131.096 29.6696C130.953 29.2617 130.838 28.712 130.767 28.0005L128.777 28.1995C128.858 29.008 128.996 29.725 129.208 30.3304L131.096 29.6696ZM129.065 27.3929C127.627 28.8306 125.777 29.57 123.426 29.57V31.57C126.243 31.57 128.624 30.6627 130.479 28.8071L129.065 27.3929ZM123.426 29.57C121.401 29.57 119.945 29.0881 118.938 28.2451L117.654 29.7789C119.129 31.0133 121.094 31.57 123.426 31.57V29.57ZM118.947 28.2527C117.958 27.4049 117.434 26.2422 117.434 24.642H115.434C115.434 26.7405 116.152 28.4911 117.645 29.7713L118.947 28.2527ZM117.434 24.642C117.434 23.8841 117.526 23.256 117.69 22.7428L115.786 22.1332C115.545 22.8866 115.434 23.7279 115.434 24.642H117.434ZM117.679 22.7767C117.853 22.2927 118.116 21.9025 118.469 21.5872L117.135 20.0968C116.525 20.6428 116.079 21.3166 115.797 22.0993L117.679 22.7767ZM118.45 21.6039C118.932 21.1936 119.366 20.8669 119.751 20.6176L118.665 18.9384C118.189 19.2464 117.685 19.629 117.154 20.0801L118.45 21.6039ZM119.729 20.6313C120.058 20.4306 120.563 20.2337 121.29 20.0694L120.85 18.1186C120.006 18.309 119.27 18.5681 118.687 18.9247L119.729 20.6313ZM121.29 20.0694C122.066 19.8943 122.676 19.7729 123.126 19.7018L122.814 17.7262C122.302 17.8071 121.645 17.9391 120.85 18.1186L121.29 20.0694ZM123.176 19.6925C123.614 19.6004 124.251 19.5032 125.101 19.4032L124.867 17.4168C123.995 17.5195 123.289 17.6249 122.764 17.7354L123.176 19.6925ZM125.116 19.4012C127 19.1501 128.405 18.8715 129.187 18.5273L128.381 16.6967C127.897 16.9098 126.768 17.1633 124.852 17.4188L125.116 19.4012ZM129.174 18.533C129.659 18.3277 130.079 18.0072 130.37 17.549C130.657 17.0952 130.772 16.5789 130.772 16.054H128.772C128.772 16.2891 128.722 16.4125 128.681 16.478C128.642 16.5392 128.568 16.6176 128.394 16.691L129.174 18.533ZM130.772 16.054C130.772 14.9319 130.378 13.9474 129.484 13.2844C128.647 12.6629 127.511 12.432 126.238 12.432V14.432C127.322 14.432 127.952 14.6381 128.293 14.8906C128.577 15.1016 128.772 15.4281 128.772 16.054H130.772ZM126.238 12.432C124.911 12.432 123.729 12.6688 122.886 13.3285L124.118 14.9035C124.441 14.6512 125.082 14.432 126.238 14.432V12.432ZM122.908 13.3118C122.022 13.9661 121.571 15.0435 121.374 16.2769L123.35 16.5911C123.508 15.5952 123.816 15.1272 124.096 14.9202L122.908 13.3118ZM122.362 15.434H117.308V17.434H122.362V15.434ZM118.306 16.5028C118.441 14.5349 119.164 13.1795 120.395 12.2834C121.668 11.3566 123.62 10.822 126.39 10.822V8.822C123.41 8.822 120.972 9.38943 119.218 10.6666C117.421 11.9745 116.479 13.9251 116.31 16.3652L118.306 16.5028ZM126.39 10.822C129.145 10.822 131.028 11.3413 132.204 12.2193C133.325 13.0563 133.94 14.3237 133.94 16.206H135.94C135.94 13.8323 135.13 11.9077 133.401 10.6167C131.727 9.3667 129.335 8.822 126.39 8.822V10.822ZM133.94 16.206V24.68H135.94V16.206H133.94ZM133.94 24.68C133.94 27.1782 134.163 29.1292 134.705 30.3939L136.543 29.6061C136.173 28.7428 135.94 27.1471 135.94 24.68H133.94ZM129.22 19.6045C128.773 19.8723 127.69 20.1942 125.776 20.5006L126.092 22.4754C127.978 22.1738 129.428 21.8117 130.249 21.3195L129.22 19.6045ZM125.777 20.5004C124.953 20.6311 124.246 20.7824 123.666 20.959C123.105 21.13 122.585 21.3481 122.198 21.6531L123.438 23.2229C123.533 23.1479 123.772 23.0176 124.25 22.872C124.709 22.732 125.319 22.5982 126.091 22.4756L125.777 20.5004ZM122.185 21.664C121.349 22.3477 120.982 23.3179 120.982 24.414H122.982C122.982 23.7874 123.172 23.4403 123.451 23.212L122.185 21.664ZM120.982 24.414C120.982 25.451 121.316 26.3763 122.053 27.077L123.431 25.627C123.155 25.365 122.982 24.9984 122.982 24.414H120.982ZM122.091 27.1113C122.858 27.7684 123.851 28.036 124.946 28.036V26.036C124.166 26.036 123.69 25.8476 123.393 25.5927L122.091 27.1113ZM124.946 28.036C126.569 28.036 127.978 27.6053 129.066 26.6458L127.742 25.1462C127.107 25.7067 126.211 26.036 124.946 26.036V28.036ZM129.067 26.6446C130.202 25.6392 130.734 24.2713 130.734 22.666H128.734C128.734 23.7967 128.379 24.5821 127.741 25.1474L129.067 26.6446ZM130.734 22.666V20.462H128.734V22.666H130.734ZM157.558 30V31H158.558V30H157.558ZM152.2 30H151.2V31H152.2V30ZM152.2 21.754H153.2V20.754H152.2V21.754ZM144.638 21.754V20.754H143.638V21.754H144.638ZM144.638 30V31H145.638V30H144.638ZM139.28 30H138.28V31H139.28V30ZM139.28 10.392V9.392H138.28V10.392H139.28ZM144.638 10.392H145.638V9.392H144.638V10.392ZM144.638 17.498H143.638V18.498H144.638V17.498ZM152.2 17.498V18.498H153.2V17.498H152.2ZM152.2 10.392V9.392H151.2V10.392H152.2ZM157.558 10.392H158.558V9.392H157.558V10.392ZM157.558 29H152.2V31H157.558V29ZM153.2 30V21.754H151.2V30H153.2ZM152.2 20.754H144.638V22.754H152.2V20.754ZM143.638 21.754V30H145.638V21.754H143.638ZM144.638 29H139.28V31H144.638V29ZM140.28 30V10.392H138.28V30H140.28ZM139.28 11.392H144.638V9.392H139.28V11.392ZM143.638 10.392V17.498H145.638V10.392H143.638ZM144.638 18.498H152.2V16.498H144.638V18.498ZM153.2 17.498V10.392H151.2V17.498H153.2ZM152.2 11.392H157.558V9.392H152.2V11.392ZM156.558 10.392V30H158.558V10.392H156.558ZM182.972 35.776V36.776H183.972V35.776H182.972ZM177.918 35.776H176.918V36.776H177.918V35.776ZM177.918 30H178.918V29H177.918V30ZM164.998 30V29H163.998V30H164.998ZM164.998 35.776V36.776H165.998V35.776H164.998ZM159.944 35.776H158.944V36.776H159.944V35.776ZM159.944 25.858V24.858H158.944V25.858H159.944ZM162.3 25.858V26.858H162.906L163.187 26.3199L162.3 25.858ZM164.01 20.538L164.987 20.7504L164.01 20.538ZM164.77 10.392V9.392H163.77V10.392H164.77ZM180.426 10.392H181.426V9.392H180.426V10.392ZM180.426 25.858H179.426V26.858H180.426V25.858ZM182.972 25.858H183.972V24.858H182.972V25.858ZM175.068 25.858V26.858H176.068V25.858H175.068ZM175.068 14.382H176.068V13.382H175.068V14.382ZM169.786 14.382V13.382H168.786V14.382H169.786ZM169.064 20.918L168.088 20.6974L168.086 20.7061L169.064 20.918ZM167.582 25.858L166.669 25.4501L166.04 26.858H167.582V25.858ZM182.972 34.776H177.918V36.776H182.972V34.776ZM178.918 35.776V30H176.918V35.776H178.918ZM177.918 29H164.998V31H177.918V29ZM163.998 30V35.776H165.998V30H163.998ZM164.998 34.776H159.944V36.776H164.998V34.776ZM160.944 35.776V25.858H158.944V35.776H160.944ZM159.944 26.858H162.3V24.858H159.944V26.858ZM163.187 26.3199C163.88 24.9879 164.473 23.114 164.987 20.7504L163.033 20.3256C162.533 22.6233 161.986 24.2961 161.413 25.3961L163.187 26.3199ZM164.987 20.7504C165.507 18.3573 165.77 16.0439 165.77 13.812H163.77C163.77 15.8867 163.526 18.0573 163.033 20.3256L164.987 20.7504ZM165.77 13.812V10.392H163.77V13.812H165.77ZM164.77 11.392H180.426V9.392H164.77V11.392ZM179.426 10.392V25.858H181.426V10.392H179.426ZM180.426 26.858H182.972V24.858H180.426V26.858ZM181.972 25.858V35.776H183.972V25.858H181.972ZM176.068 25.858V14.382H174.068V25.858H176.068ZM175.068 13.382H169.786V15.382H175.068V13.382ZM168.786 14.382V14.876H170.786V14.382H168.786ZM168.786 14.876C168.786 16.6918 168.556 18.6313 168.088 20.6974L170.039 21.1386C170.534 18.9487 170.786 16.8602 170.786 14.876H168.786ZM168.086 20.7061C167.637 22.7787 167.16 24.3496 166.669 25.4501L168.495 26.2659C169.067 24.985 169.579 23.2626 170.041 21.1299L168.086 20.7061ZM167.582 26.858H175.068V24.858H167.582V26.858ZM190.683 10.392H191.683V9.392H190.683V10.392ZM190.683 12.824H189.683V15.9315L191.495 13.4072L190.683 12.824ZM203.109 12.71L203.875 12.0668L203.109 12.71ZM203.147 27.72L202.381 27.0778L202.38 27.0788L203.147 27.72ZM190.949 27.568L191.763 26.9868L189.949 24.4475V27.568H190.949ZM190.949 36.954V37.954H191.949V36.954H190.949ZM185.591 36.954H184.591V37.954H185.591V36.954ZM185.591 10.392V9.392H184.591V10.392H185.591ZM191.975 15.788L191.189 15.1702L191.184 15.176L191.18 15.182L191.975 15.788ZM192.013 24.68L191.227 25.2978L192.013 24.68ZM198.853 24.68L198.067 24.0622L198.062 24.068L198.058 24.074L198.853 24.68ZM198.853 15.826L199.646 15.2172L198.853 15.826ZM189.683 10.392V12.824H191.683V10.392H189.683ZM191.495 13.4072C192.709 11.7173 194.419 10.86 196.763 10.86V8.86C193.838 8.86 191.495 9.97873 189.871 12.2408L191.495 13.4072ZM196.763 10.86C199.123 10.86 200.95 11.6949 202.343 13.3532L203.875 12.0668C202.076 9.92512 199.672 8.86 196.763 8.86V10.86ZM202.343 13.3532C203.75 15.028 204.503 17.3122 204.503 20.31H206.503C206.503 16.9745 205.66 14.192 203.875 12.0668L202.343 13.3532ZM204.503 20.31C204.503 23.2017 203.765 25.425 202.381 27.0778L203.914 28.3622C205.67 26.2656 206.503 23.549 206.503 20.31H204.503ZM202.38 27.0788C201.037 28.6852 199.274 29.494 196.991 29.494V31.494C199.825 31.494 202.166 30.4535 203.914 28.3612L202.38 27.0788ZM196.991 29.494C194.642 29.494 192.948 28.6457 191.763 26.9868L190.135 28.1492C191.737 30.3916 194.071 31.494 196.991 31.494V29.494ZM189.949 27.568V36.954H191.949V27.568H189.949ZM190.949 35.954H185.591V37.954H190.949V35.954ZM186.591 36.954V10.392H184.591V36.954H186.591ZM185.591 11.392H190.683V9.392H185.591V11.392ZM195.433 13.192C193.687 13.192 192.232 13.842 191.189 15.1702L192.761 16.4058C193.39 15.606 194.24 15.192 195.433 15.192V13.192ZM191.18 15.182C190.191 16.48 189.759 18.2045 189.759 20.234H191.759C191.759 18.4634 192.138 17.224 192.77 16.394L191.18 15.182ZM189.759 20.234C189.759 22.2693 190.206 23.9987 191.227 25.2978L192.799 24.0622C192.148 23.2333 191.759 21.9987 191.759 20.234H189.759ZM191.227 25.2978C192.27 26.626 193.725 27.276 195.471 27.276V25.276C194.278 25.276 193.428 24.862 192.799 24.0622L191.227 25.2978ZM195.471 27.276C197.198 27.276 198.632 26.6203 199.648 25.286L198.058 24.074C197.453 24.8677 196.632 25.276 195.471 25.276V27.276ZM199.639 25.2978C200.657 24.0029 201.107 22.3021 201.107 20.31H199.107C199.107 22.0166 198.721 23.2291 198.067 24.0622L199.639 25.2978ZM201.107 20.31C201.107 18.2729 200.659 16.5372 199.646 15.2172L198.06 16.4348C198.719 17.2934 199.107 18.5471 199.107 20.31H201.107ZM199.646 15.2172C198.61 13.8668 197.169 13.192 195.433 13.192V15.192C196.585 15.192 197.424 15.6065 198.06 16.4348L199.646 15.2172Z" fill="#0C3934"/>
<path d="M144.588 64.672H151.656C154.519 64.672 156.837 65.4067 158.61 66.876C160.383 68.32 161.27 70.4607 161.27 73.298C161.27 76.186 160.371 78.3647 158.572 79.834C156.799 81.278 154.392 82 151.352 82H138.698V54.944H158.762V59.846H144.588V64.672ZM155.494 73.222C155.494 70.638 153.949 69.346 150.858 69.346H144.588V77.136H150.896C153.961 77.136 155.494 75.8313 155.494 73.222ZM182.63 62.392L175.41 81.924C175.055 82.912 174.789 83.596 174.612 83.976C174.46 84.3813 174.207 84.9387 173.852 85.648C173.523 86.3573 173.206 86.8513 172.902 87.13C172.623 87.4087 172.231 87.7253 171.724 88.08C171.243 88.4347 170.685 88.6753 170.052 88.802C169.444 88.9287 168.735 88.992 167.924 88.992C167.265 88.992 166.062 88.9793 164.314 88.954V84.508H166.936C167.823 84.508 168.494 84.28 168.95 83.824C169.431 83.368 169.672 82.722 169.672 81.886C169.672 81.6833 169.621 81.43 169.52 81.126L162.414 62.392H168.228L172.712 75.73L177.044 62.392H182.63ZM202.085 82H196.727V66.534H191.559L191.331 73.45C191.306 74.21 191.28 74.818 191.255 75.274C191.23 75.7047 191.154 76.2873 191.027 77.022C190.926 77.7567 190.799 78.352 190.647 78.808C190.495 79.2387 190.254 79.7327 189.925 80.29C189.621 80.822 189.254 81.24 188.823 81.544C188.418 81.8227 187.886 82.0633 187.227 82.266C186.568 82.494 185.834 82.608 185.023 82.608C183.706 82.608 182.73 82.4813 182.097 82.228V77.934C182.73 78.0607 183.237 78.124 183.617 78.124C185.162 78.124 185.973 76.7687 186.049 74.058L186.353 62.392H202.085V82ZM224.61 82H219.138C218.961 81.4933 218.834 80.86 218.758 80.1C217.112 81.7467 214.996 82.57 212.412 82.57C210.234 82.57 208.524 82.0507 207.282 81.012C206.041 79.948 205.42 78.4913 205.42 76.642C205.42 75.806 205.522 75.0713 205.724 74.438C205.952 73.8047 206.307 73.2727 206.788 72.842C207.295 72.4113 207.764 72.0567 208.194 71.778C208.65 71.4993 209.271 71.2713 210.056 71.094C210.842 70.9167 211.475 70.79 211.956 70.714C212.438 70.6127 213.109 70.5113 213.97 70.41C215.87 70.1567 217.137 69.8907 217.77 69.612C218.429 69.3333 218.758 68.814 218.758 68.054C218.758 66.306 217.58 65.432 215.224 65.432C213.983 65.432 213.071 65.66 212.488 66.116C211.906 66.5467 211.526 67.3193 211.348 68.434H206.294C206.598 64.026 209.626 61.822 215.376 61.822C221.076 61.822 223.926 63.95 223.926 68.206V76.68C223.926 79.1627 224.154 80.936 224.61 82ZM218.72 72.462C218.087 72.842 216.82 73.184 214.92 73.488C213.324 73.7413 212.286 74.058 211.804 74.438C211.247 74.894 210.968 75.5527 210.968 76.414C210.968 77.2247 211.222 77.8707 211.728 78.352C212.26 78.808 212.995 79.036 213.932 79.036C215.376 79.036 216.529 78.656 217.39 77.896C218.277 77.1107 218.72 76.034 218.72 74.666V72.462ZM245.785 62.392L239.325 71.55L246.583 82H240.427L236.285 75.654L232.181 82H226.063L233.207 71.664L226.709 62.392H232.865L236.361 67.636L239.819 62.392H245.785Z" fill="#0C3934"/>
<path d="M145.588 65.672H144.588V66.672H145.588V65.672ZM159.61 67.876L158.972 68.646L158.979 68.6514L159.61 67.876ZM159.572 80.834L160.203 81.6094L160.205 81.6084L159.572 80.834ZM139.698 83H138.698V84H139.698V83ZM139.698 55.944V54.944H138.698V55.944H139.698ZM159.762 55.944H160.762V54.944H159.762V55.944ZM159.762 60.846V61.846H160.762V60.846H159.762ZM145.588 60.846V59.846H144.588V60.846H145.588ZM145.588 70.346V69.346H144.588V70.346H145.588ZM145.588 78.136H144.588V79.136H145.588V78.136ZM145.588 66.672H152.656V64.672H145.588V66.672ZM152.656 66.672C155.344 66.672 157.418 67.3587 158.972 68.646L160.248 67.106C158.255 65.4546 155.693 64.672 152.656 64.672V66.672ZM158.979 68.6514C160.463 69.8606 161.27 71.6821 161.27 74.298H163.27C163.27 71.2392 162.303 68.7794 160.241 67.1006L158.979 68.6514ZM161.27 74.298C161.27 76.9658 160.45 78.8255 158.939 80.0596L160.205 81.6084C162.291 79.9038 163.27 77.4062 163.27 74.298H161.27ZM158.941 80.0586C157.397 81.3156 155.238 82 152.352 82V84C155.546 84 158.201 83.2404 160.203 81.6094L158.941 80.0586ZM152.352 82H139.698V84H152.352V82ZM140.698 83V55.944H138.698V83H140.698ZM139.698 56.944H159.762V54.944H139.698V56.944ZM158.762 55.944V60.846H160.762V55.944H158.762ZM159.762 59.846H145.588V61.846H159.762V59.846ZM144.588 60.846V65.672H146.588V60.846H144.588ZM157.494 74.222C157.494 72.7241 157.038 71.435 155.976 70.5478C154.95 69.6893 153.518 69.346 151.858 69.346V71.346C153.288 71.346 154.175 71.6487 154.694 72.0822C155.178 72.487 155.494 73.1359 155.494 74.222H157.494ZM151.858 69.346H145.588V71.346H151.858V69.346ZM144.588 70.346V78.136H146.588V70.346H144.588ZM145.588 79.136H151.896V77.136H145.588V79.136ZM151.896 79.136C153.547 79.136 154.972 78.7881 155.993 77.919C157.045 77.0236 157.494 75.7267 157.494 74.222H155.494C155.494 75.3266 155.177 75.9867 154.696 76.396C154.185 76.8316 153.31 77.136 151.896 77.136V79.136ZM183.63 63.392L184.568 63.7387L185.066 62.392H183.63V63.392ZM176.41 82.924L175.472 82.5773L175.469 82.5861L176.41 82.924ZM175.612 84.976L174.706 84.5531L174.689 84.5884L174.676 84.6249L175.612 84.976ZM174.852 86.648L173.957 86.2008L173.951 86.2137L173.945 86.2269L174.852 86.648ZM173.902 88.13L173.226 87.3928L173.21 87.4075L173.195 87.4229L173.902 88.13ZM172.724 89.08L172.15 88.2608L172.14 88.2677L172.131 88.2749L172.724 89.08ZM171.052 89.802L170.856 88.8214L170.848 88.823L171.052 89.802ZM165.314 89.954H164.314V90.9396L165.299 90.9539L165.314 89.954ZM165.314 85.508V84.508H164.314V85.508H165.314ZM169.95 84.824L169.262 84.098L169.252 84.1073L169.243 84.1169L169.95 84.824ZM170.52 82.126L171.469 81.8098L171.462 81.7904L171.455 81.7713L170.52 82.126ZM163.414 63.392V62.392H161.965L162.479 63.7467L163.414 63.392ZM169.228 63.392L170.176 63.0733L169.947 62.392H169.228V63.392ZM173.712 76.73L172.764 77.0487L173.728 79.9169L174.663 77.0389L173.712 76.73ZM178.044 63.392V62.392H177.317L177.093 63.0831L178.044 63.392ZM182.692 63.0453L175.472 82.5773L177.348 83.2707L184.568 63.7387L182.692 63.0453ZM175.469 82.5861C175.114 83.5754 174.861 84.2197 174.706 84.5531L176.518 85.3989C176.717 84.9723 176.997 84.2486 177.351 83.2619L175.469 82.5861ZM174.676 84.6249C174.542 84.981 174.307 85.5016 173.957 86.2008L175.746 87.0952C176.106 86.3757 176.378 85.7816 176.548 85.3271L174.676 84.6249ZM173.945 86.2269C173.63 86.9045 173.381 87.2512 173.226 87.3928L174.578 88.8672C175.031 88.4515 175.415 87.8102 175.759 87.0691L173.945 86.2269ZM173.195 87.4229C172.974 87.644 172.633 87.923 172.15 88.2608L173.297 89.8992C173.828 89.5277 174.273 89.1733 174.609 88.8371L173.195 87.4229ZM172.131 88.2749C171.776 88.5359 171.357 88.7211 170.856 88.8214L171.248 90.7826C172.013 90.6295 172.709 90.3334 173.317 89.8851L172.131 88.2749ZM170.848 88.823C170.324 88.9322 169.686 88.992 168.924 88.992V90.992C169.784 90.992 170.564 90.9251 171.256 90.781L170.848 88.823ZM168.924 88.992C168.273 88.992 167.077 88.9794 165.328 88.9541L165.299 90.9539C167.047 90.9792 168.257 90.992 168.924 90.992V88.992ZM166.314 89.954V85.508H164.314V89.954H166.314ZM165.314 86.508H167.936V84.508H165.314V86.508ZM167.936 86.508C168.986 86.508 169.952 86.236 170.657 85.5311L169.243 84.1169C169.036 84.324 168.659 84.508 167.936 84.508V86.508ZM170.638 85.55C171.367 84.8585 171.672 83.9205 171.672 82.886H169.672C169.672 83.5235 169.495 83.8775 169.262 84.098L170.638 85.55ZM171.672 82.886C171.672 82.5321 171.587 82.1637 171.469 81.8098L169.571 82.4422C169.656 82.6963 169.672 82.8346 169.672 82.886H171.672ZM171.455 81.7713L164.349 63.0373L162.479 63.7467L169.585 82.4807L171.455 81.7713ZM163.414 64.392H169.228V62.392H163.414V64.392ZM168.28 63.7107L172.764 77.0487L174.66 76.4113L170.176 63.0733L168.28 63.7107ZM174.663 77.0389L178.995 63.7009L177.093 63.0831L172.761 76.4211L174.663 77.0389ZM178.044 64.392H183.63V62.392H178.044V64.392ZM203.085 83V84H204.085V83H203.085ZM197.727 83H196.727V84H197.727V83ZM197.727 67.534H198.727V66.534H197.727V67.534ZM192.559 67.534V66.534H191.591L191.56 67.5011L192.559 67.534ZM192.331 74.45L193.33 74.4833L193.33 74.4829L192.331 74.45ZM192.255 76.274L193.253 76.3327L193.253 76.3295L192.255 76.274ZM192.027 78.022L191.042 77.8521L191.039 77.8687L191.036 77.8854L192.027 78.022ZM191.647 79.808L192.59 80.1408L192.593 80.1325L192.596 80.1242L191.647 79.808ZM190.925 81.29L190.064 80.7813L190.06 80.7875L190.057 80.7939L190.925 81.29ZM189.823 82.544L190.39 83.3681L190.4 83.361L189.823 82.544ZM188.227 83.266L187.933 82.3102L187.916 82.3153L187.9 82.321L188.227 83.266ZM183.097 83.228H182.097V83.905L182.726 84.1565L183.097 83.228ZM183.097 78.934L183.293 77.9534L182.097 77.7142V78.934H183.097ZM187.049 75.058L188.049 75.086L188.049 75.084L187.049 75.058ZM187.353 63.392V62.392H186.379L186.353 63.3659L187.353 63.392ZM203.085 63.392H204.085V62.392H203.085V63.392ZM203.085 82H197.727V84H203.085V82ZM198.727 83V67.534H196.727V83H198.727ZM197.727 66.534H192.559V68.534H197.727V66.534ZM191.56 67.5011L191.332 74.4171L193.33 74.4829L193.558 67.5669L191.56 67.5011ZM191.332 74.4167C191.306 75.1734 191.281 75.7731 191.257 76.2185L193.253 76.3295C193.279 75.8629 193.305 75.2466 193.33 74.4833L191.332 74.4167ZM191.257 76.2153C191.235 76.5914 191.166 77.1319 191.042 77.8521L193.012 78.1919C193.142 77.4428 193.225 76.8179 193.253 76.3327L191.257 76.2153ZM191.036 77.8854C190.939 78.588 190.823 79.1166 190.698 79.4918L192.596 80.1242C192.775 79.5874 192.912 78.9253 193.018 78.1586L191.036 77.8854ZM190.704 79.4752C190.58 79.8253 190.373 80.2587 190.064 80.7813L191.786 81.7987C192.136 81.2067 192.41 80.6521 192.59 80.1408L190.704 79.4752ZM190.057 80.7939C189.814 81.2194 189.54 81.52 189.246 81.727L190.4 83.361C190.968 82.96 191.428 82.4246 191.793 81.7861L190.057 80.7939ZM189.256 81.72C188.961 81.9232 188.53 82.1264 187.933 82.3102L188.521 84.2218C189.241 84.0003 189.875 83.7221 190.389 83.368L189.256 81.72ZM187.9 82.321C187.362 82.5072 186.74 82.608 186.023 82.608V84.608C186.927 84.608 187.775 84.4808 188.554 84.211L187.9 82.321ZM186.023 82.608C184.737 82.608 183.919 82.4797 183.468 82.2995L182.726 84.1565C183.542 84.483 184.674 84.608 186.023 84.608V82.608ZM184.097 83.228V78.934H182.097V83.228H184.097ZM182.901 79.9146C183.561 80.0465 184.141 80.124 184.617 80.124V78.124C184.333 78.124 183.9 78.0748 183.293 77.9534L182.901 79.9146ZM184.617 80.124C185.751 80.124 186.661 79.5922 187.242 78.6208C187.778 77.7255 188.009 76.5053 188.049 75.086L186.049 75.03C186.013 76.3213 185.801 77.1341 185.526 77.5942C185.296 77.9781 185.028 78.124 184.617 78.124V80.124ZM188.049 75.084L188.353 63.418L186.353 63.3659L186.049 75.0319L188.049 75.084ZM187.353 64.392H203.085V62.392H187.353V64.392ZM202.085 63.392V83H204.085V63.392H202.085ZM225.61 83V84H227.127L226.53 82.6061L225.61 83ZM220.138 83L219.195 83.3304L219.429 84H220.138V83ZM219.758 81.1L220.753 81.0005L220.543 78.9007L219.051 80.3929L219.758 81.1ZM208.282 82.012L207.632 82.7713L207.641 82.7789L208.282 82.012ZM206.724 75.438L205.783 75.0993L205.777 75.1161L205.772 75.1332L206.724 75.438ZM207.788 73.842L207.141 73.0801L207.131 73.0883L207.122 73.0968L207.788 73.842ZM209.194 72.778L208.673 71.9247L208.662 71.9314L208.651 71.9384L209.194 72.778ZM212.956 71.714L213.112 72.7018L213.137 72.6978L213.162 72.6925L212.956 71.714ZM214.97 71.41L215.087 72.4032L215.095 72.4022L215.103 72.4012L214.97 71.41ZM218.77 70.612L218.381 69.691L218.374 69.6938L218.368 69.6967L218.77 70.612ZM213.488 67.116L214.083 67.9202L214.094 67.912L214.105 67.9035L213.488 67.116ZM212.348 69.434V70.434H213.202L213.336 69.5911L212.348 69.434ZM207.294 69.434L206.297 69.3652L206.223 70.434H207.294V69.434ZM219.72 73.462H220.72V71.6958L219.206 72.6045L219.72 73.462ZM215.92 74.488L216.077 75.4756L216.078 75.4754L215.92 74.488ZM212.804 75.438L212.185 74.6531L212.178 74.6585L212.171 74.664L212.804 75.438ZM212.728 79.352L212.04 80.077L212.058 80.0946L212.078 80.1113L212.728 79.352ZM218.39 78.896L219.052 79.6458L219.053 79.6446L218.39 78.896ZM225.61 82H220.138V84H225.61V82ZM221.082 82.6696C220.939 82.2617 220.825 81.712 220.753 81.0005L218.763 81.1995C218.844 82.008 218.983 82.725 219.195 83.3304L221.082 82.6696ZM219.051 80.3929C217.614 81.8306 215.763 82.57 213.412 82.57V84.57C216.23 84.57 218.61 83.6627 220.465 81.8071L219.051 80.3929ZM213.412 82.57C211.387 82.57 209.932 82.0881 208.924 81.2451L207.641 82.7789C209.116 84.0133 211.081 84.57 213.412 84.57V82.57ZM208.933 81.2527C207.944 80.4049 207.42 79.2422 207.42 77.642H205.42C205.42 79.7405 206.138 81.4911 207.632 82.7713L208.933 81.2527ZM207.42 77.642C207.42 76.8841 207.513 76.256 207.677 75.7428L205.772 75.1332C205.531 75.8866 205.42 76.7279 205.42 77.642H207.42ZM207.665 75.7767C207.839 75.2927 208.103 74.9025 208.455 74.5872L207.122 73.0968C206.511 73.6428 206.065 74.3166 205.783 75.0993L207.665 75.7767ZM208.436 74.6039C208.919 74.1936 209.352 73.8669 209.738 73.6176L208.651 71.9384C208.175 72.2464 207.671 72.629 207.141 73.0801L208.436 74.6039ZM209.716 73.6313C210.044 73.4306 210.549 73.2337 211.277 73.0694L210.836 71.1186C209.993 71.309 209.256 71.5681 208.673 71.9247L209.716 73.6313ZM211.277 73.0694C212.052 72.8943 212.662 72.7729 213.112 72.7018L212.8 70.7262C212.288 70.8071 211.631 70.9391 210.836 71.1186L211.277 73.0694ZM213.162 72.6925C213.6 72.6004 214.237 72.5032 215.087 72.4032L214.854 70.4168C213.981 70.5195 213.275 70.6249 212.75 70.7354L213.162 72.6925ZM215.103 72.4012C216.986 72.1501 218.391 71.8715 219.173 71.5273L218.368 69.6967C217.883 69.9098 216.754 70.1633 214.838 70.4188L215.103 72.4012ZM219.16 71.533C219.645 71.3277 220.065 71.0072 220.356 70.549C220.644 70.0952 220.758 69.5789 220.758 69.054H218.758C218.758 69.2891 218.708 69.4125 218.667 69.478C218.628 69.5392 218.554 69.6176 218.381 69.691L219.16 71.533ZM220.758 69.054C220.758 67.9319 220.364 66.9474 219.471 66.2844C218.633 65.6629 217.497 65.432 216.224 65.432V67.432C217.308 67.432 217.939 67.6381 218.279 67.8906C218.563 68.1016 218.758 68.4281 218.758 69.054H220.758ZM216.224 65.432C214.898 65.432 213.715 65.6688 212.872 66.3285L214.105 67.9035C214.427 67.6512 215.068 67.432 216.224 67.432V65.432ZM212.894 66.3118C212.009 66.9661 211.557 68.0435 211.361 69.2769L213.336 69.5911C213.494 68.5952 213.803 68.1272 214.083 67.9202L212.894 66.3118ZM212.348 68.434H207.294V70.434H212.348V68.434ZM208.292 69.5028C208.428 67.5349 209.151 66.1795 210.381 65.2834C211.655 64.3566 213.606 63.822 216.376 63.822V61.822C213.396 61.822 210.959 62.3894 209.204 63.6666C207.408 64.9745 206.465 66.9251 206.297 69.3652L208.292 69.5028ZM216.376 63.822C219.131 63.822 221.015 64.3413 222.191 65.2193C223.312 66.0563 223.926 67.3237 223.926 69.206H225.926C225.926 66.8323 225.116 64.9077 223.387 63.6167C221.713 62.3667 219.322 61.822 216.376 61.822V63.822ZM223.926 69.206V77.68H225.926V69.206H223.926ZM223.926 77.68C223.926 80.1782 224.149 82.1292 224.691 83.3939L226.53 82.6061C226.16 81.7428 225.926 80.1471 225.926 77.68H223.926ZM219.206 72.6045C218.76 72.8723 217.677 73.1942 215.762 73.5006L216.078 75.4754C217.964 75.1738 219.414 74.8117 220.235 74.3195L219.206 72.6045ZM215.764 73.5004C214.94 73.6311 214.232 73.7824 213.653 73.959C213.092 74.13 212.571 74.3481 212.185 74.6531L213.424 76.2229C213.519 76.1479 213.758 76.0176 214.236 75.872C214.695 75.732 215.305 75.5982 216.077 75.4756L215.764 73.5004ZM212.171 74.664C211.336 75.3477 210.968 76.3179 210.968 77.414H212.968C212.968 76.7874 213.159 76.4403 213.438 76.212L212.171 74.664ZM210.968 77.414C210.968 78.451 211.302 79.3763 212.04 80.077L213.417 78.627C213.141 78.365 212.968 77.9984 212.968 77.414H210.968ZM212.078 80.1113C212.844 80.7684 213.838 81.036 214.932 81.036V79.036C214.152 79.036 213.676 78.8476 213.379 78.5927L212.078 80.1113ZM214.932 81.036C216.555 81.036 217.965 80.6053 219.052 79.6458L217.729 78.1462C217.093 78.7067 216.198 79.036 214.932 79.036V81.036ZM219.053 79.6446C220.188 78.6392 220.72 77.2713 220.72 75.666H218.72C218.72 76.7967 218.366 77.5821 217.727 78.1474L219.053 79.6446ZM220.72 75.666V73.462H218.72V75.666H220.72ZM246.785 63.392L247.602 63.9684L248.714 62.392H246.785V63.392ZM240.325 72.55L239.508 71.9736L239.104 72.5456L239.503 73.1205L240.325 72.55ZM247.583 83V84H249.495L248.404 82.4295L247.583 83ZM241.427 83L240.589 83.5466L240.885 84H241.427V83ZM237.285 76.654L238.122 76.1074L237.281 74.8185L236.445 76.111L237.285 76.654ZM233.181 83V84H233.725L234.02 83.543L233.181 83ZM227.063 83L226.24 82.4314L225.156 84H227.063V83ZM234.207 72.664L235.029 73.2326L235.425 72.66L235.026 72.0901L234.207 72.664ZM227.709 63.392V62.392H225.787L226.89 63.9659L227.709 63.392ZM233.865 63.392L234.697 62.8373L234.4 62.392H233.865V63.392ZM237.361 68.636L236.529 69.1907L237.365 70.4456L238.196 69.1865L237.361 68.636ZM240.819 63.392V62.392H240.28L239.984 62.8415L240.819 63.392ZM245.968 62.8156L239.508 71.9736L241.142 73.1264L247.602 63.9684L245.968 62.8156ZM239.503 73.1205L246.761 83.5705L248.404 82.4295L241.146 71.9795L239.503 73.1205ZM247.583 82H241.427V84H247.583V82ZM242.264 82.4534L238.122 76.1074L236.447 77.2006L240.589 83.5466L242.264 82.4534ZM236.445 76.111L232.341 82.457L234.02 83.543L238.124 77.197L236.445 76.111ZM233.181 82H227.063V84H233.181V82ZM227.885 83.5686L235.029 73.2326L233.384 72.0954L226.24 82.4314L227.885 83.5686ZM235.026 72.0901L228.528 62.8181L226.89 63.9659L233.388 73.2379L235.026 72.0901ZM227.709 64.392H233.865V62.392H227.709V64.392ZM233.033 63.9467L236.529 69.1907L238.193 68.0813L234.697 62.8373L233.033 63.9467ZM238.196 69.1865L241.654 63.9425L239.984 62.8415L236.526 68.0855L238.196 69.1865ZM240.819 64.392H246.785V62.392H240.819V64.392Z" fill="#0C3934"/>
</svg>
