<svg width="784" height="252" viewBox="0 0 784 252" fill="none" xmlns="http://www.w3.org/2000/svg">
<path d="M51.491 5.57899L83.198 89H64.01L57.458 70.397H26.453L19.667 89H0.947L32.654 5.57899H51.491ZM53.012 57.059L42.014 26.054L30.899 57.059H53.012ZM144.573 89H128.076V41.381H112.164L111.462 62.675C111.384 65.015 111.306 66.887 111.228 68.291C111.15 69.617 110.916 71.411 110.526 73.673C110.214 75.935 109.824 77.768 109.356 79.172C108.888 80.498 108.147 82.019 107.133 83.735C106.197 85.373 105.066 86.66 103.74 87.596C102.492 88.454 100.854 89.195 98.8257 89.819C96.7977 90.521 94.5357 90.872 92.0397 90.872C87.9837 90.872 84.9807 90.482 83.0307 89.702V76.481C84.9807 76.871 86.5407 77.066 87.7107 77.066C92.4687 77.066 94.9647 72.893 95.1987 64.547L96.1347 28.628H144.573V89ZM214.512 70.28C212.64 76.754 209.169 81.785 204.099 85.373C199.107 88.961 193.14 90.755 186.198 90.755C176.916 90.755 169.428 87.869 163.734 82.097C158.118 76.325 155.31 68.681 155.31 59.165C155.31 49.805 158.157 42.083 163.851 35.999C169.545 29.915 176.799 26.873 185.613 26.873C194.739 26.873 201.993 29.993 207.375 36.233C212.757 42.395 215.448 50.78 215.448 61.388V63.026H172.158C172.236 68.252 173.484 72.23 175.902 74.96C178.398 77.69 181.869 79.055 186.315 79.055C192.165 79.055 196.26 76.13 198.6 70.28H214.512ZM198.6 52.496C198.21 48.518 196.923 45.281 194.739 42.785C192.555 40.211 189.513 38.924 185.613 38.924C181.947 38.924 178.905 40.133 176.487 42.551C174.069 44.969 172.626 48.284 172.158 52.496H198.6ZM286.61 89H266.486L249.053 63.026L241.682 70.514V89H225.419V28.628H241.682V52.496L263.795 28.628H283.334L259.934 52.028L286.61 89ZM347.642 65.717C346.628 73.517 343.547 79.601 338.399 83.969C333.329 88.337 326.777 90.521 318.743 90.521C309.461 90.521 302.012 87.674 296.396 81.98C290.78 76.286 287.972 68.72 287.972 59.282C287.972 49.532 290.78 41.693 296.396 35.765C302.09 29.837 309.617 26.873 318.977 26.873C327.011 26.873 333.563 28.94 338.633 33.074C343.703 37.13 346.589 42.668 347.291 49.688H331.028C329.78 42.746 325.802 39.275 319.094 39.275C314.57 39.275 311.021 41.03 308.447 44.54C305.951 47.972 304.703 52.769 304.703 58.931C304.703 64.937 305.912 69.617 308.33 72.971C310.826 76.247 314.297 77.885 318.743 77.885C325.997 77.885 330.287 73.829 331.613 65.717H347.642ZM413.421 89H396.573C396.027 87.44 395.637 85.49 395.403 83.15C390.333 88.22 383.82 90.755 375.864 90.755C369.156 90.755 363.891 89.156 360.069 85.958C356.247 82.682 354.336 78.197 354.336 72.503C354.336 69.929 354.648 67.667 355.272 65.717C355.974 63.767 357.066 62.129 358.548 60.803C360.108 59.477 361.551 58.385 362.877 57.527C364.281 56.669 366.192 55.967 368.61 55.421C371.028 54.875 372.978 54.485 374.46 54.251C375.942 53.939 378.009 53.627 380.661 53.315C386.511 52.535 390.411 51.716 392.361 50.858C394.389 50 395.403 48.401 395.403 46.061C395.403 40.679 391.776 37.988 384.522 37.988C380.7 37.988 377.892 38.69 376.098 40.094C374.304 41.42 373.134 43.799 372.588 47.231H357.027C357.963 33.659 367.284 26.873 384.99 26.873C402.54 26.873 411.315 33.425 411.315 46.529V72.62C411.315 80.264 412.017 85.724 413.421 89ZM395.286 59.633C393.336 60.803 389.436 61.856 383.586 62.792C378.672 63.572 375.474 64.547 373.992 65.717C372.276 67.121 371.418 69.149 371.418 71.801C371.418 74.297 372.198 76.286 373.758 77.768C375.396 79.172 377.658 79.874 380.544 79.874C384.99 79.874 388.539 78.704 391.191 76.364C393.921 73.946 395.286 70.631 395.286 66.419V59.633ZM480.956 89H464.459V63.611H441.176V89H424.679V28.628H441.176V50.507H464.459V28.628H480.956V89ZM559.202 106.784H543.641V89H503.861V106.784H488.3V76.247H495.554C497.504 72.503 499.259 67.043 500.819 59.867C502.379 52.691 503.159 45.788 503.159 39.158V28.628H551.363V76.247H559.202V106.784ZM534.866 76.247V40.913H518.603V42.434C518.603 48.284 517.862 54.485 516.38 61.037C514.976 67.511 513.455 72.581 511.817 76.247H534.866ZM582.945 28.628V36.116C587.313 30.032 593.553 26.99 601.665 26.99C609.777 26.99 616.29 29.915 621.204 35.765C626.118 41.615 628.575 49.415 628.575 59.165C628.575 68.603 626.157 76.208 621.321 81.98C616.563 87.674 610.245 90.521 602.367 90.521C594.255 90.521 588.054 87.518 583.764 81.512V110.411H567.267V28.628H582.945ZM597.57 40.328C593.046 40.328 589.497 41.966 586.923 45.242C584.427 48.518 583.179 53.081 583.179 58.931C583.179 64.781 584.466 69.344 587.04 72.62C589.614 75.896 593.163 77.534 597.687 77.534C602.133 77.534 605.604 75.896 608.1 72.62C610.674 69.344 611.961 64.859 611.961 59.165C611.961 53.315 610.674 48.713 608.1 45.359C605.526 42.005 602.016 40.328 597.57 40.328Z" fill="#0C3934"/>
<path d="M53.491 7.57899L54.4258 7.22371L54.1807 6.57899H53.491V7.57899ZM85.198 91V92H86.6479L86.1328 90.6447L85.198 91ZM66.01 91L65.0668 91.3322L65.302 92H66.01V91ZM59.458 72.397L60.4012 72.0648L60.166 71.397H59.458V72.397ZM28.453 72.397V71.397H27.7533L27.5136 72.0543L28.453 72.397ZM21.667 91V92H22.3667L22.6064 91.3427L21.667 91ZM2.947 91L2.01224 90.6447L1.49712 92H2.947V91ZM34.654 7.57899V6.57899H33.9643L33.7192 7.22371L34.654 7.57899ZM55.012 59.059V60.059H56.4278L55.9545 58.7247L55.012 59.059ZM44.014 28.054L44.9565 27.7197L44.019 25.0768L43.0727 27.7165L44.014 28.054ZM32.899 59.059L31.9577 58.7215L31.4782 60.059H32.899V59.059ZM52.5562 7.93428L84.2632 91.3553L86.1328 90.6447L54.4258 7.22371L52.5562 7.93428ZM85.198 90H66.01V92H85.198V90ZM66.9532 90.6678L60.4012 72.0648L58.5148 72.7292L65.0668 91.3322L66.9532 90.6678ZM59.458 71.397H28.453V73.397H59.458V71.397ZM27.5136 72.0543L20.7276 90.6573L22.6064 91.3427L29.3924 72.7397L27.5136 72.0543ZM21.667 90H2.947V92H21.667V90ZM3.88176 91.3553L35.5888 7.93428L33.7192 7.22371L2.01224 90.6447L3.88176 91.3553ZM34.654 8.57899H53.491V6.57899H34.654V8.57899ZM55.9545 58.7247L44.9565 27.7197L43.0715 28.3883L54.0695 59.3933L55.9545 58.7247ZM43.0727 27.7165L31.9577 58.7215L33.8403 59.3965L44.9553 28.3915L43.0727 27.7165ZM32.899 60.059H55.012V58.059H32.899V60.059ZM146.573 91V92H147.573V91H146.573ZM130.076 91H129.076V92H130.076V91ZM130.076 43.381H131.076V42.381H130.076V43.381ZM114.164 43.381V42.381H113.196L113.164 43.348L114.164 43.381ZM113.462 64.675L114.461 64.7083L114.461 64.7079L113.462 64.675ZM113.228 70.291L114.226 70.3497L114.226 70.3465L113.228 70.291ZM112.526 75.673L111.54 75.5031L111.537 75.5197L111.535 75.5364L112.526 75.673ZM111.356 81.172L112.299 81.5048L112.302 81.4966L112.304 81.4882L111.356 81.172ZM109.133 85.735L108.272 85.2263L108.268 85.2325L108.264 85.2389L109.133 85.735ZM105.74 89.596L106.306 90.4201L106.316 90.413L105.74 89.596ZM100.826 91.819L100.532 90.8632L100.515 90.8683L100.499 90.874L100.826 91.819ZM85.0307 91.702H84.0307V92.379L84.6593 92.6305L85.0307 91.702ZM85.0307 78.481L85.2268 77.5004L84.0307 77.2612V78.481H85.0307ZM97.1987 66.547L98.1983 66.575L98.1984 66.5731L97.1987 66.547ZM98.1347 30.628V29.628H97.1604L97.1351 30.6019L98.1347 30.628ZM146.573 30.628H147.573V29.628H146.573V30.628ZM146.573 90H130.076V92H146.573V90ZM131.076 91V43.381H129.076V91H131.076ZM130.076 42.381H114.164V44.381H130.076V42.381ZM113.164 43.348L112.462 64.6421L114.461 64.7079L115.163 43.4139L113.164 43.348ZM112.462 64.6417C112.384 66.9784 112.307 68.8421 112.229 70.2355L114.226 70.3465C114.305 68.9319 114.383 67.0516 114.461 64.7083L112.462 64.6417ZM112.229 70.2323C112.155 71.5037 111.928 73.2556 111.54 75.5031L113.511 75.8429C113.904 73.5664 114.145 71.7303 114.226 70.3497L112.229 70.2323ZM111.535 75.5364C111.228 77.7664 110.848 79.5326 110.407 80.8558L112.304 81.4882C112.799 80.0033 113.2 78.1036 113.516 75.8096L111.535 75.5364ZM110.413 80.8392C109.973 82.0846 109.265 83.545 108.272 85.2263L109.994 86.2437C111.028 84.493 111.802 82.9114 112.299 81.5048L110.413 80.8392ZM108.264 85.2389C107.389 86.7704 106.352 87.94 105.163 88.779L106.316 90.413C107.78 89.38 109.004 87.9756 110.001 86.2311L108.264 85.2389ZM105.173 88.772C104.035 89.5546 102.498 90.2581 100.532 90.8632L101.12 92.7748C103.209 92.1319 104.949 91.3534 106.306 90.42L105.173 88.772ZM100.499 90.874C98.5914 91.5342 96.4422 91.872 94.0397 91.872V93.872C96.6293 93.872 99.004 93.5078 101.153 92.764L100.499 90.874ZM94.0397 91.872C90.0149 91.872 87.1692 91.4804 85.4021 90.7735L84.6593 92.6305C86.7922 93.4836 89.9526 93.872 94.0397 93.872V91.872ZM86.0307 91.702V78.481H84.0307V91.702H86.0307ZM84.8346 79.4616C86.8111 79.8569 88.445 80.066 89.7107 80.066V78.066C88.6365 78.066 87.1503 77.8851 85.2268 77.5004L84.8346 79.4616ZM89.7107 80.066C92.4509 80.066 94.5857 78.8298 96.0094 76.4496C97.3876 74.1455 98.0795 70.812 98.1983 66.575L96.1991 66.519C96.0839 70.628 95.4109 73.554 94.293 75.4229C93.2207 77.2157 91.7286 78.066 89.7107 78.066V80.066ZM98.1984 66.5731L99.1344 30.654L97.1351 30.6019L96.1991 66.521L98.1984 66.5731ZM98.1347 31.628H146.573V29.628H98.1347V31.628ZM145.573 30.628V91H147.573V30.628H145.573ZM216.512 72.28L217.473 72.5578L217.842 71.28H216.512V72.28ZM206.099 87.373L205.522 86.5567L205.516 86.561L206.099 87.373ZM165.734 84.097L165.017 84.7944L165.022 84.7993L165.734 84.097ZM165.851 37.999L166.581 38.6823L165.851 37.999ZM209.375 38.233L208.618 38.8861L208.622 38.8908L209.375 38.233ZM217.448 65.026V66.026H218.448V65.026H217.448ZM174.158 65.026V64.026H173.143L173.158 65.0409L174.158 65.026ZM177.902 76.96L177.154 77.623L177.159 77.6289L177.164 77.6348L177.902 76.96ZM200.6 72.28V71.28H199.923L199.672 71.9086L200.6 72.28ZM200.6 54.496V55.496H201.703L201.595 54.3984L200.6 54.496ZM196.739 44.785L195.977 45.432L195.982 45.4378L195.987 45.4435L196.739 44.785ZM178.487 44.551L179.194 45.2581L178.487 44.551ZM174.158 54.496L173.164 54.3856L173.041 55.496H174.158V54.496ZM215.552 72.0022C213.737 78.2783 210.39 83.1111 205.522 86.5567L206.677 88.1893C211.948 84.4589 215.544 79.2297 217.473 72.5578L215.552 72.0022ZM205.516 86.561C200.715 90.0113 194.959 91.755 188.198 91.755V93.755C195.321 93.755 201.499 91.9107 206.683 88.185L205.516 86.561ZM188.198 91.755C179.142 91.755 171.925 88.9482 166.446 83.3947L165.022 84.7993C170.932 90.7898 178.691 93.755 188.198 93.755V91.755ZM166.451 83.3996C161.049 77.8477 158.31 70.4712 158.31 61.165H156.31C156.31 70.8908 159.187 78.8023 165.017 84.7944L166.451 83.3996ZM158.31 61.165C158.31 52.0249 161.083 44.5577 166.581 38.6823L165.121 37.3157C159.232 43.6083 156.31 51.585 156.31 61.165H158.31ZM166.581 38.6823C172.074 32.8131 179.058 29.873 187.613 29.873V27.873C178.54 27.873 171.016 31.0169 165.121 37.3157L166.581 38.6823ZM187.613 29.873C196.483 29.873 203.448 32.8916 208.618 38.8861L210.132 37.5799C204.539 31.0944 196.995 27.873 187.613 27.873V29.873ZM208.622 38.8908C213.803 44.8221 216.448 52.9485 216.448 63.388H218.448C218.448 52.6115 215.712 43.9679 210.128 37.5752L208.622 38.8908ZM216.448 63.388V65.026H218.448V63.388H216.448ZM217.448 64.026H174.158V66.026H217.448V64.026ZM173.158 65.0409C173.238 70.4041 174.52 74.6501 177.154 77.623L178.651 76.297C176.448 73.8099 175.234 70.0999 175.158 65.0111L173.158 65.0409ZM177.164 77.6348C179.888 80.6134 183.65 82.055 188.315 82.055V80.055C184.088 80.055 180.909 78.7666 178.64 76.2852L177.164 77.6348ZM188.315 82.055C191.414 82.055 194.112 81.2775 196.355 79.675C198.593 78.0763 200.306 75.7094 201.529 72.6514L199.672 71.9086C198.555 74.7006 197.05 76.7212 195.193 78.0475C193.341 79.37 191.067 80.055 188.315 80.055V82.055ZM200.6 73.28H216.512V71.28H200.6V73.28ZM201.595 54.3984C201.189 50.2562 199.839 46.8096 197.492 44.1265L195.987 45.4435C198.007 47.7524 199.231 50.7798 199.605 54.5936L201.595 54.3984ZM197.502 44.138C195.097 41.3041 191.756 39.924 187.613 39.924V41.924C191.27 41.924 194.013 43.1179 195.977 45.432L197.502 44.138ZM187.613 39.924C183.703 39.924 180.4 41.2239 177.78 43.8439L179.194 45.2581C181.41 43.0421 184.191 41.924 187.613 41.924V39.924ZM177.78 43.8439C175.166 46.4579 173.651 50.0033 173.164 54.3856L175.152 54.6064C175.601 50.5647 176.972 47.4801 179.194 45.2581L177.78 43.8439ZM174.158 55.496H200.6V53.496H174.158V55.496ZM288.61 91V92H290.564L289.421 90.4149L288.61 91ZM268.486 91L267.655 91.5573L267.953 92H268.486V91ZM251.053 65.026L251.883 64.4687L251.2 63.451L250.34 64.3245L251.053 65.026ZM243.682 72.514L242.969 71.8125L242.682 72.1044V72.514H243.682ZM243.682 91V92H244.682V91H243.682ZM227.419 91H226.419V92H227.419V91ZM227.419 30.628V29.628H226.419V30.628H227.419ZM243.682 30.628H244.682V29.628H243.682V30.628ZM243.682 54.496H242.682V57.0468L244.415 55.1756L243.682 54.496ZM265.795 30.628V29.628H265.358L265.061 29.9484L265.795 30.628ZM285.334 30.628L286.041 31.3351L287.748 29.628H285.334V30.628ZM261.934 54.028L261.227 53.3209L260.625 53.9228L261.123 54.6131L261.934 54.028ZM288.61 90H268.486V92H288.61V90ZM269.316 90.4427L251.883 64.4687L250.222 65.5833L267.655 91.5573L269.316 90.4427ZM250.34 64.3245L242.969 71.8125L244.394 73.2155L251.765 65.7275L250.34 64.3245ZM242.682 72.514V91H244.682V72.514H242.682ZM243.682 90H227.419V92H243.682V90ZM228.419 91V30.628H226.419V91H228.419ZM227.419 31.628H243.682V29.628H227.419V31.628ZM242.682 30.628V54.496H244.682V30.628H242.682ZM244.415 55.1756L266.528 31.3076L265.061 29.9484L242.948 53.8164L244.415 55.1756ZM265.795 31.628H285.334V29.628H265.795V31.628ZM284.627 29.9209L261.227 53.3209L262.641 54.7351L286.041 31.3351L284.627 29.9209ZM261.123 54.6131L287.799 91.5851L289.421 90.4149L262.745 53.4429L261.123 54.6131ZM349.642 67.717L350.633 67.8459L350.78 66.717H349.642V67.717ZM340.399 85.969L339.752 85.2065L339.746 85.2114L340.399 85.969ZM298.396 83.98L297.684 84.6822L298.396 83.98ZM298.396 37.765L297.675 37.0723L297.67 37.0773L298.396 37.765ZM340.633 35.074L340.001 35.849L340.008 35.8549L340.633 35.074ZM349.291 51.688V52.688H350.396L350.286 51.5885L349.291 51.688ZM333.028 51.688L332.044 51.8649L332.191 52.688H333.028V51.688ZM310.447 46.54L309.64 45.9486L309.638 45.9518L310.447 46.54ZM310.33 74.971L309.519 75.5558L309.526 75.5665L309.534 75.577L310.33 74.971ZM333.613 67.717V66.717H332.763L332.626 67.5557L333.613 67.717ZM348.65 67.5881C347.663 75.1847 344.679 81.0257 339.752 85.2065L341.046 86.7315C346.414 82.1763 349.593 75.8493 350.633 67.8459L348.65 67.5881ZM339.746 85.2114C334.892 89.3931 328.587 91.521 320.743 91.521V93.521C328.966 93.521 335.765 91.281 341.051 86.7266L339.746 85.2114ZM320.743 91.521C311.682 91.521 304.505 88.7505 299.108 83.2778L297.684 84.6822C303.518 90.5975 311.24 93.521 320.743 93.521V91.521ZM299.108 83.2778C293.709 77.8042 290.972 70.508 290.972 61.282H288.972C288.972 70.932 291.85 78.7678 297.684 84.6822L299.108 83.2778ZM290.972 61.282C290.972 51.7351 293.715 44.1599 299.122 38.4527L297.67 37.0773C291.845 43.2261 288.972 51.3289 288.972 61.282H290.972ZM299.117 38.4577C304.596 32.754 311.848 29.873 320.977 29.873V27.873C311.386 27.873 303.584 30.92 297.675 37.0723L299.117 38.4577ZM320.977 29.873C328.835 29.873 335.147 31.8914 340.001 35.849L341.265 34.299C335.978 29.9886 329.187 27.873 320.977 27.873V29.873ZM340.008 35.8549C344.849 39.7274 347.618 45.0095 348.296 51.7875L350.286 51.5885C349.56 44.3264 346.557 38.5326 341.257 34.2931L340.008 35.8549ZM349.291 50.688H333.028V52.688H349.291V50.688ZM334.012 51.5111C333.361 47.8915 331.976 45.0532 329.766 43.1248C327.55 41.191 324.622 40.275 321.094 40.275V42.275C324.273 42.275 326.689 43.0945 328.451 44.6317C330.219 46.1743 331.446 48.5425 332.044 51.8649L334.012 51.5111ZM321.094 40.275C316.266 40.275 312.411 42.1701 309.64 45.9486L311.253 47.1314C313.63 43.8899 316.874 42.275 321.094 42.275V40.275ZM309.638 45.9518C306.973 49.6164 305.703 54.6493 305.703 60.931H307.703C307.703 54.8887 308.929 50.3276 311.255 47.1282L309.638 45.9518ZM305.703 60.931C305.703 67.0559 306.934 71.9702 309.519 75.5558L311.141 74.3862C308.89 71.2638 307.703 66.8181 307.703 60.931H305.703ZM309.534 75.577C312.236 79.1233 316.013 80.885 320.743 80.885V78.885C316.58 78.885 313.415 77.3707 311.125 74.365L309.534 75.577ZM320.743 80.885C324.564 80.885 327.717 79.8113 330.088 77.5696C332.444 75.3421 333.915 72.0674 334.6 67.8783L332.626 67.5557C331.985 71.4786 330.648 74.2879 328.714 76.1164C326.795 77.9307 324.176 78.885 320.743 78.885V80.885ZM333.613 68.717H349.642V66.717H333.613V68.717ZM415.421 91V92H416.938L416.341 90.6061L415.421 91ZM398.573 91L397.63 91.3304L397.864 92H398.573V91ZM397.403 85.15L398.398 85.0505L398.188 82.9507L396.696 84.4429L397.403 85.15ZM362.069 87.958L361.419 88.7173L361.428 88.7249L362.069 87.958ZM357.272 67.717L356.331 67.3783L356.325 67.3951L356.32 67.4122L357.272 67.717ZM360.548 62.803L359.901 62.0411L359.891 62.0493L359.882 62.0578L360.548 62.803ZM364.877 59.527L364.356 58.6737L364.345 58.6804L364.334 58.6874L364.877 59.527ZM376.46 56.251L376.616 57.2388L376.641 57.2348L376.666 57.2295L376.46 56.251ZM382.661 55.315L382.778 56.3082L382.786 56.3072L382.794 56.3062L382.661 55.315ZM394.361 52.858L393.972 51.937L393.965 51.9398L393.959 51.9427L394.361 52.858ZM378.098 42.094L378.693 42.8982L378.704 42.89L378.715 42.8815L378.098 42.094ZM374.588 49.231V50.231H375.442L375.576 49.3881L374.588 49.231ZM359.027 49.231L358.03 49.1622L357.956 50.231H359.027V49.231ZM397.286 61.633H398.286V59.8668L396.772 60.7755L397.286 61.633ZM385.586 64.792L385.743 65.7796L385.744 65.7794L385.586 64.792ZM375.992 67.717L375.373 66.9321L375.366 66.9375L375.359 66.943L375.992 67.717ZM375.758 79.768L375.07 80.493L375.088 80.5106L375.108 80.5273L375.758 79.768ZM393.191 78.364L393.853 79.1138L393.854 79.1126L393.191 78.364ZM415.421 90H398.573V92H415.421V90ZM399.517 90.6696C399.006 89.2083 398.628 87.342 398.398 85.0505L396.408 85.2495C396.647 87.638 397.049 89.6717 397.63 91.3304L399.517 90.6696ZM396.696 84.4429C391.835 89.304 385.587 91.755 377.864 91.755V93.755C386.054 93.755 392.832 91.136 398.11 85.8571L396.696 84.4429ZM377.864 91.755C371.31 91.755 366.299 90.1934 362.711 87.1911L361.428 88.7249C365.483 92.1186 371.003 93.755 377.864 93.755V91.755ZM362.72 87.1987C359.15 84.1389 357.336 79.9479 357.336 74.503H355.336C355.336 80.4461 357.344 85.2251 361.419 88.7173L362.72 87.1987ZM357.336 74.503C357.336 72.0071 357.639 69.8517 358.225 68.0218L356.32 67.4122C355.658 69.4823 355.336 71.8509 355.336 74.503H357.336ZM358.213 68.0557C358.861 66.255 359.862 64.7588 361.215 63.5482L359.882 62.0578C358.271 63.4992 357.087 65.279 356.331 67.3783L358.213 68.0557ZM361.196 63.5649C362.732 62.2593 364.14 61.1953 365.421 60.3666L364.334 58.6874C362.963 59.5747 361.485 60.6947 359.901 62.0411L361.196 63.5649ZM365.399 60.3803C366.675 59.6002 368.471 58.9293 370.831 58.3964L370.39 56.4456C367.914 57.0047 365.887 57.7378 364.356 58.6737L365.399 60.3803ZM370.831 58.3964C373.239 57.8526 375.165 57.4679 376.616 57.2388L376.304 55.2632C374.792 55.5021 372.818 55.8974 370.39 56.4456L370.831 58.3964ZM376.666 57.2295C378.105 56.9267 380.137 56.6188 382.778 56.3082L382.545 54.3218C379.881 54.6352 377.78 54.9513 376.254 55.2724L376.666 57.2295ZM382.794 56.3062C388.627 55.5284 392.665 54.6968 394.764 53.7733L393.959 51.9427C392.158 52.7352 388.395 53.5416 382.529 54.3238L382.794 56.3062ZM394.751 53.779C395.921 53.284 396.855 52.5487 397.487 51.5508C398.117 50.5571 398.403 49.3759 398.403 48.061H396.403C396.403 49.0861 396.182 49.8744 395.798 50.4797C395.417 51.0808 394.83 51.574 393.972 51.937L394.751 53.779ZM398.403 48.061C398.403 45.1219 397.397 42.7747 395.279 41.2032C393.217 39.6731 390.244 38.988 386.522 38.988V40.988C390.055 40.988 392.522 41.6484 394.087 42.8093C395.596 43.9288 396.403 45.6181 396.403 48.061H398.403ZM386.522 38.988C382.615 38.988 379.536 39.6988 377.482 41.3065L378.715 42.8815C380.248 41.6812 382.786 40.988 386.522 40.988V38.988ZM377.504 41.2898C375.407 42.8394 374.166 45.5231 373.601 49.0739L375.576 49.3881C376.103 46.0749 377.201 44.0006 378.693 42.8982L377.504 41.2898ZM374.588 48.231H359.027V50.231H374.588V48.231ZM360.025 49.2998C360.477 42.7499 362.931 37.958 367.309 34.7709C371.729 31.5531 378.243 29.873 386.99 29.873V27.873C378.032 27.873 371.033 29.5859 366.132 33.1541C361.188 36.753 358.514 42.1401 358.03 49.1622L360.025 49.2998ZM386.99 29.873C395.67 29.873 401.997 31.4983 406.136 34.5883C410.219 37.6373 412.315 42.2227 412.315 48.529H414.315C414.315 41.7313 412.024 36.4887 407.332 32.9857C402.696 29.5237 395.861 27.873 386.99 27.873V29.873ZM412.315 48.529V74.62H414.315V48.529H412.315ZM412.315 74.62C412.315 82.2796 413.012 87.9172 414.502 91.3939L416.341 90.6061C415.023 87.5308 414.315 82.2484 414.315 74.62H412.315ZM396.772 60.7755C395.009 61.8333 391.293 62.8662 385.428 63.8046L385.744 65.7794C391.58 64.8458 395.664 63.7727 397.801 62.4905L396.772 60.7755ZM385.43 63.8044C382.947 64.1985 380.87 64.646 379.211 65.1517C377.57 65.6519 376.259 66.2321 375.373 66.9321L376.612 68.5019C377.207 68.0319 378.237 67.5396 379.794 67.0648C381.333 66.5955 383.312 66.1655 385.743 65.7796L385.43 63.8044ZM375.359 66.943C373.365 68.5747 372.418 70.9142 372.418 73.801H374.418C374.418 71.3838 375.188 69.6673 376.626 68.491L375.359 66.943ZM372.418 73.801C372.418 76.5233 373.279 78.7916 375.07 80.493L376.447 79.043C375.118 77.7804 374.418 76.0707 374.418 73.801H372.418ZM375.108 80.5273C376.98 82.1324 379.501 82.874 382.544 82.874V80.874C379.816 80.874 377.812 80.2116 376.409 79.0087L375.108 80.5273ZM382.544 82.874C387.169 82.874 390.975 81.6533 393.853 79.1138L392.53 77.6142C390.104 79.7547 386.812 80.874 382.544 80.874V82.874ZM393.854 79.1126C396.833 76.4745 398.286 72.8682 398.286 68.419H396.286C396.286 72.3937 395.01 75.4174 392.528 77.6154L393.854 79.1126ZM398.286 68.419V61.633H396.286V68.419H398.286ZM482.956 91V92H483.956V91H482.956ZM466.459 91H465.459V92H466.459V91ZM466.459 65.611H467.459V64.611H466.459V65.611ZM443.176 65.611V64.611H442.176V65.611H443.176ZM443.176 91V92H444.176V91H443.176ZM426.679 91H425.679V92H426.679V91ZM426.679 30.628V29.628H425.679V30.628H426.679ZM443.176 30.628H444.176V29.628H443.176V30.628ZM443.176 52.507H442.176V53.507H443.176V52.507ZM466.459 52.507V53.507H467.459V52.507H466.459ZM466.459 30.628V29.628H465.459V30.628H466.459ZM482.956 30.628H483.956V29.628H482.956V30.628ZM482.956 90H466.459V92H482.956V90ZM467.459 91V65.611H465.459V91H467.459ZM466.459 64.611H443.176V66.611H466.459V64.611ZM442.176 65.611V91H444.176V65.611H442.176ZM443.176 90H426.679V92H443.176V90ZM427.679 91V30.628H425.679V91H427.679ZM426.679 31.628H443.176V29.628H426.679V31.628ZM442.176 30.628V52.507H444.176V30.628H442.176ZM443.176 53.507H466.459V51.507H443.176V53.507ZM467.459 52.507V30.628H465.459V52.507H467.459ZM466.459 31.628H482.956V29.628H466.459V31.628ZM481.956 30.628V91H483.956V30.628H481.956ZM561.202 108.784V109.784H562.202V108.784H561.202ZM545.641 108.784H544.641V109.784H545.641V108.784ZM545.641 91H546.641V90H545.641V91ZM505.861 91V90H504.861V91H505.861ZM505.861 108.784V109.784H506.861V108.784H505.861ZM490.3 108.784H489.3V109.784H490.3V108.784ZM490.3 78.247V77.247H489.3V78.247H490.3ZM497.554 78.247V79.247H498.161L498.441 78.7089L497.554 78.247ZM502.819 61.867L503.797 62.0794L502.819 61.867ZM505.159 30.628V29.628H504.159V30.628H505.159ZM553.363 30.628H554.363V29.628H553.363V30.628ZM553.363 78.247H552.363V79.247H553.363V78.247ZM561.202 78.247H562.202V77.247H561.202V78.247ZM536.866 78.247V79.247H537.866V78.247H536.866ZM536.866 42.913H537.866V41.913H536.866V42.913ZM520.603 42.913V41.913H519.603V42.913H520.603ZM518.38 63.037L517.405 62.8164L517.403 62.8251L518.38 63.037ZM513.817 78.247L512.904 77.8391L512.275 79.247H513.817V78.247ZM561.202 107.784H545.641V109.784H561.202V107.784ZM546.641 108.784V91H544.641V108.784H546.641ZM545.641 90H505.861V92H545.641V90ZM504.861 91V108.784H506.861V91H504.861ZM505.861 107.784H490.3V109.784H505.861V107.784ZM491.3 108.784V78.247H489.3V108.784H491.3ZM490.3 79.247H497.554V77.247H490.3V79.247ZM498.441 78.7089C500.452 74.8489 502.229 69.2884 503.797 62.0794L501.842 61.6546C500.289 68.7976 498.557 74.1571 496.668 77.7851L498.441 78.7089ZM503.797 62.0794C505.37 54.841 506.159 47.8666 506.159 41.158H504.159C504.159 47.7094 503.389 54.541 501.842 61.6546L503.797 62.0794ZM506.159 41.158V30.628H504.159V41.158H506.159ZM505.159 31.628H553.363V29.628H505.159V31.628ZM552.363 30.628V78.247H554.363V30.628H552.363ZM553.363 79.247H561.202V77.247H553.363V79.247ZM560.202 78.247V108.784H562.202V78.247H560.202ZM537.866 78.247V42.913H535.866V78.247H537.866ZM536.866 41.913H520.603V43.913H536.866V41.913ZM519.603 42.913V44.434H521.603V42.913H519.603ZM519.603 44.434C519.603 50.1998 518.873 56.3263 517.405 62.8164L519.356 63.2576C520.852 56.6437 521.603 50.3682 521.603 44.434H519.603ZM517.403 62.8251C516.006 69.2691 514.502 74.2633 512.904 77.8391L514.73 78.6549C516.409 74.8987 517.947 69.7529 519.358 63.2489L517.403 62.8251ZM513.817 79.247H536.866V77.247H513.817V79.247ZM584.945 30.628H585.945V29.628H584.945V30.628ZM584.945 38.116H583.945V41.2235L585.758 38.6992L584.945 38.116ZM623.204 37.765L623.97 37.1218L623.204 37.765ZM623.321 83.98L622.555 83.3378L622.554 83.3388L623.321 83.98ZM585.764 83.512L586.578 82.9308L584.764 80.3915V83.512H585.764ZM585.764 112.411V113.411H586.764V112.411H585.764ZM569.267 112.411H568.267V113.411H569.267V112.411ZM569.267 30.628V29.628H568.267V30.628H569.267ZM588.923 47.242L588.137 46.6242L588.132 46.63L588.128 46.636L588.923 47.242ZM589.04 74.62L588.254 75.2378L589.04 74.62ZM610.1 74.62L609.314 74.0022L609.309 74.008L609.305 74.014L610.1 74.62ZM610.1 47.359L610.894 46.7502L610.1 47.359ZM583.945 30.628V38.116H585.945V30.628H583.945ZM585.758 38.6992C589.92 32.9013 595.844 29.99 603.665 29.99V27.99C595.262 27.99 588.706 31.1627 584.133 37.5328L585.758 38.6992ZM603.665 29.99C611.503 29.99 617.728 32.7999 622.439 38.4082L623.97 37.1218C618.853 31.0301 612.052 27.99 603.665 27.99V29.99ZM622.439 38.4082C627.163 44.033 629.575 51.5838 629.575 61.165H631.575C631.575 51.2462 629.073 43.197 623.97 37.1218L622.439 38.4082ZM629.575 61.165C629.575 70.4294 627.205 77.7877 622.555 83.3378L624.088 84.6222C629.11 78.6283 631.575 70.7766 631.575 61.165H629.575ZM622.554 83.3388C617.999 88.7898 611.97 91.521 604.367 91.521V93.521C612.521 93.521 619.128 90.5582 624.089 84.6212L622.554 83.3388ZM604.367 91.521C596.541 91.521 590.66 88.645 586.578 82.9308L584.951 84.0932C589.449 90.391 595.97 93.521 604.367 93.521V91.521ZM584.764 83.512V112.411H586.764V83.512H584.764ZM585.764 111.411H569.267V113.411H585.764V111.411ZM570.267 112.411V30.628H568.267V112.411H570.267ZM569.267 31.628H584.945V29.628H569.267V31.628ZM599.57 41.328C594.77 41.328 590.918 43.084 588.137 46.6242L589.71 47.8598C592.076 44.8479 595.323 43.328 599.57 43.328V41.328ZM588.128 46.636C585.453 50.146 584.179 54.9515 584.179 60.931H586.179C586.179 55.2104 587.401 50.89 589.719 47.848L588.128 46.636ZM584.179 60.931C584.179 66.9163 585.495 71.7267 588.254 75.2378L589.827 74.0022C587.437 70.9613 586.179 66.6457 586.179 60.931H584.179ZM588.254 75.2378C591.035 78.778 594.887 80.534 599.687 80.534V78.534C595.44 78.534 592.193 77.014 589.827 74.0022L588.254 75.2378ZM599.687 80.534C604.417 80.534 608.194 78.7723 610.896 75.226L609.305 74.014C607.015 77.0197 603.85 78.534 599.687 78.534V80.534ZM610.887 75.2378C613.642 71.7309 614.961 67.0017 614.961 61.165H612.961C612.961 66.7163 611.706 70.9571 609.314 74.0022L610.887 75.2378ZM614.961 61.165C614.961 55.1778 613.645 50.3349 610.894 46.7502L609.307 47.9678C611.704 51.0911 612.961 55.4521 612.961 61.165H614.961ZM610.894 46.7502C608.119 43.1351 604.308 41.328 599.57 41.328V43.328C603.724 43.328 606.933 44.8749 609.307 47.9678L610.894 46.7502Z" fill="#0C3934"/>
<path d="M446.442 173.648H468.204C477.018 173.648 484.155 175.91 489.615 180.434C495.075 184.88 497.805 191.471 497.805 200.207C497.805 209.099 495.036 215.807 489.498 220.331C484.038 224.777 476.628 227 467.268 227H428.307V143.696H490.083V158.789H446.442V173.648ZM480.021 199.973C480.021 192.017 475.263 188.039 465.747 188.039H446.442V212.024H465.864C475.302 212.024 480.021 208.007 480.021 199.973ZM563.571 166.628L541.341 226.766C540.249 229.808 539.43 231.914 538.884 233.084C538.416 234.332 537.636 236.048 536.544 238.232C535.53 240.416 534.555 241.937 533.619 242.795C532.761 243.653 531.552 244.628 529.992 245.72C528.51 246.812 526.794 247.553 524.844 247.943C522.972 248.333 520.788 248.528 518.292 248.528C516.264 248.528 512.559 248.489 507.177 248.411V234.722H515.25C517.98 234.722 520.047 234.02 521.451 232.616C522.933 231.212 523.674 229.223 523.674 226.649C523.674 226.025 523.518 225.245 523.206 224.309L501.327 166.628H519.228L533.034 207.695L546.372 166.628H563.571ZM623.472 227H606.975V179.381H591.063L590.361 200.675C590.283 203.015 590.205 204.887 590.127 206.291C590.049 207.617 589.815 209.411 589.425 211.673C589.113 213.935 588.723 215.768 588.255 217.172C587.787 218.498 587.046 220.019 586.032 221.735C585.096 223.373 583.965 224.66 582.639 225.596C581.391 226.454 579.753 227.195 577.725 227.819C575.697 228.521 573.435 228.872 570.939 228.872C566.883 228.872 563.88 228.482 561.93 227.702V214.481C563.88 214.871 565.44 215.066 566.61 215.066C571.368 215.066 573.864 210.893 574.098 202.547L575.034 166.628H623.472V227ZM692.827 227H675.979C675.433 225.44 675.043 223.49 674.809 221.15C669.739 226.22 663.226 228.755 655.27 228.755C648.562 228.755 643.297 227.156 639.475 223.958C635.653 220.682 633.742 216.197 633.742 210.503C633.742 207.929 634.054 205.667 634.678 203.717C635.38 201.767 636.472 200.129 637.954 198.803C639.514 197.477 640.957 196.385 642.283 195.527C643.687 194.669 645.598 193.967 648.016 193.421C650.434 192.875 652.384 192.485 653.866 192.251C655.348 191.939 657.415 191.627 660.067 191.315C665.917 190.535 669.817 189.716 671.767 188.858C673.795 188 674.809 186.401 674.809 184.061C674.809 178.679 671.182 175.988 663.928 175.988C660.106 175.988 657.298 176.69 655.504 178.094C653.71 179.42 652.54 181.799 651.994 185.231H636.433C637.369 171.659 646.69 164.873 664.396 164.873C681.946 164.873 690.721 171.425 690.721 184.529V210.62C690.721 218.264 691.423 223.724 692.827 227ZM674.692 197.633C672.742 198.803 668.842 199.856 662.992 200.792C658.078 201.572 654.88 202.547 653.398 203.717C651.682 205.121 650.824 207.149 650.824 209.801C650.824 212.297 651.604 214.286 653.164 215.768C654.802 217.172 657.064 217.874 659.95 217.874C664.396 217.874 667.945 216.704 670.597 214.364C673.327 211.946 674.692 208.631 674.692 204.419V197.633ZM758.021 166.628L738.131 194.825L760.478 227H741.524L728.771 207.461L716.135 227H697.298L719.294 195.176L699.287 166.628H718.241L729.005 182.774L739.652 166.628H758.021Z" fill="#0C3934"/>
<path d="M448.442 175.648H447.442V176.648H448.442V175.648ZM491.615 182.434L490.977 183.204L490.984 183.209L491.615 182.434ZM491.498 222.331L492.129 223.106L492.131 223.105L491.498 222.331ZM430.307 229H429.307V230H430.307V229ZM430.307 145.696V144.696H429.307V145.696H430.307ZM492.083 145.696H493.083V144.696H492.083V145.696ZM492.083 160.789V161.789H493.083V160.789H492.083ZM448.442 160.789V159.789H447.442V160.789H448.442ZM448.442 190.039V189.039H447.442V190.039H448.442ZM448.442 214.024H447.442V215.024H448.442V214.024ZM448.442 176.648H470.204V174.648H448.442V176.648ZM470.204 176.648C478.843 176.648 485.737 178.862 490.977 183.204L492.253 181.664C486.573 176.958 479.193 174.648 470.204 174.648V176.648ZM490.984 183.209C496.155 187.421 498.805 193.692 498.805 202.207H500.805C500.805 193.25 497.995 186.339 492.246 181.659L490.984 183.209ZM498.805 202.207C498.805 210.879 496.115 217.268 490.865 221.557L492.131 223.105C497.957 218.346 500.805 211.319 500.805 202.207H498.805ZM490.867 221.556C485.636 225.815 478.474 228 469.268 228V230C478.782 230 486.44 227.739 492.129 223.106L490.867 221.556ZM469.268 228H430.307V230H469.268V228ZM431.307 229V145.696H429.307V229H431.307ZM430.307 146.696H492.083V144.696H430.307V146.696ZM491.083 145.696V160.789H493.083V145.696H491.083ZM492.083 159.789H448.442V161.789H492.083V159.789ZM447.442 160.789V175.648H449.442V160.789H447.442ZM483.021 201.973C483.021 197.789 481.761 194.486 479.094 192.255C476.461 190.054 472.62 189.039 467.747 189.039V191.039C472.39 191.039 475.686 192.013 477.811 193.79C479.902 195.537 481.021 198.201 481.021 201.973H483.021ZM467.747 189.039H448.442V191.039H467.747V189.039ZM447.442 190.039V214.024H449.442V190.039H447.442ZM448.442 215.024H467.864V213.024H448.442V215.024ZM467.864 215.024C472.701 215.024 476.516 213.998 479.13 211.773C481.775 209.521 483.021 206.19 483.021 201.973H481.021C481.021 205.79 479.908 208.484 477.834 210.25C475.729 212.042 472.465 213.024 467.864 213.024V215.024ZM565.571 168.628L566.509 168.975L567.007 167.628H565.571V168.628ZM543.341 228.766L542.403 228.419L542.4 228.428L543.341 228.766ZM540.884 235.084L539.978 234.661L539.961 234.696L539.948 234.733L540.884 235.084ZM538.544 240.232L537.649 239.785L537.643 239.798L537.637 239.811L538.544 240.232ZM535.619 244.795L534.943 244.058L534.927 244.073L534.912 244.088L535.619 244.795ZM531.992 247.72L531.418 246.901L531.408 246.908L531.399 246.915L531.992 247.72ZM526.844 249.943L526.648 248.962L526.64 248.964L526.844 249.943ZM509.177 250.411H508.177V251.397L509.162 251.411L509.177 250.411ZM509.177 236.722V235.722H508.177V236.722H509.177ZM523.451 234.616L522.763 233.89L522.753 233.899L522.744 233.909L523.451 234.616ZM525.206 226.309L526.155 225.993L526.148 225.973L526.141 225.954L525.206 226.309ZM503.327 168.628V167.628H501.878L502.392 168.983L503.327 168.628ZM521.228 168.628L522.176 168.309L521.947 167.628H521.228V168.628ZM535.034 209.695L534.086 210.014L535.05 212.882L535.985 210.004L535.034 209.695ZM548.372 168.628V167.628H547.645L547.421 168.319L548.372 168.628ZM564.633 168.281L542.403 228.419L544.279 229.113L566.509 168.975L564.633 168.281ZM542.4 228.428C541.307 231.471 540.502 233.538 539.978 234.661L541.79 235.507C542.358 234.29 543.191 232.145 544.282 229.104L542.4 228.428ZM539.948 234.733C539.498 235.932 538.736 237.611 537.649 239.785L539.438 240.679C540.535 238.485 541.334 236.732 541.82 235.435L539.948 234.733ZM537.637 239.811C536.638 241.963 535.73 243.337 534.943 244.058L536.295 245.532C537.38 244.537 538.422 242.869 539.451 240.653L537.637 239.811ZM534.912 244.088C534.111 244.888 532.954 245.826 531.418 246.901L532.565 248.539C534.149 247.43 535.41 246.418 536.326 245.502L534.912 244.088ZM531.399 246.915C530.044 247.913 528.466 248.599 526.648 248.962L527.04 250.924C529.122 250.507 530.976 249.711 532.585 248.525L531.399 246.915ZM526.64 248.964C524.852 249.337 522.739 249.528 520.292 249.528V251.528C522.837 251.528 525.092 251.329 527.048 250.922L526.64 248.964ZM520.292 249.528C518.272 249.528 514.574 249.489 509.191 249.411L509.162 251.411C514.544 251.489 518.256 251.528 520.292 251.528V249.528ZM510.177 250.411V236.722H508.177V250.411H510.177ZM509.177 237.722H517.25V235.722H509.177V237.722ZM517.25 237.722C520.144 237.722 522.505 236.976 524.158 235.323L522.744 233.909C521.589 235.064 519.816 235.722 517.25 235.722V237.722ZM524.139 235.342C525.869 233.702 526.674 231.422 526.674 228.649H524.674C524.674 231.025 523.997 232.722 522.763 233.89L524.139 235.342ZM526.674 228.649C526.674 227.874 526.483 226.979 526.155 225.993L524.257 226.625C524.553 227.511 524.674 228.176 524.674 228.649H526.674ZM526.141 225.954L504.262 168.273L502.392 168.983L524.271 226.664L526.141 225.954ZM503.327 169.628H521.228V167.628H503.327V169.628ZM520.28 168.947L534.086 210.014L535.982 209.376L522.176 168.309L520.28 168.947ZM535.985 210.004L549.323 168.937L547.421 168.319L534.083 209.386L535.985 210.004ZM548.372 169.628H565.571V167.628H548.372V169.628ZM625.472 229V230H626.472V229H625.472ZM608.975 229H607.975V230H608.975V229ZM608.975 181.381H609.975V180.381H608.975V181.381ZM593.063 181.381V180.381H592.096L592.064 181.348L593.063 181.381ZM592.361 202.675L593.361 202.708L593.361 202.708L592.361 202.675ZM592.127 208.291L593.125 208.35L593.126 208.346L592.127 208.291ZM591.425 213.673L590.44 213.503L590.437 213.52L590.435 213.536L591.425 213.673ZM590.255 219.172L591.198 219.505L591.201 219.497L591.204 219.488L590.255 219.172ZM588.032 223.735L587.171 223.226L587.168 223.233L587.164 223.239L588.032 223.735ZM584.639 227.596L585.206 228.42L585.216 228.413L584.639 227.596ZM579.725 229.819L579.431 228.863L579.414 228.868L579.398 228.874L579.725 229.819ZM563.93 229.702H562.93V230.379L563.559 230.63L563.93 229.702ZM563.93 216.481L564.126 215.5L562.93 215.261V216.481H563.93ZM576.098 204.547L577.098 204.575L577.098 204.573L576.098 204.547ZM577.034 168.628V167.628H576.06L576.034 168.602L577.034 168.628ZM625.472 168.628H626.472V167.628H625.472V168.628ZM625.472 228H608.975V230H625.472V228ZM609.975 229V181.381H607.975V229H609.975ZM608.975 180.381H593.063V182.381H608.975V180.381ZM592.064 181.348L591.362 202.642L593.361 202.708L594.063 181.414L592.064 181.348ZM591.362 202.642C591.284 204.978 591.206 206.842 591.129 208.236L593.126 208.346C593.204 206.932 593.282 205.052 593.361 202.708L591.362 202.642ZM591.129 208.232C591.054 209.504 590.827 211.256 590.44 213.503L592.411 213.843C592.803 211.566 593.044 209.73 593.125 208.35L591.129 208.232ZM590.435 213.536C590.127 215.766 589.747 217.533 589.306 218.856L591.204 219.488C591.699 218.003 592.099 216.104 592.416 213.81L590.435 213.536ZM589.312 218.839C588.873 220.085 588.165 221.545 587.171 223.226L588.893 224.244C589.928 222.493 590.702 220.911 591.198 219.505L589.312 218.839ZM587.164 223.239C586.289 224.77 585.251 225.94 584.062 226.779L585.216 228.413C586.679 227.38 587.904 225.976 588.9 224.231L587.164 223.239ZM584.073 226.772C582.934 227.555 581.398 228.258 579.431 228.863L580.019 230.775C582.109 230.132 583.848 229.353 585.206 228.42L584.073 226.772ZM579.398 228.874C577.491 229.534 575.342 229.872 572.939 229.872V231.872C575.529 231.872 577.903 231.508 580.052 230.764L579.398 228.874ZM572.939 229.872C568.914 229.872 566.069 229.48 564.302 228.774L563.559 230.63C565.692 231.484 568.852 231.872 572.939 231.872V229.872ZM564.93 229.702V216.481H562.93V229.702H564.93ZM563.734 217.462C565.711 217.857 567.344 218.066 568.61 218.066V216.066C567.536 216.066 566.05 215.885 564.126 215.5L563.734 217.462ZM568.61 218.066C571.35 218.066 573.485 216.83 574.909 214.45C576.287 212.145 576.979 208.812 577.098 204.575L575.099 204.519C574.983 208.628 574.31 211.554 573.192 213.423C572.12 215.216 570.628 216.066 568.61 216.066V218.066ZM577.098 204.573L578.034 168.654L576.034 168.602L575.098 204.521L577.098 204.573ZM577.034 169.628H625.472V167.628H577.034V169.628ZM624.472 168.628V229H626.472V168.628H624.472ZM694.827 229V230H696.343L695.746 228.606L694.827 229ZM677.979 229L677.035 229.33L677.269 230H677.979V229ZM676.809 223.15L677.804 223.05L677.594 220.951L676.102 222.443L676.809 223.15ZM641.475 225.958L640.824 226.717L640.833 226.725L641.475 225.958ZM636.678 205.717L635.737 205.378L635.731 205.395L635.725 205.412L636.678 205.717ZM639.954 200.803L639.306 200.041L639.296 200.049L639.287 200.058L639.954 200.803ZM644.283 197.527L643.761 196.674L643.75 196.68L643.739 196.687L644.283 197.527ZM655.866 194.251L656.022 195.239L656.047 195.235L656.072 195.23L655.866 194.251ZM662.067 193.315L662.183 194.308L662.191 194.307L662.199 194.306L662.067 193.315ZM673.767 190.858L673.377 189.937L673.37 189.94L673.364 189.943L673.767 190.858ZM657.504 180.094L658.098 180.898L658.109 180.89L658.12 180.882L657.504 180.094ZM653.994 187.231V188.231H654.847L654.981 187.388L653.994 187.231ZM638.433 187.231L637.435 187.162L637.361 188.231H638.433V187.231ZM676.692 199.633H677.692V197.867L676.177 198.776L676.692 199.633ZM664.992 202.792L665.148 203.78L665.15 203.779L664.992 202.792ZM655.398 205.717L654.778 204.932L654.771 204.938L654.764 204.943L655.398 205.717ZM655.164 217.768L654.475 218.493L654.493 218.511L654.513 218.527L655.164 217.768ZM672.597 216.364L673.258 217.114L673.26 217.113L672.597 216.364ZM694.827 228H677.979V230H694.827V228ZM678.922 228.67C678.411 227.208 678.033 225.342 677.804 223.05L675.814 223.25C676.052 225.638 676.454 227.672 677.035 229.33L678.922 228.67ZM676.102 222.443C671.24 227.304 664.992 229.755 657.27 229.755V231.755C665.459 231.755 672.237 229.136 677.516 223.857L676.102 222.443ZM657.27 229.755C650.715 229.755 645.704 228.193 642.116 225.191L640.833 226.725C644.889 230.119 650.408 231.755 657.27 231.755V229.755ZM642.125 225.199C638.556 222.139 636.742 217.948 636.742 212.503H634.742C634.742 218.446 636.75 223.225 640.824 226.717L642.125 225.199ZM636.742 212.503C636.742 210.007 637.044 207.852 637.63 206.022L635.725 205.412C635.063 207.482 634.742 209.851 634.742 212.503H636.742ZM637.619 206.056C638.267 204.255 639.267 202.759 640.62 201.548L639.287 200.058C637.676 201.499 636.493 203.279 635.737 205.378L637.619 206.056ZM640.601 201.565C642.137 200.259 643.545 199.195 644.826 198.367L643.739 196.687C642.368 197.575 640.89 198.695 639.306 200.041L640.601 201.565ZM644.804 198.38C646.081 197.6 647.876 196.929 650.236 196.396L649.795 194.446C647.319 195.005 645.293 195.738 643.761 196.674L644.804 198.38ZM650.236 196.396C652.644 195.853 654.57 195.468 656.022 195.239L655.71 193.263C654.197 193.502 652.223 193.897 649.795 194.446L650.236 196.396ZM656.072 195.23C657.51 194.927 659.543 194.619 662.183 194.308L661.95 192.322C659.287 192.635 657.185 192.951 655.66 193.272L656.072 195.23ZM662.199 194.306C668.033 193.528 672.07 192.697 674.169 191.773L673.364 189.943C671.563 190.735 667.801 191.542 661.934 192.324L662.199 194.306ZM674.156 191.779C675.326 191.284 676.26 190.549 676.893 189.551C677.523 188.557 677.809 187.376 677.809 186.061H675.809C675.809 187.086 675.587 187.874 675.204 188.48C674.822 189.081 674.235 189.574 673.377 189.937L674.156 191.779ZM677.809 186.061C677.809 183.122 676.802 180.775 674.684 179.203C672.622 177.673 669.649 176.988 665.928 176.988V178.988C669.46 178.988 671.928 179.648 673.493 180.809C675.001 181.929 675.809 183.618 675.809 186.061H677.809ZM665.928 176.988C662.02 176.988 658.942 177.699 656.887 179.306L658.12 180.882C659.654 179.681 662.191 178.988 665.928 178.988V176.988ZM656.909 179.29C654.813 180.839 653.571 183.523 653.006 187.074L654.981 187.388C655.508 184.075 656.607 182.001 658.098 180.898L656.909 179.29ZM653.994 186.231H638.433V188.231H653.994V186.231ZM639.43 187.3C639.882 180.75 642.336 175.958 646.714 172.771C651.134 169.553 657.648 167.873 666.396 167.873V165.873C657.437 165.873 650.438 167.586 645.537 171.154C640.593 174.753 637.919 180.14 637.435 187.162L639.43 187.3ZM666.396 167.873C675.075 167.873 681.403 169.498 685.541 172.588C689.625 175.637 691.721 180.223 691.721 186.529H693.721C693.721 179.731 691.429 174.489 686.738 170.986C682.101 167.524 675.266 165.873 666.396 165.873V167.873ZM691.721 186.529V212.62H693.721V186.529H691.721ZM691.721 212.62C691.721 220.28 692.417 225.917 693.908 229.394L695.746 228.606C694.428 225.531 693.721 220.248 693.721 212.62H691.721ZM676.177 198.776C674.414 199.833 670.698 200.866 664.834 201.805L665.15 203.779C670.985 202.846 675.069 201.773 677.206 200.49L676.177 198.776ZM664.835 201.804C662.352 202.198 660.275 202.646 658.616 203.152C656.975 203.652 655.665 204.232 654.778 204.932L656.017 206.502C656.613 206.032 657.642 205.54 659.199 205.065C660.738 204.596 662.717 204.166 665.148 203.78L664.835 201.804ZM654.764 204.943C652.77 206.575 651.824 208.914 651.824 211.801H653.824C653.824 209.384 654.593 207.667 656.031 206.491L654.764 204.943ZM651.824 211.801C651.824 214.523 652.684 216.792 654.475 218.493L655.852 217.043C654.523 215.78 653.824 214.071 653.824 211.801H651.824ZM654.513 218.527C656.386 220.132 658.906 220.874 661.95 220.874V218.874C659.221 218.874 657.218 218.212 655.814 217.009L654.513 218.527ZM661.95 220.874C666.574 220.874 670.38 219.653 673.258 217.114L671.935 215.614C669.509 217.755 666.217 218.874 661.95 218.874V220.874ZM673.26 217.113C676.238 214.475 677.692 210.868 677.692 206.419H675.692C675.692 210.394 674.415 213.417 671.934 215.615L673.26 217.113ZM677.692 206.419V199.633H675.692V206.419H677.692ZM760.021 168.628L760.838 169.204L761.95 167.628H760.021V168.628ZM740.131 196.825L739.314 196.249L738.911 196.821L739.31 197.395L740.131 196.825ZM762.478 229V230H764.39L763.3 228.43L762.478 229ZM743.524 229L742.687 229.547L742.983 230H743.524V229ZM730.771 209.461L731.609 208.914L730.767 207.625L729.932 208.918L730.771 209.461ZM718.135 229V230H718.679L718.975 229.543L718.135 229ZM699.298 229L698.476 228.431L697.391 230H699.298V229ZM721.294 197.176L722.117 197.745L722.513 197.172L722.113 196.602L721.294 197.176ZM701.287 168.628V167.628H699.365L700.468 169.202L701.287 168.628ZM720.241 168.628L721.073 168.073L720.776 167.628H720.241V168.628ZM731.005 184.774L730.173 185.329L731.01 186.584L731.84 185.325L731.005 184.774ZM741.652 168.628V167.628H741.114L740.817 168.077L741.652 168.628ZM759.204 168.052L739.314 196.249L740.948 197.401L760.838 169.204L759.204 168.052ZM739.31 197.395L761.657 229.57L763.3 228.43L740.953 196.255L739.31 197.395ZM762.478 228H743.524V230H762.478V228ZM744.362 228.453L731.609 208.914L729.934 210.008L742.687 229.547L744.362 228.453ZM729.932 208.918L717.296 228.457L718.975 229.543L731.611 210.004L729.932 208.918ZM718.135 228H699.298V230H718.135V228ZM700.121 229.569L722.117 197.745L720.472 196.607L698.476 228.431L700.121 229.569ZM722.113 196.602L702.106 168.054L700.468 169.202L720.475 197.75L722.113 196.602ZM701.287 169.628H720.241V167.628H701.287V169.628ZM719.409 169.183L730.173 185.329L731.837 184.219L721.073 168.073L719.409 169.183ZM731.84 185.325L742.487 169.179L740.817 168.077L730.17 184.223L731.84 185.325ZM741.652 169.628H760.021V167.628H741.652V169.628Z" fill="#0C3934"/>
</svg>
