<svg width="433" height="128" viewBox="0 0 433 128" fill="none" xmlns="http://www.w3.org/2000/svg">
<path d="M26.38 2.22L42.64 45H32.8L29.44 35.46H13.54L10.06 45H0.46L16.72 2.22H26.38ZM27.16 28.62L21.52 12.72L15.82 28.62H27.16ZM74.1142 45H65.6542V20.58H57.4942L57.1342 31.5C57.0942 32.7 57.0542 33.66 57.0142 34.38C56.9742 35.06 56.8542 35.98 56.6542 37.14C56.4942 38.3 56.2942 39.24 56.0542 39.96C55.8142 40.64 55.4342 41.42 54.9142 42.3C54.4342 43.14 53.8542 43.8 53.1742 44.28C52.5342 44.72 51.6942 45.1 50.6542 45.42C49.6142 45.78 48.4542 45.96 47.1742 45.96C45.0942 45.96 43.5542 45.76 42.5542 45.36V38.58C43.5542 38.78 44.3542 38.88 44.9542 38.88C47.3942 38.88 48.6742 36.74 48.7942 32.46L49.2742 14.04H74.1142V45ZM109.981 35.4C109.021 38.72 107.241 41.3 104.641 43.14C102.081 44.98 99.0206 45.9 95.4606 45.9C90.7006 45.9 86.8606 44.42 83.9406 41.46C81.0606 38.5 79.6206 34.58 79.6206 29.7C79.6206 24.9 81.0806 20.94 84.0006 17.82C86.9206 14.7 90.6406 13.14 95.1606 13.14C99.8406 13.14 103.561 14.74 106.321 17.94C109.081 21.1 110.461 25.4 110.461 30.84V31.68H88.2606C88.3006 34.36 88.9406 36.4 90.1806 37.8C91.4606 39.2 93.2406 39.9 95.5206 39.9C98.5206 39.9 100.621 38.4 101.821 35.4H109.981ZM101.821 26.28C101.621 24.24 100.961 22.58 99.8406 21.3C98.7206 19.98 97.1606 19.32 95.1606 19.32C93.2806 19.32 91.7206 19.94 90.4806 21.18C89.2406 22.42 88.5006 24.12 88.2606 26.28H101.821ZM146.954 45H136.634L127.694 31.68L123.914 35.52V45H115.574V14.04H123.914V26.28L135.254 14.04H145.274L133.274 26.04L146.954 45ZM178.252 33.06C177.732 37.06 176.152 40.18 173.512 42.42C170.912 44.66 167.552 45.78 163.432 45.78C158.672 45.78 154.852 44.32 151.972 41.4C149.092 38.48 147.652 34.6 147.652 29.76C147.652 24.76 149.092 20.74 151.972 17.7C154.892 14.66 158.752 13.14 163.552 13.14C167.672 13.14 171.032 14.2 173.632 16.32C176.232 18.4 177.712 21.24 178.072 24.84H169.732C169.092 21.28 167.052 19.5 163.612 19.5C161.292 19.5 159.472 20.4 158.152 22.2C156.872 23.96 156.232 26.42 156.232 29.58C156.232 32.66 156.852 35.06 158.092 36.78C159.372 38.46 161.152 39.3 163.432 39.3C167.152 39.3 169.352 37.22 170.032 33.06H178.252ZM211.985 45H203.345C203.065 44.2 202.865 43.2 202.745 42C200.145 44.6 196.805 45.9 192.725 45.9C189.285 45.9 186.585 45.08 184.625 43.44C182.665 41.76 181.685 39.46 181.685 36.54C181.685 35.22 181.845 34.06 182.165 33.06C182.525 32.06 183.085 31.22 183.845 30.54C184.645 29.86 185.385 29.3 186.065 28.86C186.785 28.42 187.765 28.06 189.005 27.78C190.245 27.5 191.245 27.3 192.005 27.18C192.765 27.02 193.825 26.86 195.185 26.7C198.185 26.3 200.185 25.88 201.185 25.44C202.225 25 202.745 24.18 202.745 22.98C202.745 20.22 200.885 18.84 197.165 18.84C195.205 18.84 193.765 19.2 192.845 19.92C191.925 20.6 191.325 21.82 191.045 23.58H183.065C183.545 16.62 188.325 13.14 197.405 13.14C206.405 13.14 210.905 16.5 210.905 23.22V36.6C210.905 40.52 211.265 43.32 211.985 45ZM202.685 29.94C201.685 30.54 199.685 31.08 196.685 31.56C194.165 31.96 192.525 32.46 191.765 33.06C190.885 33.78 190.445 34.82 190.445 36.18C190.445 37.46 190.845 38.48 191.645 39.24C192.485 39.96 193.645 40.32 195.125 40.32C197.405 40.32 199.225 39.72 200.585 38.52C201.985 37.28 202.685 35.58 202.685 33.42V29.94ZM246.618 45H238.158V31.98H226.218V45H217.758V14.04H226.218V25.26H238.158V14.04H246.618V45ZM286.745 54.12H278.765V45H258.365V54.12H250.385V38.46H254.105C255.105 36.54 256.005 33.74 256.805 30.06C257.605 26.38 258.005 22.84 258.005 19.44V14.04H282.725V38.46H286.745V54.12ZM274.265 38.46V20.34H265.925V21.12C265.925 24.12 265.545 27.3 264.785 30.66C264.065 33.98 263.285 36.58 262.445 38.46H274.265ZM298.921 14.04V17.88C301.161 14.76 304.361 13.2 308.521 13.2C312.681 13.2 316.021 14.7 318.541 17.7C321.061 20.7 322.321 24.7 322.321 29.7C322.321 34.54 321.081 38.44 318.601 41.4C316.161 44.32 312.921 45.78 308.881 45.78C304.721 45.78 301.541 44.24 299.341 41.16V55.98H290.881V14.04H298.921ZM306.421 20.04C304.101 20.04 302.281 20.88 300.961 22.56C299.681 24.24 299.041 26.58 299.041 29.58C299.041 32.58 299.701 34.92 301.021 36.6C302.341 38.28 304.161 39.12 306.481 39.12C308.761 39.12 310.541 38.28 311.821 36.6C313.141 34.92 313.801 32.62 313.801 29.7C313.801 26.7 313.141 24.34 311.821 22.62C310.501 20.9 308.701 20.04 306.421 20.04Z" fill="#0C3934"/>
<path d="M27.38 3.22L28.3148 2.86471L28.0697 2.22H27.38V3.22ZM43.64 46V47H45.0899L44.5748 45.6447L43.64 46ZM33.8 46L32.8568 46.3322L33.092 47H33.8V46ZM30.44 36.46L31.3832 36.1278L31.148 35.46H30.44V36.46ZM14.54 36.46V35.46H13.8403L13.6006 36.1173L14.54 36.46ZM11.06 46V47H11.7597L11.9994 46.3427L11.06 46ZM1.46 46L0.525243 45.6447L0.0101196 47H1.46V46ZM17.72 3.22V2.22H17.0303L16.7852 2.86471L17.72 3.22ZM28.16 29.62V30.62H29.5758L29.1025 29.2857L28.16 29.62ZM22.52 13.72L23.4625 13.3857L22.525 10.7428L21.5787 13.3825L22.52 13.72ZM16.82 29.62L15.8787 29.2825L15.3992 30.62H16.82V29.62ZM26.4452 3.57528L42.7052 46.3553L44.5748 45.6447L28.3148 2.86471L26.4452 3.57528ZM43.64 45H33.8V47H43.64V45ZM34.7432 45.6678L31.3832 36.1278L29.4968 36.7922L32.8568 46.3322L34.7432 45.6678ZM30.44 35.46H14.54V37.46H30.44V35.46ZM13.6006 36.1173L10.1206 45.6573L11.9994 46.3427L15.4794 36.8027L13.6006 36.1173ZM11.06 45H1.46V47H11.06V45ZM2.39476 46.3553L18.6548 3.57528L16.7852 2.86471L0.525243 45.6447L2.39476 46.3553ZM17.72 4.22H27.38V2.22H17.72V4.22ZM29.1025 29.2857L23.4625 13.3857L21.5775 14.0543L27.2175 29.9543L29.1025 29.2857ZM21.5787 13.3825L15.8787 29.2825L17.7613 29.9575L23.4613 14.0575L21.5787 13.3825ZM16.82 30.62H28.16V28.62H16.82V30.62ZM75.1142 46V47H76.1142V46H75.1142ZM66.6542 46H65.6542V47H66.6542V46ZM66.6542 21.58H67.6542V20.58H66.6542V21.58ZM58.4942 21.58V20.58H57.5266L57.4948 21.5471L58.4942 21.58ZM58.1342 32.5L59.1337 32.5333L59.1337 32.5329L58.1342 32.5ZM58.0142 35.38L59.0125 35.4387L59.0127 35.4355L58.0142 35.38ZM57.6542 38.14L56.6688 37.9701L56.6659 37.9867L56.6636 38.0034L57.6542 38.14ZM57.0542 40.96L57.9972 41.2928L58.0001 41.2845L58.0029 41.2762L57.0542 40.96ZM55.9142 43.3L55.0533 42.7913L55.0496 42.7975L55.046 42.8039L55.9142 43.3ZM54.1742 45.28L54.7408 46.1041L54.7509 46.097L54.1742 45.28ZM51.6542 46.42L51.3601 45.4642L51.3435 45.4693L51.3271 45.475L51.6542 46.42ZM43.5542 46.36H42.5542V47.037L43.1828 47.2885L43.5542 46.36ZM43.5542 39.58L43.7503 38.5994L42.5542 38.3602V39.58H43.5542ZM49.7942 33.46L50.7938 33.488L50.7939 33.486L49.7942 33.46ZM50.2742 15.04V14.04H49.2999L49.2746 15.0139L50.2742 15.04ZM75.1142 15.04H76.1142V14.04H75.1142V15.04ZM75.1142 45H66.6542V47H75.1142V45ZM67.6542 46V21.58H65.6542V46H67.6542ZM66.6542 20.58H58.4942V22.58H66.6542V20.58ZM57.4948 21.5471L57.1348 32.4671L59.1337 32.5329L59.4937 21.6129L57.4948 21.5471ZM57.1348 32.4667C57.0949 33.6634 57.0552 34.6151 57.0158 35.3245L59.0127 35.4355C59.0533 34.7049 59.0936 33.7366 59.1337 32.5333L57.1348 32.4667ZM57.0159 35.3213C56.9792 35.9467 56.8663 36.8246 56.6688 37.9701L58.6397 38.3099C58.8422 37.1354 58.9693 36.1733 59.0125 35.4387L57.0159 35.3213ZM56.6636 38.0034C56.508 39.1314 56.3186 40.0046 56.1055 40.6438L58.0029 41.2762C58.2699 40.4754 58.4804 39.4686 58.6448 38.2766L56.6636 38.0034ZM56.1112 40.6272C55.8997 41.2266 55.5528 41.946 55.0533 42.7913L56.7751 43.8087C57.3157 42.894 57.7288 42.0534 57.9972 41.2928L56.1112 40.6272ZM55.046 42.8039C54.6268 43.5374 54.1402 44.08 53.5975 44.463L54.7509 46.097C55.5683 45.52 56.2416 44.7426 56.7825 43.7961L55.046 42.8039ZM53.6077 44.456C53.0773 44.8206 52.3389 45.1631 51.3601 45.4642L51.9483 47.3758C53.0496 47.0369 53.9911 46.6194 54.7407 46.104L53.6077 44.456ZM51.3271 45.475C50.4079 45.7932 49.3607 45.96 48.1742 45.96V47.96C49.5478 47.96 50.8205 47.7668 51.9813 47.365L51.3271 45.475ZM48.1742 45.96C46.1254 45.96 44.7427 45.7584 43.9256 45.4315L43.1828 47.2885C44.3657 47.7616 46.0631 47.96 48.1742 47.96V45.96ZM44.5542 46.36V39.58H42.5542V46.36H44.5542ZM43.3581 40.5606C44.3846 40.7659 45.2584 40.88 45.9542 40.88V38.88C45.45 38.88 44.7238 38.7941 43.7503 38.5994L43.3581 40.5606ZM45.9542 40.88C47.5354 40.88 48.7867 40.152 49.6024 38.7883C50.3726 37.5007 50.732 35.692 50.7938 33.488L48.7946 33.432C48.7364 35.508 48.3959 36.9093 47.886 37.7617C47.4217 38.538 46.8131 38.88 45.9542 38.88V40.88ZM50.7939 33.486L51.2739 15.066L49.2746 15.0139L48.7946 33.4339L50.7939 33.486ZM50.2742 16.04H75.1142V14.04H50.2742V16.04ZM74.1142 15.04V46H76.1142V15.04H74.1142ZM110.981 36.4L111.941 36.6778L112.311 35.4H110.981V36.4ZM105.641 44.14L105.063 43.3237L105.057 43.328L105.641 44.14ZM84.9406 42.46L84.2239 43.1574L84.2287 43.1623L84.9406 42.46ZM85.0006 18.82L85.7307 19.5033L85.0006 18.82ZM107.321 18.94L106.563 19.5931L106.567 19.5978L107.321 18.94ZM111.461 32.68V33.68H112.461V32.68H111.461ZM89.2606 32.68V31.68H88.2456L88.2607 32.6949L89.2606 32.68ZM91.1806 38.8L90.432 39.463L90.4373 39.4689L90.4426 39.4748L91.1806 38.8ZM102.821 36.4V35.4H102.144L101.892 36.0286L102.821 36.4ZM102.821 27.28V28.28H103.923L103.816 27.1824L102.821 27.28ZM100.841 22.3L100.078 22.947L100.083 22.9528L100.088 22.9585L100.841 22.3ZM91.4806 22.18L92.1877 22.8871H92.1877L91.4806 22.18ZM89.2606 27.28L88.2667 27.1696L88.1434 28.28H89.2606V27.28ZM110.02 36.1222C109.117 39.2443 107.462 41.6261 105.063 43.3237L106.218 44.9563C109.019 42.9739 110.924 40.1957 111.941 36.6778L110.02 36.1222ZM105.057 43.328C102.689 45.0303 99.8394 45.9 96.4606 45.9V47.9C100.202 47.9 103.473 46.9297 106.224 44.952L105.057 43.328ZM96.4606 45.9C91.926 45.9 88.3569 44.4992 85.6525 41.7577L84.2287 43.1623C87.3643 46.3408 91.4752 47.9 96.4606 47.9V45.9ZM85.6573 41.7626C82.9915 39.0227 81.6206 35.3702 81.6206 30.7H79.6206C79.6206 35.7898 81.1297 39.9773 84.2239 43.1574L85.6573 41.7626ZM81.6206 30.7C81.6206 26.1199 83.006 22.4147 85.7307 19.5033L84.2705 18.1367C81.1553 21.4653 79.6206 25.68 79.6206 30.7H81.6206ZM85.7307 19.5033C88.4498 16.5981 91.8994 15.14 96.1606 15.14V13.14C91.3819 13.14 87.3915 14.8019 84.2705 18.1367L85.7307 19.5033ZM96.1606 15.14C100.585 15.14 104.015 16.6386 106.563 19.5931L108.078 18.2869C105.106 14.8414 101.096 13.14 96.1606 13.14V15.14ZM106.567 19.5978C109.126 22.5271 110.461 26.5685 110.461 31.84H112.461C112.461 26.2315 111.035 21.6729 108.074 18.2822L106.567 19.5978ZM110.461 31.84V32.68H112.461V31.84H110.461ZM111.461 31.68H89.2606V33.68H111.461V31.68ZM88.2607 32.6949C88.3028 35.5121 88.9769 37.8201 90.432 39.463L91.9292 38.137C90.9044 36.9799 90.2985 35.2079 90.2605 32.6651L88.2607 32.6949ZM90.4426 39.4748C91.9499 41.1234 94.0214 41.9 96.5206 41.9V39.9C94.4598 39.9 92.9713 39.2766 91.9187 38.1252L90.4426 39.4748ZM96.5206 41.9C98.1941 41.9 99.6809 41.4787 100.927 40.5887C102.168 39.7026 103.096 38.4044 103.749 36.7714L101.892 36.0286C101.345 37.3956 100.624 38.3474 99.7644 38.9613C98.9104 39.5713 97.8472 39.9 96.5206 39.9V41.9ZM102.821 37.4H110.981V35.4H102.821V37.4ZM103.816 27.1824C103.6 24.9782 102.877 23.1086 101.593 21.6415L100.088 22.9585C101.044 24.0514 101.641 25.5018 101.825 27.3776L103.816 27.1824ZM101.603 21.653C100.263 20.0731 98.4035 19.32 96.1606 19.32V21.32C97.9177 21.32 99.1787 21.8869 100.078 22.947L101.603 21.653ZM96.1606 19.32C94.0366 19.32 92.2155 20.0309 90.7735 21.4729L92.1877 22.8871C93.2258 21.8491 94.5247 21.32 96.1606 21.32V19.32ZM90.7735 21.4729C89.3375 22.9089 88.5257 24.8393 88.2667 27.1696L90.2545 27.3904C90.4756 25.4007 91.1437 23.9311 92.1877 22.8871L90.7735 21.4729ZM89.2606 28.28H102.821V26.28H89.2606V28.28ZM147.954 46V47H149.908L148.765 45.4149L147.954 46ZM137.634 46L136.803 46.5573L137.101 47H137.634V46ZM128.694 32.68L129.524 32.1227L128.841 31.105L127.981 31.9785L128.694 32.68ZM124.914 36.52L124.201 35.8185L123.914 36.1104V36.52H124.914ZM124.914 46V47H125.914V46H124.914ZM116.574 46H115.574V47H116.574V46ZM116.574 15.04V14.04H115.574V15.04H116.574ZM124.914 15.04H125.914V14.04H124.914V15.04ZM124.914 27.28H123.914V29.8308L125.647 27.9596L124.914 27.28ZM136.254 15.04V14.04H135.817L135.52 14.3604L136.254 15.04ZM146.274 15.04L146.981 15.7471L148.688 14.04H146.274V15.04ZM134.274 27.04L133.567 26.3329L132.965 26.9348L133.463 27.6251L134.274 27.04ZM147.954 45H137.634V47H147.954V45ZM138.464 45.4427L129.524 32.1227L127.863 33.2373L136.803 46.5573L138.464 45.4427ZM127.981 31.9785L124.201 35.8185L125.626 37.2215L129.406 33.3815L127.981 31.9785ZM123.914 36.52V46H125.914V36.52H123.914ZM124.914 45H116.574V47H124.914V45ZM117.574 46V15.04H115.574V46H117.574ZM116.574 16.04H124.914V14.04H116.574V16.04ZM123.914 15.04V27.28H125.914V15.04H123.914ZM125.647 27.9596L136.987 15.7196L135.52 14.3604L124.18 26.6004L125.647 27.9596ZM136.254 16.04H146.274V14.04H136.254V16.04ZM145.567 14.3329L133.567 26.3329L134.981 27.7471L146.981 15.7471L145.567 14.3329ZM133.463 27.6251L147.143 46.5851L148.765 45.4149L135.085 26.4549L133.463 27.6251ZM179.252 34.06L180.244 34.1889L180.391 33.06H179.252V34.06ZM174.512 43.42L173.865 42.6575L173.859 42.6624L174.512 43.42ZM152.972 42.4L152.26 43.1022L152.972 42.4ZM152.972 18.7L152.251 18.0073L152.246 18.0123L152.972 18.7ZM174.632 17.32L174 18.0951L174.007 18.1009L174.632 17.32ZM179.072 25.84V26.84H180.177L180.067 25.7405L179.072 25.84ZM170.732 25.84L169.748 26.0169L169.896 26.84H170.732V25.84ZM159.152 23.2L158.346 22.6086L158.343 22.6118L159.152 23.2ZM159.092 37.78L158.281 38.3648L158.289 38.3755L158.297 38.386L159.092 37.78ZM171.032 34.06V33.06H170.182L170.045 33.8987L171.032 34.06ZM178.261 33.9311C177.767 37.7277 176.285 40.6047 173.865 42.6575L175.159 44.1825C178.02 41.7553 179.697 38.3923 180.244 34.1889L178.261 33.9311ZM173.859 42.6624C171.476 44.716 168.363 45.78 164.432 45.78V47.78C168.741 47.78 172.349 46.604 175.165 44.1776L173.859 42.6624ZM164.432 45.78C159.893 45.78 156.346 44.3965 153.684 41.6978L152.26 43.1022C155.359 46.2435 159.451 47.78 164.432 47.78V45.78ZM153.684 41.6978C151.022 38.9982 149.652 35.388 149.652 30.76H147.652C147.652 35.812 149.163 39.9618 152.26 43.1022L153.684 41.6978ZM149.652 30.76C149.652 25.9631 151.027 22.2069 153.698 19.3877L152.246 18.0123C149.157 21.2731 147.652 25.5569 147.652 30.76H149.652ZM153.693 19.3927C156.398 16.577 159.983 15.14 164.552 15.14V13.14C159.521 13.14 155.386 14.743 152.251 18.0073L153.693 19.3927ZM164.552 15.14C168.496 15.14 171.617 16.1514 174 18.095L175.264 16.545C172.448 14.2486 168.848 13.14 164.552 13.14V15.14ZM174.007 18.1009C176.378 19.9974 177.741 22.5815 178.077 25.9395L180.067 25.7405C179.683 21.8984 178.086 18.8026 175.257 16.5391L174.007 18.1009ZM179.072 24.84H170.732V26.84H179.072V24.84ZM171.716 25.6631C171.37 23.7345 170.621 22.1645 169.38 21.0815C168.132 19.9933 166.507 19.5 164.612 19.5V21.5C166.158 21.5 167.272 21.8967 168.065 22.5885C168.864 23.2855 169.455 24.3855 169.748 26.0169L171.716 25.6631ZM164.612 19.5C161.988 19.5 159.863 20.5401 158.346 22.6086L159.959 23.7914C161.082 22.2599 162.596 21.5 164.612 21.5V19.5ZM158.343 22.6118C156.894 24.6044 156.232 27.3003 156.232 30.58H158.232C158.232 27.5397 158.85 25.3156 159.961 23.7882L158.343 22.6118ZM156.232 30.58C156.232 33.7789 156.874 36.4132 158.281 38.3648L159.903 37.1952C158.83 35.7068 158.232 33.5411 158.232 30.58H156.232ZM158.297 38.386C159.783 40.3363 161.869 41.3 164.432 41.3V39.3C162.436 39.3 160.962 38.5837 159.888 37.174L158.297 38.386ZM164.432 41.3C166.486 41.3 168.233 40.7203 169.559 39.4666C170.87 38.2271 171.657 36.4344 172.019 34.2213L170.045 33.8987C169.727 35.8456 169.074 37.1729 168.185 38.0134C167.311 38.8397 166.098 39.3 164.432 39.3V41.3ZM171.032 35.06H179.252V33.06H171.032V35.06ZM212.985 46V47H214.502L213.904 45.6061L212.985 46ZM204.345 46L203.401 46.3303L203.636 47H204.345V46ZM203.745 43L204.74 42.9005L204.53 40.8007L203.038 42.2929L203.745 43ZM185.625 44.44L184.974 45.1993L184.984 45.2069L185.625 44.44ZM183.165 34.06L182.224 33.7213L182.218 33.7381L182.213 33.7552L183.165 34.06ZM184.845 31.54L184.198 30.7781L184.188 30.7863L184.179 30.7948L184.845 31.54ZM187.065 29.86L186.544 29.0067L186.533 29.0134L186.522 29.0204L187.065 29.86ZM193.005 28.18L193.161 29.1678L193.186 29.1638L193.211 29.1585L193.005 28.18ZM196.185 27.7L196.302 28.6931L196.31 28.6922L196.317 28.6912L196.185 27.7ZM202.185 26.44L201.796 25.519L201.789 25.5218L201.783 25.5247L202.185 26.44ZM193.845 20.92L194.44 21.7242L194.451 21.716L194.462 21.7075L193.845 20.92ZM192.045 24.58V25.58H192.899L193.033 24.7371L192.045 24.58ZM184.065 24.58L183.068 24.5112L182.994 25.58H184.065V24.58ZM203.685 30.94H204.685V29.1738L203.171 30.0825L203.685 30.94ZM197.685 32.56L197.842 33.5476L197.843 33.5474L197.685 32.56ZM192.765 34.06L192.146 33.2751L192.139 33.2805L192.132 33.286L192.765 34.06ZM192.645 40.24L191.957 40.965L191.975 40.9826L191.995 40.9993L192.645 40.24ZM201.585 39.52L202.247 40.2698L202.248 40.2686L201.585 39.52ZM212.985 45H204.345V47H212.985V45ZM205.289 45.6697C205.044 44.9683 204.855 44.052 204.74 42.9005L202.75 43.0995C202.875 44.348 203.087 45.4317 203.401 46.3303L205.289 45.6697ZM203.038 42.2929C200.647 44.684 197.572 45.9 193.725 45.9V47.9C198.039 47.9 201.643 46.516 204.452 43.7071L203.038 42.2929ZM193.725 45.9C190.438 45.9 187.993 45.1174 186.267 43.6731L184.984 45.2069C187.177 47.0426 190.132 47.9 193.725 47.9V45.9ZM186.276 43.6807C184.568 42.2169 183.685 40.2109 183.685 37.54H181.685C181.685 40.7091 182.762 43.3031 184.975 45.1993L186.276 43.6807ZM183.685 37.54C183.685 36.2981 183.836 35.2447 184.118 34.3648L182.213 33.7552C181.854 34.8753 181.685 36.1419 181.685 37.54H183.685ZM184.106 34.3987C184.412 33.548 184.881 32.8498 185.512 32.2852L184.179 30.7948C183.29 31.5902 182.638 32.572 182.224 33.7213L184.106 34.3987ZM185.493 32.3019C186.269 31.6423 186.974 31.1103 187.609 30.6996L186.522 29.0204C185.797 29.4897 185.022 30.0777 184.198 30.7781L185.493 32.3019ZM187.587 30.7133C188.179 30.3512 189.044 30.0223 190.226 29.7554L189.785 27.8046C188.487 28.0977 187.391 28.4888 186.544 29.0067L187.587 30.7133ZM190.226 29.7554C191.456 29.4776 192.432 29.2829 193.161 29.1678L192.849 27.1922C192.058 27.3171 191.035 27.5224 189.785 27.8046L190.226 29.7554ZM193.211 29.1585C193.928 29.0077 194.953 28.8518 196.302 28.6931L196.068 26.7068C194.697 26.8682 193.603 27.0323 192.799 27.2014L193.211 29.1585ZM196.317 28.6912C199.301 28.2934 201.439 27.8608 202.588 27.3553L201.783 25.5247C200.931 25.8992 199.069 26.3066 196.053 26.7088L196.317 28.6912ZM202.575 27.361C203.251 27.075 203.814 26.639 204.2 26.0305C204.583 25.4264 204.745 24.7249 204.745 23.98H202.745C202.745 24.4351 202.648 24.7436 202.511 24.9595C202.377 25.171 202.16 25.365 201.796 25.519L202.575 27.361ZM204.745 23.98C204.745 22.3519 204.181 20.9879 202.946 20.0719C201.767 19.1974 200.12 18.84 198.165 18.84V20.84C199.931 20.84 201.073 21.1726 201.754 21.6781C202.38 22.1421 202.745 22.8481 202.745 23.98H204.745ZM198.165 18.84C196.12 18.84 194.409 19.2088 193.229 20.1325L194.462 21.7075C195.121 21.1912 196.291 20.84 198.165 20.84V18.84ZM193.251 20.1158C192.028 21.0194 191.357 22.5441 191.058 24.4229L193.033 24.7371C193.294 23.0959 193.822 22.1806 194.44 21.7242L193.251 20.1158ZM192.045 23.58H184.065V25.58H192.045V23.58ZM185.063 24.6488C185.287 21.4049 186.492 19.0925 188.599 17.5584C190.748 15.9936 193.97 15.14 198.405 15.14V13.14C193.76 13.14 190.052 14.0264 187.422 15.9416C184.749 17.8875 183.324 20.7951 183.068 24.5112L185.063 24.6488ZM198.405 15.14C202.81 15.14 205.931 15.9673 207.932 17.4613C209.878 18.9143 210.905 21.1057 210.905 24.22H212.905C212.905 20.6143 211.683 17.7657 209.129 15.8587C206.629 13.9927 203.001 13.14 198.405 13.14V15.14ZM210.905 24.22V37.6H212.905V24.22H210.905ZM210.905 37.6C210.905 41.5356 211.26 44.5132 212.066 46.3939L213.904 45.6061C213.27 44.1268 212.905 41.5044 212.905 37.6H210.905ZM203.171 30.0825C202.358 30.5703 200.542 31.0902 197.527 31.5726L197.843 33.5474C200.829 33.0698 203.013 32.5097 204.2 31.7975L203.171 30.0825ZM197.529 31.5724C196.243 31.7765 195.154 32.0102 194.274 32.2785C193.412 32.5412 192.671 32.8601 192.146 33.2751L193.385 34.8449C193.619 34.6599 194.079 34.4288 194.857 34.1915C195.617 33.9598 196.608 33.7435 197.842 33.5476L197.529 31.5724ZM192.132 33.286C190.974 34.2337 190.445 35.5852 190.445 37.18H192.445C192.445 36.0548 192.797 35.3263 193.399 34.834L192.132 33.286ZM190.445 37.18C190.445 38.6863 190.926 39.9856 191.957 40.965L193.334 39.515C192.765 38.9744 192.445 38.2337 192.445 37.18H190.445ZM191.995 40.9993C193.069 41.9204 194.488 42.32 196.125 42.32V40.32C194.803 40.32 193.901 39.9996 193.296 39.4807L191.995 40.9993ZM196.125 42.32C198.584 42.32 200.661 41.6693 202.247 40.2698L200.924 38.7702C199.79 39.7707 198.226 40.32 196.125 40.32V42.32ZM202.248 40.2686C203.897 38.8086 204.685 36.8172 204.685 34.42H202.685C202.685 36.3427 202.074 37.7514 200.922 38.7714L202.248 40.2686ZM204.685 34.42V30.94H202.685V34.42H204.685ZM247.618 46V47H248.618V46H247.618ZM239.158 46H238.158V47H239.158V46ZM239.158 32.98H240.158V31.98H239.158V32.98ZM227.218 32.98V31.98H226.218V32.98H227.218ZM227.218 46V47H228.218V46H227.218ZM218.758 46H217.758V47H218.758V46ZM218.758 15.04V14.04H217.758V15.04H218.758ZM227.218 15.04H228.218V14.04H227.218V15.04ZM227.218 26.26H226.218V27.26H227.218V26.26ZM239.158 26.26V27.26H240.158V26.26H239.158ZM239.158 15.04V14.04H238.158V15.04H239.158ZM247.618 15.04H248.618V14.04H247.618V15.04ZM247.618 45H239.158V47H247.618V45ZM240.158 46V32.98H238.158V46H240.158ZM239.158 31.98H227.218V33.98H239.158V31.98ZM226.218 32.98V46H228.218V32.98H226.218ZM227.218 45H218.758V47H227.218V45ZM219.758 46V15.04H217.758V46H219.758ZM218.758 16.04H227.218V14.04H218.758V16.04ZM226.218 15.04V26.26H228.218V15.04H226.218ZM227.218 27.26H239.158V25.26H227.218V27.26ZM240.158 26.26V15.04H238.158V26.26H240.158ZM239.158 16.04H247.618V14.04H239.158V16.04ZM246.618 15.04V46H248.618V15.04H246.618ZM287.745 55.12V56.12H288.745V55.12H287.745ZM279.765 55.12H278.765V56.12H279.765V55.12ZM279.765 46H280.765V45H279.765V46ZM259.365 46V45H258.365V46H259.365ZM259.365 55.12V56.12H260.365V55.12H259.365ZM251.385 55.12H250.385V56.12H251.385V55.12ZM251.385 39.46V38.46H250.385V39.46H251.385ZM255.105 39.46V40.46H255.712L255.992 39.9219L255.105 39.46ZM257.805 31.06L258.782 31.2724L257.805 31.06ZM259.005 15.04V14.04H258.005V15.04H259.005ZM283.725 15.04H284.725V14.04H283.725V15.04ZM283.725 39.46H282.725V40.46H283.725V39.46ZM287.745 39.46H288.745V38.46H287.745V39.46ZM275.265 39.46V40.46H276.265V39.46H275.265ZM275.265 21.34H276.265V20.34H275.265V21.34ZM266.925 21.34V20.34H265.925V21.34H266.925ZM265.785 31.66L264.809 31.4394L264.808 31.4481L265.785 31.66ZM263.445 39.46L262.532 39.0521L261.903 40.46H263.445V39.46ZM287.745 54.12H279.765V56.12H287.745V54.12ZM280.765 55.12V46H278.765V55.12H280.765ZM279.765 45H259.365V47H279.765V45ZM258.365 46V55.12H260.365V46H258.365ZM259.365 54.12H251.385V56.12H259.365V54.12ZM252.385 55.12V39.46H250.385V55.12H252.385ZM251.385 40.46H255.105V38.46H251.385V40.46ZM255.992 39.9219C257.052 37.8859 257.975 34.9854 258.782 31.2724L256.828 30.8476C256.035 34.4946 255.157 37.1941 254.218 38.9981L255.992 39.9219ZM258.782 31.2724C259.596 27.53 260.005 23.9186 260.005 20.44H258.005C258.005 23.7614 257.614 27.23 256.828 30.8476L258.782 31.2724ZM260.005 20.44V15.04H258.005V20.44H260.005ZM259.005 16.04H283.725V14.04H259.005V16.04ZM282.725 15.04V39.46H284.725V15.04H282.725ZM283.725 40.46H287.745V38.46H283.725V40.46ZM286.745 39.46V55.12H288.745V39.46H286.745ZM276.265 39.46V21.34H274.265V39.46H276.265ZM275.265 20.34H266.925V22.34H275.265V20.34ZM265.925 21.34V22.12H267.925V21.34H265.925ZM265.925 22.12C265.925 25.0358 265.555 28.1413 264.809 31.4394L266.76 31.8806C267.534 28.4587 267.925 25.2042 267.925 22.12H265.925ZM264.808 31.4481C264.094 34.7381 263.332 37.2623 262.532 39.0521L264.358 39.8679C265.238 37.8977 266.036 35.2219 266.762 31.8719L264.808 31.4481ZM263.445 40.46H275.265V38.46H263.445V40.46ZM299.921 15.04H300.921V14.04H299.921V15.04ZM299.921 18.88H298.921V21.9875L300.733 19.4632L299.921 18.88ZM319.541 18.7L320.306 18.0568L319.541 18.7ZM319.601 42.4L318.834 41.7578L318.833 41.7588L319.601 42.4ZM300.341 42.16L301.154 41.5788L299.341 39.0395V42.16H300.341ZM300.341 56.98V57.98H301.341V56.98H300.341ZM291.881 56.98H290.881V57.98H291.881V56.98ZM291.881 15.04V14.04H290.881V15.04H291.881ZM301.961 23.56L301.174 22.9422L301.17 22.948L301.165 22.954L301.961 23.56ZM302.021 37.6L301.234 38.2178L302.021 37.6ZM312.821 37.6L312.034 36.9822L312.03 36.988L312.025 36.994L312.821 37.6ZM312.821 23.62L313.614 23.0112L312.821 23.62ZM298.921 15.04V18.88H300.921V15.04H298.921ZM300.733 19.4632C302.768 16.6293 305.651 15.2 309.521 15.2V13.2C305.07 13.2 301.554 14.8907 299.108 18.2968L300.733 19.4632ZM309.521 15.2C313.406 15.2 316.458 16.5849 318.775 19.3432L320.306 18.0568C317.583 14.8151 313.955 13.2 309.521 13.2V15.2ZM318.775 19.3432C321.106 22.118 322.321 25.8688 322.321 30.7H324.321C324.321 25.5312 323.016 21.282 320.306 18.0568L318.775 19.3432ZM322.321 30.7C322.321 35.3664 321.128 39.0197 318.834 41.7578L320.367 43.0422C323.033 39.8603 324.321 35.7136 324.321 30.7H322.321ZM318.833 41.7588C316.596 44.4358 313.645 45.78 309.881 45.78V47.78C314.196 47.78 317.725 46.2042 320.368 43.0412L318.833 41.7588ZM309.881 45.78C306.006 45.78 303.146 44.367 301.154 41.5788L299.527 42.7412C301.935 46.113 305.435 47.78 309.881 47.78V45.78ZM299.341 42.16V56.98H301.341V42.16H299.341ZM300.341 55.98H291.881V57.98H300.341V55.98ZM292.881 56.98V15.04H290.881V56.98H292.881ZM291.881 16.04H299.921V14.04H291.881V16.04ZM307.421 20.04C304.824 20.04 302.702 20.998 301.174 22.9422L302.747 24.1778C303.859 22.762 305.377 22.04 307.421 22.04V20.04ZM301.165 22.954C299.707 24.868 299.041 27.4506 299.041 30.58H301.041C301.041 27.7094 301.654 25.612 302.756 24.166L301.165 22.954ZM299.041 30.58C299.041 33.7153 299.73 36.3027 301.234 38.2178L302.807 36.9822C301.672 35.5373 301.041 33.4447 301.041 30.58H299.041ZM301.234 38.2178C302.762 40.1619 304.884 41.12 307.481 41.12V39.12C305.437 39.12 303.919 38.398 302.807 36.9822L301.234 38.2178ZM307.481 41.12C310.044 41.12 312.13 40.1563 313.616 38.206L312.025 36.994C310.951 38.4037 309.477 39.12 307.481 39.12V41.12ZM313.607 38.2178C315.108 36.3069 315.801 33.7627 315.801 30.7H313.801C313.801 33.4773 313.173 35.5331 312.034 36.9822L313.607 38.2178ZM315.801 30.7C315.801 27.5628 315.111 24.9619 313.614 23.0112L312.027 24.2288C313.17 25.7181 313.801 27.8371 313.801 30.7H315.801ZM313.614 23.0112C312.094 21.0301 309.993 20.04 307.421 20.04V22.04C309.408 22.04 310.908 22.7699 312.027 24.2288L313.614 23.0112Z" fill="#0C3934"/>
<path d="M266.56 86.64H277.72C282.24 86.64 285.9 87.8 288.7 90.12C291.5 92.4 292.9 95.78 292.9 100.26C292.9 104.82 291.48 108.26 288.64 110.58C285.84 112.86 282.04 114 277.24 114H257.26V71.28H288.94V79.02H266.56V86.64ZM283.78 100.14C283.78 96.06 281.34 94.02 276.46 94.02H266.56V106.32H276.52C281.36 106.32 283.78 104.26 283.78 100.14ZM326.626 83.04L315.226 113.88C314.666 115.44 314.246 116.52 313.966 117.12C313.726 117.76 313.326 118.64 312.766 119.76C312.246 120.88 311.746 121.66 311.266 122.1C310.826 122.54 310.206 123.04 309.406 123.6C308.646 124.16 307.766 124.54 306.766 124.74C305.806 124.94 304.686 125.04 303.406 125.04C302.366 125.04 300.466 125.02 297.706 124.98V117.96H301.846C303.246 117.96 304.306 117.6 305.026 116.88C305.786 116.16 306.166 115.14 306.166 113.82C306.166 113.5 306.086 113.1 305.926 112.62L294.706 83.04H303.886L310.966 104.1L317.806 83.04H326.626ZM357.345 114H348.885V89.58H340.725L340.365 100.5C340.325 101.7 340.285 102.66 340.245 103.38C340.205 104.06 340.085 104.98 339.885 106.14C339.725 107.3 339.525 108.24 339.285 108.96C339.045 109.64 338.665 110.42 338.145 111.3C337.665 112.14 337.085 112.8 336.405 113.28C335.765 113.72 334.925 114.1 333.885 114.42C332.845 114.78 331.685 114.96 330.405 114.96C328.325 114.96 326.785 114.76 325.785 114.36V107.58C326.785 107.78 327.585 107.88 328.185 107.88C330.625 107.88 331.905 105.74 332.025 101.46L332.505 83.04H357.345V114ZM392.911 114H384.271C383.991 113.2 383.791 112.2 383.671 111C381.071 113.6 377.731 114.9 373.651 114.9C370.211 114.9 367.511 114.08 365.551 112.44C363.591 110.76 362.611 108.46 362.611 105.54C362.611 104.22 362.771 103.06 363.091 102.06C363.451 101.06 364.011 100.22 364.771 99.54C365.571 98.86 366.311 98.3 366.991 97.86C367.711 97.42 368.691 97.06 369.931 96.78C371.171 96.5 372.171 96.3 372.931 96.18C373.691 96.02 374.751 95.86 376.111 95.7C379.111 95.3 381.111 94.88 382.111 94.44C383.151 94 383.671 93.18 383.671 91.98C383.671 89.22 381.811 87.84 378.091 87.84C376.131 87.84 374.691 88.2 373.771 88.92C372.851 89.6 372.251 90.82 371.971 92.58H363.991C364.471 85.62 369.251 82.14 378.331 82.14C387.331 82.14 391.831 85.5 391.831 92.22V105.6C391.831 109.52 392.191 112.32 392.911 114ZM383.611 98.94C382.611 99.54 380.611 100.08 377.611 100.56C375.091 100.96 373.451 101.46 372.691 102.06C371.811 102.78 371.371 103.82 371.371 105.18C371.371 106.46 371.771 107.48 372.571 108.24C373.411 108.96 374.571 109.32 376.051 109.32C378.331 109.32 380.151 108.72 381.511 107.52C382.911 106.28 383.611 104.58 383.611 102.42V98.94ZM426.344 83.04L416.144 97.5L427.604 114H417.884L411.344 103.98L404.864 114H395.204L406.484 97.68L396.224 83.04H405.944L411.464 91.32L416.924 83.04H426.344Z" fill="#0C3934"/>
<path d="M267.56 87.64H266.56V88.64H267.56V87.64ZM289.7 91.12L289.062 91.89L289.069 91.8954L289.7 91.12ZM289.64 111.58L290.271 112.355L290.273 112.354L289.64 111.58ZM258.26 115H257.26V116H258.26V115ZM258.26 72.28V71.28H257.26V72.28H258.26ZM289.94 72.28H290.94V71.28H289.94V72.28ZM289.94 80.02V81.02H290.94V80.02H289.94ZM267.56 80.02V79.02H266.56V80.02H267.56ZM267.56 95.02V94.02H266.56V95.02H267.56ZM267.56 107.32H266.56V108.32H267.56V107.32ZM267.56 88.64H278.72V86.64H267.56V88.64ZM278.72 88.64C283.065 88.64 286.482 89.752 289.062 91.89L290.338 90.35C287.318 87.848 283.415 86.64 278.72 86.64V88.64ZM289.069 91.8954C291.58 93.9405 292.9 97.0014 292.9 101.26H294.9C294.9 96.5586 293.42 92.8594 290.331 90.3446L289.069 91.8954ZM292.9 101.26C292.9 105.6 291.559 108.721 289.007 110.806L290.273 112.354C293.401 109.799 294.9 106.04 294.9 101.26H292.9ZM289.009 110.805C286.438 112.898 282.886 114 278.24 114V116C283.194 116 287.242 114.822 290.271 112.355L289.009 110.805ZM278.24 114H258.26V116H278.24V114ZM259.26 115V72.28H257.26V115H259.26ZM258.26 73.28H289.94V71.28H258.26V73.28ZM288.94 72.28V80.02H290.94V72.28H288.94ZM289.94 79.02H267.56V81.02H289.94V79.02ZM266.56 80.02V87.64H268.56V80.02H266.56ZM285.78 101.14C285.78 98.8941 285.1 97.044 283.591 95.7828C282.117 94.5503 280.015 94.02 277.46 94.02V96.02C279.785 96.02 281.343 96.5097 282.309 97.3172C283.24 98.096 283.78 99.3059 283.78 101.14H285.78ZM277.46 94.02H267.56V96.02H277.46V94.02ZM266.56 95.02V107.32H268.56V95.02H266.56ZM267.56 108.32H277.52V106.32H267.56V108.32ZM277.52 108.32C280.058 108.32 282.149 107.783 283.613 106.536C285.109 105.263 285.78 103.4 285.78 101.14H283.78C283.78 103 283.241 104.227 282.317 105.014C281.361 105.827 279.822 106.32 277.52 106.32V108.32ZM327.626 84.04L328.564 84.3867L329.062 83.04H327.626V84.04ZM316.226 114.88L315.288 114.533L315.285 114.542L316.226 114.88ZM314.966 118.12L314.06 117.697L314.043 117.732L314.03 117.769L314.966 118.12ZM313.766 120.76L312.872 120.313L312.865 120.326L312.859 120.339L313.766 120.76ZM312.266 123.1L311.59 122.363L311.574 122.378L311.559 122.393L312.266 123.1ZM310.406 124.6L309.833 123.781L309.823 123.788L309.813 123.795L310.406 124.6ZM307.766 125.74L307.57 124.759L307.562 124.761L307.766 125.74ZM298.706 125.98H297.706V126.966L298.692 126.98L298.706 125.98ZM298.706 118.96V117.96H297.706V118.96H298.706ZM306.026 117.88L305.338 117.154L305.329 117.163L305.319 117.173L306.026 117.88ZM306.926 113.62L307.875 113.304L307.868 113.284L307.861 113.265L306.926 113.62ZM295.706 84.04V83.04H294.257L294.771 84.3947L295.706 84.04ZM304.886 84.04L305.834 83.7213L305.605 83.04H304.886V84.04ZM311.966 105.1L311.018 105.419L311.982 108.287L312.917 105.409L311.966 105.1ZM318.806 84.04V83.04H318.079L317.855 83.7311L318.806 84.04ZM326.688 83.6933L315.288 114.533L317.164 115.227L328.564 84.3867L326.688 83.6933ZM315.285 114.542C314.724 116.103 314.318 117.144 314.06 117.697L315.872 118.543C316.174 117.896 316.608 116.777 317.167 115.218L315.285 114.542ZM314.03 117.769C313.808 118.36 313.427 119.203 312.872 120.313L314.661 121.207C315.226 120.077 315.644 119.16 315.902 118.471L314.03 117.769ZM312.859 120.339C312.354 121.427 311.921 122.06 311.59 122.363L312.942 123.837C313.571 123.26 314.138 122.333 314.673 121.181L312.859 120.339ZM311.559 122.393C311.177 122.775 310.609 123.238 309.833 123.781L310.98 125.419C311.804 124.842 312.476 124.305 312.973 123.807L311.559 122.393ZM309.813 123.795C309.18 124.261 308.438 124.586 307.57 124.759L307.962 126.721C309.094 126.494 310.112 126.059 310.999 125.405L309.813 123.795ZM307.562 124.761C306.686 124.944 305.637 125.04 304.406 125.04V127.04C305.735 127.04 306.926 126.936 307.97 126.719L307.562 124.761ZM304.406 125.04C303.374 125.04 301.481 125.02 298.721 124.98L298.692 126.98C301.451 127.02 303.358 127.04 304.406 127.04V125.04ZM299.706 125.98V118.96H297.706V125.98H299.706ZM298.706 119.96H302.846V117.96H298.706V119.96ZM302.846 119.96C304.41 119.96 305.764 119.556 306.733 118.587L305.319 117.173C304.848 117.644 304.082 117.96 302.846 117.96V119.96ZM306.714 118.606C307.722 117.65 308.166 116.338 308.166 114.82H306.166C306.166 115.942 305.85 116.67 305.338 117.154L306.714 118.606ZM308.166 114.82C308.166 114.349 308.051 113.834 307.875 113.304L305.977 113.936C306.121 114.366 306.166 114.651 306.166 114.82H308.166ZM307.861 113.265L296.641 83.6853L294.771 84.3947L305.991 113.975L307.861 113.265ZM295.706 85.04H304.886V83.04H295.706V85.04ZM303.938 84.3587L311.018 105.419L312.914 104.781L305.834 83.7213L303.938 84.3587ZM312.917 105.409L319.757 84.3489L317.855 83.7311L311.015 104.791L312.917 105.409ZM318.806 85.04H327.626V83.04H318.806V85.04ZM358.345 115V116H359.345V115H358.345ZM349.885 115H348.885V116H349.885V115ZM349.885 90.58H350.885V89.58H349.885V90.58ZM341.725 90.58V89.58H340.757L340.725 90.5471L341.725 90.58ZM341.365 101.5L342.364 101.533L342.364 101.533L341.365 101.5ZM341.245 104.38L342.243 104.439L342.243 104.435L341.245 104.38ZM340.885 107.14L339.899 106.97L339.896 106.987L339.894 107.003L340.885 107.14ZM340.285 109.96L341.228 110.293L341.231 110.285L341.233 110.276L340.285 109.96ZM339.145 112.3L338.284 111.791L338.28 111.798L338.276 111.804L339.145 112.3ZM337.405 114.28L337.971 115.104L337.981 115.097L337.405 114.28ZM334.885 115.42L334.591 114.464L334.574 114.469L334.558 114.475L334.885 115.42ZM326.785 115.36H325.785V116.037L326.413 116.288L326.785 115.36ZM326.785 108.58L326.981 107.599L325.785 107.36V108.58H326.785ZM333.025 102.46L334.024 102.488L334.024 102.486L333.025 102.46ZM333.505 84.04V83.04H332.53L332.505 84.0139L333.505 84.04ZM358.345 84.04H359.345V83.04H358.345V84.04ZM358.345 114H349.885V116H358.345V114ZM350.885 115V90.58H348.885V115H350.885ZM349.885 89.58H341.725V91.58H349.885V89.58ZM340.725 90.5471L340.365 101.467L342.364 101.533L342.724 90.6129L340.725 90.5471ZM340.365 101.467C340.325 102.663 340.286 103.615 340.246 104.325L342.243 104.435C342.284 103.705 342.324 102.737 342.364 101.533L340.365 101.467ZM340.246 104.321C340.21 104.947 340.097 105.825 339.899 106.97L341.87 107.31C342.073 106.135 342.2 105.173 342.243 104.439L340.246 104.321ZM339.894 107.003C339.738 108.131 339.549 109.005 339.336 109.644L341.233 110.276C341.5 109.475 341.711 108.469 341.875 107.277L339.894 107.003ZM339.342 109.627C339.13 110.227 338.783 110.946 338.284 111.791L340.006 112.809C340.546 111.894 340.959 111.053 341.228 110.293L339.342 109.627ZM338.276 111.804C337.857 112.537 337.371 113.08 336.828 113.463L337.981 115.097C338.799 114.52 339.472 113.743 340.013 112.796L338.276 111.804ZM336.838 113.456C336.308 113.821 335.569 114.163 334.591 114.464L335.179 116.376C336.28 116.037 337.222 115.619 337.971 115.104L336.838 113.456ZM334.558 114.475C333.638 114.793 332.591 114.96 331.405 114.96V116.96C332.778 116.96 334.051 116.767 335.212 116.365L334.558 114.475ZM331.405 114.96C329.356 114.96 327.973 114.758 327.156 114.432L326.413 116.288C327.596 116.762 329.294 116.96 331.405 116.96V114.96ZM327.785 115.36V108.58H325.785V115.36H327.785ZM326.589 109.561C327.615 109.766 328.489 109.88 329.185 109.88V107.88C328.68 107.88 327.954 107.794 326.981 107.599L326.589 109.561ZM329.185 109.88C330.766 109.88 332.017 109.152 332.833 107.788C333.603 106.501 333.963 104.692 334.024 102.488L332.025 102.432C331.967 104.508 331.626 105.909 331.116 106.762C330.652 107.538 330.044 107.88 329.185 107.88V109.88ZM334.024 102.486L334.504 84.066L332.505 84.0139L332.025 102.434L334.024 102.486ZM333.505 85.04H358.345V83.04H333.505V85.04ZM357.345 84.04V115H359.345V84.04H357.345ZM393.911 115V116H395.428L394.83 114.606L393.911 115ZM385.271 115L384.327 115.33L384.562 116H385.271V115ZM384.671 112L385.666 111.9L385.456 109.801L383.964 111.293L384.671 112ZM366.551 113.44L365.9 114.199L365.909 114.207L366.551 113.44ZM364.091 103.06L363.15 102.721L363.144 102.738L363.139 102.755L364.091 103.06ZM365.771 100.54L365.123 99.7781L365.114 99.7863L365.104 99.7948L365.771 100.54ZM367.991 98.86L367.47 98.0067L367.459 98.0134L367.448 98.0204L367.991 98.86ZM373.931 97.18L374.087 98.1678L374.112 98.1638L374.137 98.1585L373.931 97.18ZM377.111 96.7L377.228 97.6931L377.236 97.6922L377.243 97.6912L377.111 96.7ZM383.111 95.44L382.721 94.519L382.715 94.5218L382.708 94.5247L383.111 95.44ZM374.771 89.92L375.365 90.7242L375.377 90.716L375.387 90.7075L374.771 89.92ZM372.971 93.58V94.58H373.825L373.959 93.7371L372.971 93.58ZM364.991 93.58L363.993 93.5112L363.92 94.58H364.991V93.58ZM384.611 99.94H385.611V98.1738L384.097 99.0825L384.611 99.94ZM378.611 101.56L378.768 102.548L378.769 102.547L378.611 101.56ZM373.691 103.06L373.071 102.275L373.065 102.281L373.058 102.286L373.691 103.06ZM373.571 109.24L372.882 109.965L372.901 109.983L372.92 109.999L373.571 109.24ZM382.511 108.52L383.173 109.27L383.174 109.269L382.511 108.52ZM393.911 114H385.271V116H393.911V114ZM386.215 114.67C385.969 113.968 385.781 113.052 385.666 111.9L383.676 112.1C383.801 113.348 384.013 114.432 384.327 115.33L386.215 114.67ZM383.964 111.293C381.573 113.684 378.498 114.9 374.651 114.9V116.9C378.964 116.9 382.569 115.516 385.378 112.707L383.964 111.293ZM374.651 114.9C371.364 114.9 368.919 114.117 367.193 112.673L365.909 114.207C368.103 116.043 371.058 116.9 374.651 116.9V114.9ZM367.202 112.681C365.494 111.217 364.611 109.211 364.611 106.54H362.611C362.611 109.709 363.688 112.303 365.9 114.199L367.202 112.681ZM364.611 106.54C364.611 105.298 364.762 104.245 365.044 103.365L363.139 102.755C362.78 103.875 362.611 105.142 362.611 106.54H364.611ZM365.032 103.399C365.338 102.548 365.807 101.85 366.438 101.285L365.104 99.7948C364.215 100.59 363.564 101.572 363.15 102.721L365.032 103.399ZM366.419 101.302C367.195 100.642 367.9 100.11 368.534 99.6996L367.448 98.0204C366.723 98.4897 365.947 99.0777 365.123 99.7781L366.419 101.302ZM368.513 99.7133C369.105 99.3512 369.969 99.0223 371.151 98.7554L370.711 96.8046C369.413 97.0977 368.317 97.4888 367.47 98.0067L368.513 99.7133ZM371.151 98.7554C372.382 98.4776 373.358 98.2829 374.087 98.1678L373.775 96.1922C372.984 96.3171 371.96 96.5224 370.711 96.8046L371.151 98.7554ZM374.137 98.1585C374.854 98.0077 375.879 97.8518 377.228 97.6931L376.994 95.7068C375.623 95.8682 374.529 96.0323 373.725 96.2014L374.137 98.1585ZM377.243 97.6912C380.227 97.2934 382.365 96.8608 383.514 96.3553L382.708 94.5247C381.857 94.8992 379.995 95.3066 376.979 95.7088L377.243 97.6912ZM383.501 96.361C384.177 96.075 384.74 95.639 385.126 95.0305C385.509 94.4264 385.671 93.7249 385.671 92.98H383.671C383.671 93.4351 383.573 93.7436 383.437 93.9595C383.302 94.171 383.086 94.365 382.721 94.519L383.501 96.361ZM385.671 92.98C385.671 91.3519 385.107 89.9879 383.872 89.0719C382.693 88.1974 381.046 87.84 379.091 87.84V89.84C380.857 89.84 381.999 90.1726 382.68 90.6781C383.306 91.1421 383.671 91.8481 383.671 92.98H385.671ZM379.091 87.84C377.046 87.84 375.335 88.2088 374.155 89.1325L375.387 90.7075C376.047 90.1912 377.216 89.84 379.091 89.84V87.84ZM374.177 89.1158C372.954 90.0194 372.282 91.5441 371.984 93.4229L373.959 93.7371C374.22 92.0959 374.748 91.1806 375.365 90.7242L374.177 89.1158ZM372.971 92.58H364.991V94.58H372.971V92.58ZM365.989 93.6488C366.212 90.4049 367.417 88.0925 369.525 86.5584C371.674 84.9936 374.896 84.14 379.331 84.14V82.14C374.686 82.14 370.978 83.0264 368.348 84.9416C365.675 86.8875 364.25 89.7951 363.993 93.5112L365.989 93.6488ZM379.331 84.14C383.736 84.14 386.857 84.9673 388.858 86.4613C390.804 87.9143 391.831 90.1057 391.831 93.22H393.831C393.831 89.6143 392.608 86.7657 390.054 84.8587C387.555 82.9927 383.927 82.14 379.331 82.14V84.14ZM391.831 93.22V106.6H393.831V93.22H391.831ZM391.831 106.6C391.831 110.536 392.186 113.513 392.992 115.394L394.83 114.606C394.196 113.127 393.831 110.504 393.831 106.6H391.831ZM384.097 99.0825C383.284 99.5703 381.468 100.09 378.453 100.573L378.769 102.547C381.755 102.07 383.938 101.51 385.126 100.797L384.097 99.0825ZM378.454 100.572C377.168 100.776 376.079 101.01 375.199 101.278C374.338 101.541 373.597 101.86 373.071 102.275L374.311 103.845C374.545 103.66 375.004 103.429 375.783 103.192C376.543 102.96 377.534 102.744 378.768 102.548L378.454 100.572ZM373.058 102.286C371.9 103.234 371.371 104.585 371.371 106.18H373.371C373.371 105.055 373.723 104.326 374.324 103.834L373.058 102.286ZM371.371 106.18C371.371 107.686 371.851 108.986 372.882 109.965L374.26 108.515C373.691 107.974 373.371 107.234 373.371 106.18H371.371ZM372.92 109.999C373.995 110.92 375.414 111.32 377.051 111.32V109.32C375.728 109.32 374.827 109 374.222 108.481L372.92 109.999ZM377.051 111.32C379.51 111.32 381.587 110.669 383.173 109.27L381.849 107.77C380.716 108.771 379.152 109.32 377.051 109.32V111.32ZM383.174 109.269C384.823 107.809 385.611 105.817 385.611 103.42H383.611C383.611 105.343 383 106.751 381.848 107.771L383.174 109.269ZM385.611 103.42V99.94H383.611V103.42H385.611ZM427.344 84.04L428.161 84.6164L429.273 83.04H427.344V84.04ZM417.144 98.5L416.327 97.9236L415.924 98.4956L416.323 99.0705L417.144 98.5ZM428.604 115V116H430.516L429.426 114.43L428.604 115ZM418.884 115L418.047 115.547L418.343 116H418.884V115ZM412.344 104.98L413.182 104.433L412.34 103.145L411.505 104.437L412.344 104.98ZM405.864 115V116H406.408L406.704 115.543L405.864 115ZM396.204 115L395.382 114.431L394.297 116H396.204V115ZM407.484 98.68L408.307 99.2486L408.703 98.676L408.303 98.1061L407.484 98.68ZM397.224 84.04V83.04H395.302L396.405 84.6139L397.224 84.04ZM406.944 84.04L407.776 83.4853L407.479 83.04H406.944V84.04ZM412.464 92.32L411.632 92.8747L412.469 94.1296L413.299 92.8705L412.464 92.32ZM417.924 84.04V83.04H417.386L417.089 83.4895L417.924 84.04ZM426.527 83.4636L416.327 97.9236L417.961 99.0764L428.161 84.6164L426.527 83.4636ZM416.323 99.0705L427.783 115.57L429.426 114.43L417.966 97.9295L416.323 99.0705ZM428.604 114H418.884V116H428.604V114ZM419.722 114.453L413.182 104.433L411.507 105.527L418.047 115.547L419.722 114.453ZM411.505 104.437L405.025 114.457L406.704 115.543L413.184 105.523L411.505 104.437ZM405.864 114H396.204V116H405.864V114ZM397.027 115.569L408.307 99.2486L406.662 98.1114L395.382 114.431L397.027 115.569ZM408.303 98.1061L398.043 83.4661L396.405 84.6139L406.665 99.2539L408.303 98.1061ZM397.224 85.04H406.944V83.04H397.224V85.04ZM406.112 84.5947L411.632 92.8747L413.296 91.7653L407.776 83.4853L406.112 84.5947ZM413.299 92.8705L418.759 84.5905L417.089 83.4895L411.629 91.7695L413.299 92.8705ZM417.924 85.04H427.344V83.04H417.924V85.04Z" fill="#0C3934"/>
</svg>
