<svg xmlns="http://www.w3.org/2000/svg" viewBox="0 0 29 29"><g clip-path="url(#clip0)"><path d="M28.55 2.88a1.88 1.88 0 00-1.5-.67c-.32 0-.67.07-1.03.2L1.47 11.8c-1.3.5-1.48 1.24-1.47 1.64.01.4.23 1.14 1.56 1.56h.02l5.1 1.46 2.75 7.88c.37 1.07 1.22 1.74 2.2 1.74a2.6 2.6 0 001.76-.75l3.15-2.9 4.57 3.68.04.03.01.01c.51.4 1.06.6 1.6.6 1.06 0 1.9-.78 2.15-1.99l4.02-19.86c.17-.8.03-1.51-.38-2zM8.38 16.18l9.82-5.02-6.12 6.5c-.1.1-.17.23-.2.38L10.7 22.8l-2.32-6.63zm3.86 7.89a1.6 1.6 0 01-.13.1l1.1-4.43 1.99 1.6-2.96 2.73zM27.27 4.55l-4.02 19.86c-.04.2-.17.64-.48.64a.99.99 0 01-.56-.25l-5.18-4.16-3.08-2.49 8.85-9.4a.85.85 0 00-1-1.33L7.23 14.85l-5.16-1.48L26.62 4c.2-.08.35-.1.44-.1.05 0 .14.01.18.06.04.05.1.24.03.6z"/></g><defs><clipPath id="clip0"><path fill="#fff" d="M0 0h29v29H0z"/></clipPath></defs></svg>
