<svg fill="none" xmlns="http://www.w3.org/2000/svg" viewBox="0 0 784 252">
  <path d="M51.5 5.58L83.2 89H64l-6.55-18.6h-31L19.65 89H.96l31.7-83.42H51.5zM53 57.06l-11-31-11.11 31H53zM144.57 89h-16.5V41.38h-15.9l-.7 21.3c-.09 2.34-.16 4.2-.24 5.61a51.25 51.25 0 01-.7 5.38c-.32 2.27-.7 4.1-1.17 5.5a26.69 26.69 0 01-2.23 4.56 11.77 11.77 0 01-3.39 3.87 18.1 18.1 0 01-4.91 2.22c-2.03.7-4.3 1.05-6.79 1.05-4.06 0-7.06-.39-9-1.17V76.48c1.94.4 3.5.59 4.67.59 4.76 0 7.25-4.18 7.49-12.52l.93-35.92h48.44V89zm69.94-18.72c-1.87 6.47-5.34 11.5-10.41 15.1-5 3.58-10.96 5.38-17.9 5.38-9.28 0-16.77-2.9-22.47-8.66-5.61-5.77-8.42-13.42-8.42-22.93 0-9.37 2.85-17.09 8.54-23.17 5.7-6.09 12.95-9.13 21.76-9.13 9.13 0 16.38 3.12 21.76 9.36 5.39 6.17 8.08 14.55 8.08 25.16v1.64h-43.3c.09 5.22 1.33 9.2 3.75 11.93 2.5 2.73 5.97 4.1 10.41 4.1 5.85 0 9.95-2.93 12.29-8.78h15.91zM198.6 52.5c-.39-3.98-1.68-7.22-3.86-9.72-2.19-2.57-5.23-3.86-9.13-3.86-3.66 0-6.7 1.21-9.12 3.63-2.42 2.42-3.86 5.73-4.33 9.95h26.44zM286.61 89h-20.12l-17.44-25.97-7.37 7.48V89h-16.26V28.63h16.26V52.5l22.12-23.87h19.53l-23.4 23.4L286.61 89zm61.03-23.28c-1.01 7.8-4.1 13.88-9.24 18.25-5.07 4.37-11.62 6.55-19.66 6.55-9.28 0-16.73-2.85-22.34-8.54-5.62-5.7-8.43-13.26-8.43-22.7 0-9.75 2.81-17.59 8.43-23.52 5.69-5.92 13.22-8.89 22.58-8.89 8.03 0 14.58 2.07 19.65 6.2 5.07 4.06 7.96 9.6 8.66 16.62h-16.26c-1.25-6.94-5.23-10.41-11.94-10.41-4.52 0-8.07 1.75-10.64 5.26-2.5 3.43-3.75 8.23-3.75 14.4 0 6 1.21 10.68 3.63 14.03 2.5 3.28 5.97 4.92 10.41 4.92 7.26 0 11.55-4.06 12.87-12.17h16.03zM413.42 89h-16.85a25.74 25.74 0 01-1.17-5.85c-5.07 5.07-11.58 7.6-19.54 7.6-6.7 0-11.97-1.6-15.8-4.8-3.81-3.27-5.72-7.75-5.72-13.45 0-2.57.3-4.83.93-6.78.7-1.95 1.8-3.6 3.28-4.92 1.56-1.32 3-2.41 4.33-3.27 1.4-.86 3.31-1.56 5.73-2.1a95.5 95.5 0 015.85-1.18c1.48-.31 3.55-.62 6.2-.94 5.85-.78 9.75-1.6 11.7-2.45 2.03-.86 3.04-2.46 3.04-4.8 0-5.38-3.62-8.07-10.88-8.07-3.82 0-6.63.7-8.42 2.1-1.8 1.33-2.97 3.7-3.51 7.14h-15.56c.93-13.57 10.25-20.36 27.96-20.36 17.55 0 26.32 6.55 26.32 19.66v26.09c0 7.64.7 13.1 2.11 16.38zM395.3 59.63c-1.95 1.17-5.85 2.23-11.7 3.16-4.92.78-8.12 1.76-9.6 2.93-1.71 1.4-2.57 3.43-2.57 6.08 0 2.5.78 4.49 2.34 5.97 1.64 1.4 3.9 2.1 6.78 2.1 4.45 0 8-1.17 10.65-3.5 2.73-2.42 4.1-5.74 4.1-9.95v-6.79zM480.96 89h-16.5V63.61h-23.28V89h-16.5V28.63h16.5V50.5h23.28V28.63h16.5V89zm78.24 17.78h-15.56V89h-39.78v17.78H488.3V76.25h7.25c1.95-3.75 3.7-9.2 5.27-16.38a97.46 97.46 0 002.34-20.71V28.63h48.2v47.62h7.84v30.53zm-24.33-30.53V40.9H518.6v1.52c0 5.85-.74 12.05-2.22 18.6-1.4 6.48-2.92 11.55-4.56 15.22h23.05zm48.08-47.62v7.49c4.36-6.09 10.6-9.13 18.71-9.13 8.12 0 14.63 2.93 19.54 8.78 4.92 5.84 7.38 13.64 7.38 23.4 0 9.43-2.42 17.04-7.26 22.81-4.76 5.7-11.08 8.54-18.95 8.54-8.12 0-14.32-3-18.6-9v28.9h-16.5v-81.8h15.68zm14.62 11.7c-4.52 0-8.07 1.64-10.65 4.91-2.5 3.28-3.74 7.84-3.74 13.7 0 5.84 1.29 10.4 3.86 13.68 2.57 3.28 6.12 4.91 10.65 4.91 4.44 0 7.91-1.63 10.41-4.91 2.57-3.28 3.86-7.76 3.86-13.46 0-5.84-1.29-10.45-3.86-13.8-2.57-3.35-6.08-5.03-10.53-5.03z" fill="#0C3934"/>
  <path d="M53.5 7.58l.93-.36-.25-.64h-.69v1zM85.2 91v1h1.45l-.52-1.36-.93.36zM66 91l-.94.33.23.67h.71v-1zm-6.55-18.6l.94-.34-.23-.66h-.71v1zm-31 0v-1h-.7l-.25.65.94.35zM21.65 91v1h.7l.25-.66-.94-.34zM2.96 91L2 90.64 1.5 92h1.45v-1zm31.7-83.42v-1h-.69l-.24.64.93.36zm20.36 51.48v1h1.42l-.48-1.34-.94.34zm-11-31l.95-.34-.94-2.64-.95 2.64.94.33zm-11.11 31l-.94-.34-.48 1.34h1.42v-1zM52.56 7.93l31.7 83.43 1.87-.72-31.7-83.42-1.87.71zM85.2 90H66v2H85.2v-2zm-18.25.67l-6.55-18.6-1.89.66 6.56 18.6 1.88-.66zm-7.5-19.27h-31v2h31v-2zm-31.94.65l-6.78 18.6 1.88.7 6.78-18.61-1.88-.69zM21.67 90H2.95v2h18.72v-2zM3.88 91.36l31.7-83.43-1.86-.7-31.7 83.41 1.86.72zM34.65 8.58H53.5v-2H34.65v2zm21.3 50.14l-11-31-1.88.67 11 31 1.88-.67zm-12.88-31l-11.11 31 1.88.68 11.12-31-1.89-.68zM32.9 60.06H55v-2H32.9v2zM146.57 91v1h1v-1h-1zm-16.5 0h-1v1h1v-1zm0-47.62h1v-1h-1v1zm-15.9 0v-1h-.97l-.04.97 1 .03zm-.7 21.3l1 .03-1-.03zm-.24 5.61l1 .06-1-.06zm-.7 5.38l-.99-.17v.04l.99.13zm-1.17 5.5l.94.33v-.01l-.94-.32zm-2.23 4.56l-.86-.5.86.5zm-3.39 3.87l.57.82-.57-.82zm-4.91 2.22l-.3-.96h-.02l-.01.01.33.95zm-15.8-.12h-1v.68l.63.25.37-.93zm0-13.22l.2-.98-1.2-.24v1.22h1zM97.2 66.55l1 .03-1-.03zm.93-35.92v-1h-.97l-.02.97 1 .03zm48.44 0h1v-1h-1v1zm0 59.37h-16.5v2h16.5v-2zm-15.5 1V43.38h-2V91h2zm-1-48.62h-15.9v2h15.9v-2zm-16.9.97l-.7 21.3 2 .06.7-21.3-2-.06zm-.7 21.3c-.09 2.33-.16 4.2-.24 5.59l2 .1c.08-1.4.15-3.29.23-5.63l-2-.07zm-.24 5.58c-.08 1.27-.3 3.03-.69 5.27l1.97.34a52 52 0 00.72-5.49l-2-.12zm-.7 5.3c-.3 2.24-.68 4-1.12 5.33l1.9.63c.49-1.49.89-3.39 1.2-5.68l-1.98-.27zm-1.12 5.3a25.79 25.79 0 01-2.14 4.4l1.72 1.01a27.74 27.74 0 002.3-4.74l-1.88-.66zm-2.15 4.4a10.77 10.77 0 01-3.1 3.55l1.16 1.63a12.76 12.76 0 003.68-4.18l-1.74-1zm-3.09 3.54a17.13 17.13 0 01-4.64 2.1l.59 1.9a19.07 19.07 0 005.19-2.35l-1.14-1.65zm-4.67 2.1c-1.9.66-4.06 1-6.46 1v2c2.59 0 4.96-.36 7.11-1.1l-.65-1.9zm-6.46 1c-4.03 0-6.87-.39-8.64-1.1l-.74 1.86c2.13.85 5.3 1.24 9.38 1.24v-2zm-8-.17V78.48h-2V91.7h2zm-1.2-12.24c1.97.4 3.6.6 4.87.6v-2c-1.07 0-2.56-.17-4.48-.56l-.4 1.96zm4.87.6a6.98 6.98 0 006.3-3.61c1.38-2.3 2.07-5.64 2.19-9.88l-2-.05c-.12 4.1-.79 7.03-1.9 8.9a4.98 4.98 0 01-4.59 2.65v2zm8.49-13.49l.93-35.92-2-.05-.93 35.92 2 .05zm-.07-34.94h48.44v-2H98.13v2zm47.44-1V91h2V30.63h-2zm70.94 41.65l.96.28.37-1.28h-1.33v1zm-10.41 15.1l-.58-.82.58.81zm-40.37-3.28l-.71.7.71-.7zm.12-46.1l.73.68-.73-.68zm43.53.23l-.76.66.75-.66zm8.07 26.8v1h1v-1h-1zm-43.3 0v-1h-1v1.01l1-.01zm3.75 11.93l-.75.66.01.01.74-.67zm22.7-4.68v-1h-.68l-.25.63.93.37zm0-17.78v1h1.1l-.1-1.1-1 .1zm-3.86-9.72l-.76.65v.01l.76-.66zm-18.25-.23l.7.7-.7-.7zm-4.33 9.95l-1-.11-.12 1.1h1.12v-1zm41.4 17.5c-1.82 6.28-5.17 11.11-10.04 14.56l1.16 1.63c5.27-3.73 8.86-8.96 10.8-15.63l-1.93-.56zm-10.04 14.56c-4.8 3.45-10.56 5.2-17.32 5.2v2c7.12 0 13.3-1.85 18.48-5.58l-1.16-1.62zm-17.32 5.2c-9.06 0-16.27-2.81-21.75-8.37l-1.43 1.4c5.91 6 13.67 8.96 23.18 8.96v-2zm-21.75-8.36c-5.4-5.55-8.14-12.93-8.14-22.24h-2c0 9.73 2.88 17.64 8.7 23.63l1.44-1.39zm-8.14-22.24c0-9.14 2.77-16.6 8.27-22.48l-1.46-1.36c-5.89 6.29-8.81 14.27-8.81 23.84h2zm8.27-22.48c5.5-5.87 12.48-8.8 21.03-8.8v-2c-9.07 0-16.6 3.14-22.49 9.44l1.46 1.36zm21.03-8.8c8.87 0 15.84 3.01 21 9l1.52-1.3c-5.6-6.49-13.13-9.7-22.52-9.7v2zm21.01 9.01c5.18 5.93 7.83 14.06 7.83 24.5h2c0-10.78-2.74-19.42-8.32-25.81l-1.5 1.31zm7.83 24.5v1.64h2v-1.64h-2zm1 .64h-43.3v2h43.3v-2zm-44.3 1.01c.09 5.36 1.37 9.61 4 12.58l1.5-1.32c-2.2-2.49-3.42-6.2-3.5-11.29l-2 .03zm4.01 12.6c2.73 2.97 6.49 4.42 11.16 4.42v-2c-4.23 0-7.41-1.3-9.68-3.77l-1.48 1.34zm11.16 4.42c3.1 0 5.8-.78 8.03-2.39 2.24-1.6 3.96-3.96 5.18-7.02l-1.86-.74c-1.11 2.8-2.62 4.81-4.48 6.14a11.5 11.5 0 01-6.88 2v2zm12.28-8.78h15.91v-2H200.6v2zm1-18.88c-.41-4.14-1.76-7.59-4.1-10.27l-1.51 1.31c2.02 2.31 3.24 5.34 3.61 9.15l2-.2zm-4.1-10.26c-2.4-2.84-5.74-4.22-9.89-4.22v2c3.66 0 6.4 1.2 8.37 3.51l1.52-1.3zm-9.89-4.22c-3.9 0-7.21 1.3-9.83 3.92l1.41 1.42c2.22-2.22 5-3.34 8.42-3.34v-2zm-9.83 3.92c-2.61 2.62-4.13 6.16-4.62 10.55l2 .22c.44-4.05 1.81-7.13 4.03-9.35l-1.41-1.42zm-3.62 11.66h26.44v-2h-26.44v2zM288.6 91v1h1.95l-1.14-1.59-.81.59zm-20.12 0l-.84.56.3.44h.54v-1zm-17.44-25.97l.83-.56-.68-1.02-.86.87.71.7zm-7.37 7.48l-.71-.7-.29.3v.4h1zm0 18.49v1h1v-1h-1zm-16.26 0h-1v1h1v-1zm0-60.37v-1h-1v1h1zm16.26 0h1v-1h-1v1zm0 23.87h-1v2.55l1.73-1.87-.73-.68zm22.12-23.87v-1h-.44l-.3.32.74.68zm19.53 0l.71.7 1.7-1.7h-2.4v1zm-23.4 23.4l-.7-.7-.6.6.5.68.8-.58zM288.61 90h-20.12v2h20.12v-2zm-19.3.44l-17.43-25.97-1.66 1.11 17.43 25.98 1.67-1.12zm-18.97-26.12l-7.37 7.5 1.42 1.4 7.38-7.5-1.43-1.4zm-7.66 8.2V91h2V72.51h-2zm1 17.48h-16.26v2h16.26v-2zm-15.26 1V30.63h-2V91h2zm-1-59.37h16.26v-2h-16.26v2zm15.26-1V54.5h2V30.63h-2zm1.73 24.55l22.12-23.87-1.47-1.36-22.11 23.87 1.47 1.36zm21.39-23.55h19.53v-2H265.8v2zm18.83-1.7l-23.4 23.4 1.41 1.4 23.4-23.4-1.41-1.4zm-23.5 24.68L287.8 91.6l1.62-1.18-26.68-36.97-1.62 1.17zm88.51 13.1l1 .14.14-1.13h-1.14v1zm-9.24 18.26l-.65-.76.65.76zm-42-1.99l-.72.7.72-.7zm0-46.22l-.72-.69h-.01l.73.7zm42.23-2.69l-.63.78.63-.78zm8.66 16.62v1h1.1l-.1-1.1-1 .1zm-16.26 0l-.99.17.15.83h.84v-1zm-22.58-5.15l-.81-.6v.01l.8.59zm-.12 28.43l-.81.59.01.02.8-.6zm23.28-7.25v-1h-.85l-.13.84.98.16zm15.04-.13c-.99 7.6-3.97 13.44-8.9 17.62l1.3 1.52c5.36-4.55 8.54-10.88 9.58-18.88l-1.98-.26zm-8.9 17.62c-4.86 4.18-11.16 6.31-19 6.31v2c8.22 0 15.01-2.24 20.3-6.8l-1.3-1.5zm-19 6.31c-9.07 0-16.25-2.77-21.64-8.24l-1.43 1.4c5.84 5.92 13.56 8.84 23.06 8.84v-2zm-21.64-8.24c-5.4-5.48-8.14-12.77-8.14-22h-2c0 9.65 2.88 17.49 8.71 23.4l1.43-1.4zm-8.14-22c0-9.54 2.74-17.12 8.15-22.83l-1.45-1.37c-5.82 6.15-8.7 14.25-8.7 24.2h2zm8.15-22.82c5.48-5.7 12.73-8.59 21.86-8.59v-2c-9.6 0-17.4 3.05-23.3 9.2l1.44 1.39zm21.86-8.59c7.85 0 14.17 2.02 19.02 5.98l1.26-1.55c-5.28-4.31-12.07-6.43-20.28-6.43v2zM340 35.85c4.84 3.88 7.6 9.16 8.29 15.94l1.99-.2c-.73-7.26-3.73-13.06-9.03-17.3L340 35.85zm9.28 14.84h-16.26v2h16.26v-2zm-15.28.82c-.65-3.62-2.03-6.46-4.24-8.39-2.22-1.93-5.15-2.84-8.68-2.84v2c3.18 0 5.6.81 7.36 2.35 1.77 1.54 3 3.91 3.6 7.23l1.96-.35zM321.1 40.28c-4.82 0-8.68 1.89-11.45 5.67l1.61 1.18c2.38-3.24 5.62-4.86 9.84-4.86v-2zm-11.45 5.67c-2.67 3.67-3.94 8.7-3.94 14.98h2c0-6.04 1.23-10.6 3.56-13.8l-1.62-1.18zm-3.94 14.98c0 6.13 1.23 11.04 3.82 14.63l1.62-1.17c-2.25-3.13-3.44-7.57-3.44-13.46h-2zm3.83 14.65c2.7 3.54 6.48 5.3 11.21 5.3v-2c-4.16 0-7.32-1.5-9.62-4.52l-1.59 1.22zm11.21 5.3c3.82 0 6.98-1.07 9.35-3.31 2.35-2.23 3.83-5.5 4.51-9.7l-1.97-.31c-.64 3.92-1.98 6.73-3.92 8.56-1.91 1.81-4.53 2.77-7.97 2.77v2zm12.87-12.16h16.03v-2h-16.03v2zM415.42 91v1h1.52l-.6-1.4-.92.4zm-16.85 0l-.94.33.23.67h.71v-1zm-1.17-5.85l1-.1-.21-2.1-1.5 1.5.71.7zm-35.33 2.8l-.65.77.65-.76zm-4.8-20.23l-.94-.34v.02l-.01.01.95.3zm3.28-4.92l-.65-.76-.02.02.67.74zm4.33-3.27l-.52-.86-.01.01h-.02l.55.85zm11.58-3.28l.16.99h.02l.03-.01-.21-.98zm6.2-.94l.12 1h.01l-.13-1zm11.7-2.45l-.39-.92h-.01l.4.92zM378.1 42.09l.6.8h.01l-.61-.8zm-3.51 7.14v1h.85l.14-.84-1-.16zm-15.56 0l-1-.07-.07 1.07h1.07v-1zm38.26 12.4h1v-1.76l-1.52.9.52.86zm-11.7 3.16l.15.99-.15-.99zm-9.6 2.93l-.62-.79-.01.01.63.78zm-.23 12.05l-.69.72.02.02.02.02.65-.76zm17.43-1.4l.66.74-.66-.75zM415.42 90h-16.85v2h16.85v-2zm-15.9.67a24.83 24.83 0 01-1.12-5.62l-2 .2a26.7 26.7 0 001.23 6.08l1.89-.66zm-2.82-6.23c-4.87 4.86-11.11 7.31-18.84 7.31v2c8.2 0 14.97-2.61 20.25-7.9l-1.41-1.4zm-18.84 7.31c-6.55 0-11.56-1.56-15.15-4.56l-1.28 1.53c4.05 3.4 9.57 5.03 16.43 5.03v-2zm-15.14-4.55c-3.57-3.06-5.38-7.25-5.38-12.7h-2c0 5.95 2 10.73 6.08 14.22l1.3-1.52zm-5.38-12.7c0-2.5.3-4.65.89-6.48l-1.91-.6a23.3 23.3 0 00-.98 7.08h2zm.87-6.44c.65-1.8 1.65-3.3 3-4.51l-1.33-1.5a12.87 12.87 0 00-3.55 5.33l1.88.68zm2.99-4.5a41.2 41.2 0 014.22-3.2l-1.09-1.67c-1.37.88-2.84 2-4.43 3.35l1.3 1.52zm4.2-3.18a18.3 18.3 0 015.43-1.98l-.44-1.95c-2.48.55-4.5 1.29-6.03 2.22l1.04 1.71zm5.43-1.98c2.4-.55 4.34-.93 5.79-1.16l-.32-1.98c-1.5.24-3.48.64-5.91 1.19l.44 1.95zm5.84-1.17c1.44-.3 3.47-.61 6.1-.92l-.22-1.99c-2.67.32-4.77.63-6.3.95l.42 1.96zm6.12-.92c5.84-.78 9.88-1.61 11.97-2.54l-.8-1.83c-1.8.8-5.56 1.6-11.43 2.38l.26 1.99zm11.96-2.53a5.82 5.82 0 002.74-2.23c.63-1 .91-2.17.91-3.49h-2c0 1.03-.22 1.81-.6 2.42-.38.6-.97 1.1-1.83 1.46l.78 1.84zm3.65-5.72c0-2.94-1-5.29-3.12-6.86-2.06-1.53-5.04-2.21-8.76-2.21v2c3.54 0 6 .66 7.57 1.82 1.5 1.12 2.31 2.8 2.31 5.25h2zM386.52 39c-3.9 0-6.98.7-9.04 2.32l1.23 1.57c1.54-1.2 4.08-1.9 7.81-1.9v-2zm-9.02 2.3c-2.1 1.55-3.33 4.23-3.9 7.78l1.98.32c.52-3.32 1.62-5.39 3.11-6.5l-1.19-1.6zm-2.91 6.94h-15.56v2h15.56v-2zm-14.56 1.07c.45-6.55 2.9-11.34 7.28-14.53 4.42-3.22 10.93-4.9 19.68-4.9v-2c-8.96 0-15.96 1.72-20.86 5.28-4.94 3.6-7.62 8.99-8.1 16.01l2 .14zm26.96-19.43c8.68 0 15 1.63 19.15 4.72 4.08 3.05 6.18 7.63 6.18 13.94h2c0-6.8-2.3-12.04-6.99-15.54-4.63-3.47-11.47-5.12-20.34-5.12v2zm25.32 18.66v26.09h2v-26.1h-2zm0 26.09c0 7.66.7 13.3 2.2 16.77l1.83-.78c-1.32-3.08-2.02-8.36-2.02-15.99h-2zm-15.54-13.84c-1.76 1.05-5.48 2.09-11.34 3.02l.31 1.98c5.84-.93 9.92-2 12.06-3.29l-1.03-1.71zm-11.34 3.02c-2.48.4-4.56.85-6.22 1.35-1.64.5-2.95 1.08-3.84 1.78l1.24 1.57c.6-.47 1.63-.96 3.18-1.44a45.3 45.3 0 015.95-1.28l-.31-1.98zm-10.07 3.14c-2 1.63-2.94 3.97-2.94 6.86h2c0-2.42.77-4.13 2.2-5.3l-1.26-1.56zm-2.94 6.86c0 2.72.86 5 2.65 6.7l1.38-1.46c-1.33-1.26-2.03-2.97-2.03-5.24h-2zm2.69 6.73c1.87 1.6 4.4 2.34 7.43 2.34v-2c-2.72 0-4.73-.66-6.13-1.86l-1.3 1.52zm7.43 2.34c4.63 0 8.44-1.22 11.31-3.76l-1.32-1.5c-2.43 2.14-5.72 3.26-9.99 3.26v2zm11.31-3.76c2.98-2.64 4.44-6.24 4.44-10.7h-2c0 3.98-1.28 7-3.76 9.2l1.32 1.5zm4.44-10.7v-6.78h-2v6.79h2zM482.96 91v1h1v-1h-1zm-16.5 0h-1v1h1v-1zm0-25.39h1v-1h-1v1zm-23.28 0v-1h-1v1h1zm0 25.39v1h1v-1h-1zm-16.5 0h-1v1h1v-1zm0-60.37v-1h-1v1h1zm16.5 0h1v-1h-1v1zm0 21.88h-1v1h1v-1zm23.28 0v1h1v-1h-1zm0-21.88v-1h-1v1h1zm16.5 0h1v-1h-1v1zm0 59.37h-16.5v2h16.5v-2zm-15.5 1V65.61h-2V91h2zm-1-26.39h-23.28v2h23.28v-2zm-24.28 1V91h2V65.61h-2zm1 24.39h-16.5v2h16.5v-2zm-15.5 1V30.63h-2V91h2zm-1-59.37h16.5v-2h-16.5v2zm15.5-1V52.5h2V30.63h-2zm1 22.88h23.28v-2h-23.28v2zm24.28-1V30.63h-2V52.5h2zm-1-20.88h16.5v-2h-16.5v2zm15.5-1V91h2V30.63h-2zm79.24 78.15v1h1v-1h-1zm-15.56 0h-1v1h1v-1zm0-17.78h1v-1h-1v1zm-39.78 0v-1h-1v1h1zm0 17.78v1h1v-1h-1zm-15.56 0h-1v1h1v-1zm0-30.53v-1h-1v1h1zm7.25 0v1h.61l.28-.54-.89-.46zm5.27-16.38l.98.2-.98-.2zm2.34-31.24v-1h-1v1h1zm48.2 0h1v-1h-1v1zm0 47.62h-1v1h1v-1zm7.84 0h1v-1h-1v1zm-24.33 0v1h1v-1h-1zm0-35.34h1v-1h-1v1zm-16.27 0v-1h-1v1h1zm-2.22 20.13l-.98-.22.98.22zm-4.56 15.2l-.92-.4-.63 1.4h1.55v-1zm47.38 29.54h-15.56v2h15.56v-2zm-14.56 1V91h-2v17.78h2zm-1-18.78h-39.78v2h39.78v-2zm-40.78 1v17.78h2V91h-2zm1 16.78H490.3v2h15.56v-2zm-14.56 1V78.25h-2v30.53h2zm-1-29.53h7.25v-2h-7.25v2zm8.14-.54c2.01-3.86 3.79-9.42 5.36-16.63l-1.96-.43c-1.55 7.15-3.28 12.5-5.17 16.14l1.77.92zm5.36-16.63a98.49 98.49 0 002.36-20.92h-2c0 6.55-.77 13.38-2.32 20.5l1.96.42zm2.36-20.92V30.63h-2v10.53h2zm-1-9.53h48.2v-2h-48.2v2zm47.2-1v47.62h2V30.63h-2zm1 48.62h7.84v-2h-7.84v2zm6.84-1v30.53h2V78.25h-2zm-22.33 0V42.9h-2v35.34h2zm-1-36.34H520.6v2h16.27v-2zm-17.27 1v1.52h2v-1.52h-2zm0 1.52c0 5.77-.73 11.9-2.2 18.39l1.96.44a85.44 85.44 0 002.24-18.83h-2zm-2.2 18.4c-1.4 6.44-2.9 11.43-4.5 15l1.83.82c1.68-3.75 3.22-8.9 4.63-15.4l-1.96-.42zm-3.58 16.42h23.05v-2h-23.05v2zm71.13-48.62h1v-1h-1v1zm0 7.49h-1v3.1l1.8-2.52-.8-.58zm38.25-.35l.77-.65-.77.65zm.12 46.21l-.77-.64.77.64zm-37.56-.47l.82-.58-1.82-2.54v3.12h1zm0 28.9v1h1v-1h-1zm-16.5 0h-1v1h1v-1zm0-81.78v-1h-1v1h1zm19.66 16.61l-.78-.62v.01h-.01l.8.61zm.12 27.38l-.79.62.79-.62zm21.06 0l-.79-.62v.01l.79.61zm0-27.26l.8-.61-.8.6zm-26.15-16.73v7.49h2v-7.5h-2zm1.8 8.07c4.17-5.8 10.1-8.71 17.91-8.71v-2c-8.4 0-14.95 3.17-19.53 9.54l1.63 1.17zm17.91-8.71c7.84 0 14.07 2.81 18.78 8.42l1.53-1.29c-5.12-6.09-11.92-9.13-20.3-9.13v2zm18.78 8.42c4.72 5.62 7.13 13.17 7.13 22.76h2c0-9.92-2.5-17.97-7.6-24.05l-1.53 1.29zm7.13 22.76c0 9.26-2.37 16.62-7.02 22.17l1.54 1.28c5.02-6 7.49-13.84 7.49-23.46h-2zm-7.02 22.17c-4.55 5.45-10.58 8.18-18.18 8.18v2c8.15 0 14.76-2.96 19.72-8.9l-1.54-1.28zm-18.18 8.18c-7.83 0-13.71-2.88-17.8-8.59l-1.62 1.16c4.5 6.3 11.02 9.43 19.42 9.43v-2zm-19.6-8v28.9h2v-28.9h-2zm1 27.9h-16.5v2h16.5v-2zm-15.5 1v-81.8h-2v81.8h2zm-1-80.8h15.68v-2h-15.68v2zm30.3 9.7c-4.8 0-8.65 1.76-11.43 5.3l1.57 1.24c2.37-3.01 5.61-4.53 9.86-4.53v-2zm-11.44 5.32c-2.68 3.5-3.95 8.31-3.95 14.3h2c0-5.73 1.22-10.05 3.54-13.1l-1.6-1.2zm-3.95 14.3c0 5.98 1.32 10.79 4.07 14.3l1.58-1.24c-2.4-3.04-3.65-7.35-3.65-13.07h-2zm4.07 14.3c2.78 3.54 6.64 5.3 11.44 5.3v-2c-4.25 0-7.5-1.53-9.86-4.54l-1.58 1.24zm11.44 5.3c4.73 0 8.5-1.77 11.2-5.31L609.3 74c-2.28 3.01-5.45 4.52-9.61 4.52v2zm11.2-5.3c2.75-3.5 4.07-8.24 4.07-14.07h-2c0 5.55-1.25 9.79-3.65 12.83l1.58 1.24zm4.07-14.07c0-6-1.32-10.84-4.07-14.42l-1.58 1.22c2.4 3.12 3.65 7.48 3.65 13.2h2zm-4.07-14.42c-2.77-3.61-6.58-5.42-11.32-5.42v2c4.15 0 7.36 1.54 9.74 4.64l1.58-1.22zM446.44 173.65h21.76c8.82 0 15.95 2.26 21.42 6.78 5.45 4.45 8.19 11.04 8.19 19.78 0 8.89-2.77 15.6-8.31 20.12-5.46 4.45-12.87 6.67-22.23 6.67H428.3v-83.3h61.77v15.09h-43.64v14.86zm33.58 26.32c0-7.95-4.76-11.93-14.27-11.93h-19.3v23.98h19.41c9.44 0 14.16-4.01 14.16-12.05zm83.55-33.34l-22.23 60.14a86.17 86.17 0 01-2.46 6.31 57.73 57.73 0 01-2.34 5.15c-1.01 2.19-1.99 3.7-2.92 4.56a27.7 27.7 0 01-3.63 2.93 12.78 12.78 0 01-5.15 2.22c-1.87.4-4.05.59-6.55.59-2.03 0-5.73-.04-11.11-.12v-13.69h8.07c2.73 0 4.8-.7 6.2-2.1 1.48-1.4 2.22-3.4 2.22-5.97 0-.63-.15-1.4-.46-2.34l-21.88-57.68h17.9l13.8 41.06 13.34-41.06h17.2zm59.9 60.37h-16.5v-47.62h-15.9l-.7 21.3c-.09 2.33-.16 4.2-.24 5.61a51.25 51.25 0 01-.7 5.38c-.32 2.27-.7 4.1-1.17 5.5a26.69 26.69 0 01-2.23 4.57 11.77 11.77 0 01-3.4 3.86 18.1 18.1 0 01-4.9 2.22c-2.03.7-4.3 1.05-6.8 1.05-4.05 0-7.05-.39-9-1.17v-13.22c1.95.4 3.51.59 4.68.59 4.76 0 7.25-4.18 7.49-12.52l.93-35.92h48.44V227zm69.36 0h-16.85a25.74 25.74 0 01-1.17-5.85c-5.07 5.07-11.58 7.6-19.54 7.6-6.7 0-11.97-1.6-15.8-4.8-3.82-3.27-5.73-7.75-5.73-13.45 0-2.57.31-4.83.94-6.78.7-1.95 1.8-3.6 3.27-4.92 1.56-1.32 3-2.42 4.33-3.27 1.4-.86 3.32-1.56 5.74-2.1a95.5 95.5 0 015.85-1.18c1.48-.31 3.54-.62 6.2-.94 5.85-.78 9.75-1.6 11.7-2.45 2.02-.86 3.04-2.46 3.04-4.8 0-5.38-3.63-8.07-10.88-8.07-3.82 0-6.63.7-8.43 2.1-1.79 1.33-2.96 3.7-3.5 7.14h-15.57c.94-13.57 10.26-20.36 27.97-20.36 17.55 0 26.32 6.56 26.32 19.66v26.09c0 7.64.7 13.1 2.1 16.38zm-18.14-29.37c-1.95 1.17-5.85 2.23-11.7 3.16-4.91.78-8.11 1.76-9.6 2.93-1.7 1.4-2.57 3.43-2.57 6.08 0 2.5.78 4.49 2.34 5.97 1.64 1.4 3.9 2.1 6.79 2.1 4.45 0 8-1.17 10.65-3.5 2.73-2.42 4.1-5.74 4.1-9.95v-6.79zm83.33-31l-19.89 28.2L760.48 227h-18.96l-12.75-19.54L716.14 227H697.3l22-31.82-20.01-28.55h18.95L729 182.77l10.65-16.14h18.37z" fill="#0C3934"/>
  <path d="M448.44 175.65h-1v1h1v-1zm43.18 6.78l-.64.77.63-.77zm-.12 39.9l.63.78-.63-.78zM430.3 229h-1v1h1v-1zm0-83.3v-1h-1v1h1zm61.78 0h1v-1h-1v1zm0 15.09v1h1v-1h-1zm-43.64 0v-1h-1v1h1zm0 29.25v-1h-1v1h1zm0 23.98h-1v1h1v-1zm0-37.37h21.76v-2h-21.76v2zm21.76 0c8.64 0 15.54 2.21 20.78 6.55l1.27-1.54c-5.68-4.7-13.06-7.01-22.05-7.01v2zm20.78 6.56c5.17 4.21 7.82 10.48 7.82 19h2c0-8.96-2.8-15.87-8.55-20.55l-1.27 1.55zm7.82 19c0 8.67-2.69 15.06-7.94 19.35l1.27 1.54c5.83-4.75 8.68-11.78 8.68-20.9h-2zm-7.93 19.35c-5.23 4.25-12.4 6.44-21.6 6.44v2c9.51 0 17.17-2.26 22.86-6.9l-1.26-1.54zm-21.6 6.44H430.3v2h38.96v-2zm-37.96 1v-83.3h-2V229h2zm-1-82.3h61.77v-2h-61.77v2zm60.77-1v15.09h2v-15.1h-2zm1 14.09h-43.64v2h43.64v-2zm-44.64 1v14.86h2v-14.86h-2zm35.58 41.18c0-4.18-1.26-7.48-3.93-9.72-2.63-2.2-6.47-3.21-11.34-3.21v2c4.64 0 7.94.97 10.06 2.75 2.1 1.75 3.21 4.41 3.21 8.18h2zm-15.27-12.93h-19.3v2h19.3v-2zm-20.3 1v23.98h2v-23.98h-2zm1 24.98h19.41v-2h-19.42v2zm19.41 0c4.84 0 8.66-1.02 11.27-3.25 2.64-2.25 3.9-5.58 3.9-9.8h-2c0 3.82-1.12 6.51-3.2 8.28-2.1 1.8-5.37 2.77-9.97 2.77v2zm97.71-46.4l.94.35.5-1.34h-1.44v1zm-22.23 60.15l-.94-.35.94.35zm-2.46 6.31l-.9-.42-.02.04-.01.03.93.35zm-2.34 5.15l-.9-.44v.02l.9.42zm-2.92 4.56l-.68-.73-.01.01-.02.02.7.7zm-3.63 2.93l-.57-.82h-.01l-.01.01.6.81zm-5.15 2.22l-.2-.98.2.98zm-17.66.47h-1v.99l.98.01.02-1zm0-13.69v-1h-1v1h1zm14.27-2.1l-.69-.73-.02.02.71.7zm1.76-8.31l.94-.32v-.04l-.94.36zm-21.88-57.68v-1h-1.45l.51 1.35.94-.35zm17.9 0l.95-.32-.23-.68h-.72v1zm13.8 41.06l-.94.32.96 2.87.94-2.88-.96-.3zm13.34-41.06v-1h-.73l-.22.69.95.3zm16.26-.35l-22.23 60.14 1.88.7 22.23-60.15-1.88-.69zm-22.23 60.15a85.82 85.82 0 01-2.42 6.23l1.81.85c.57-1.22 1.4-3.36 2.5-6.4l-1.89-.68zm-2.45 6.3a56.99 56.99 0 01-2.3 5.06l1.79.89c1.1-2.2 1.9-3.95 2.38-5.25l-1.87-.7zm-2.31 5.08c-1 2.15-1.91 3.53-2.7 4.25l1.35 1.47c1.09-1 2.13-2.66 3.16-4.88l-1.81-.84zm-2.73 4.28c-.8.8-1.96 1.74-3.5 2.81l1.16 1.64a28.67 28.67 0 003.76-3.04l-1.42-1.41zm-3.51 2.82c-1.36 1-2.93 1.69-4.75 2.05l.39 1.96a13.78 13.78 0 005.55-2.4l-1.2-1.6zm-4.76 2.05c-1.79.38-3.9.57-6.35.57v2c2.55 0 4.8-.2 6.76-.6l-.41-1.97zm-6.35.57c-2.02 0-5.72-.04-11.1-.12l-.03 2c5.38.08 9.1.12 11.13.12v-2zm-10.11.88v-13.69h-2v13.7h2zm-1-12.69h8.07v-2h-8.07v2zm8.07 0c2.9 0 5.25-.74 6.9-2.4l-1.4-1.41c-1.16 1.15-2.93 1.81-5.5 1.81v2zm6.89-2.38c1.73-1.64 2.53-3.92 2.53-6.7h-2c0 2.39-.67 4.08-1.9 5.25l1.37 1.45zm2.53-6.7c0-.77-.19-1.66-.51-2.65l-1.9.63c.3.9.41 1.56.41 2.03h2zm-.53-2.69l-21.88-57.68-1.87.71 21.88 57.68 1.87-.7zm-22.81-56.32h17.9v-2h-17.9v2zm16.95-.68l13.8 41.06 1.9-.63-13.8-41.07-1.9.64zm15.7 41.05l13.34-41.06-1.9-.62-13.34 41.07 1.9.61zm12.4-40.37h17.2v-2h-17.2v2zm77.1 59.37v1h1v-1h-1zm-16.5 0h-1v1h1v-1zm0-47.62h1v-1h-1v1zm-15.92 0v-1h-.96l-.04.97 1 .03zm-.7 21.3l1 .03-1-.03zm-.23 5.61l1 .06-1-.06zm-.7 5.38l-.99-.17v.04l.98.13zm-1.17 5.5l.94.34v-.02l-.95-.32zm-2.23 4.57l-.86-.51.86.5zm-3.4 3.86l.58.82-.57-.82zm-4.9 2.22l-.3-.96h-.02l-.01.01.33.95zm-15.8-.12h-1v.68l.63.25.37-.93zm0-13.22l.2-.98-1.2-.24v1.22h1zm12.17-11.93l1 .02-1-.02zm.93-35.92v-1h-.97l-.03.97 1 .03zm48.44 0h1v-1h-1v1zm0 59.37h-16.5v2h16.5v-2zm-15.5 1v-47.62h-2V229h2zm-1-48.62h-15.9v2h15.9v-2zm-16.9.97l-.7 21.3 2 .06.7-21.3-2-.06zm-.7 21.3c-.09 2.33-.16 4.2-.24 5.59l2 .1c.07-1.4.15-3.29.23-5.63l-2-.07zm-.24 5.58c-.08 1.27-.3 3.03-.69 5.27l1.97.34c.4-2.27.63-4.11.72-5.49l-2-.12zm-.7 5.3c-.3 2.24-.68 4-1.12 5.33l1.9.63c.49-1.49.89-3.39 1.2-5.68l-1.98-.27zm-1.12 5.3a25.6 25.6 0 01-2.14 4.4l1.72 1.01a27.63 27.63 0 002.3-4.74l-1.88-.66zm-2.15 4.4a10.77 10.77 0 01-3.1 3.55l1.16 1.63a12.75 12.75 0 003.68-4.18l-1.74-1zm-3.09 3.54a17.12 17.12 0 01-4.64 2.1l.59 1.9a19.1 19.1 0 005.19-2.35l-1.14-1.65zm-4.67 2.1c-1.9.66-4.06 1-6.46 1v2c2.59 0 4.96-.36 7.11-1.1l-.65-1.9zm-6.46 1c-4.03 0-6.87-.39-8.64-1.1l-.74 1.86c2.13.85 5.3 1.24 9.38 1.24v-2zm-8.01-.17v-13.22h-2v13.22h2zm-1.2-12.24c1.98.4 3.61.6 4.88.6v-2c-1.07 0-2.56-.18-4.48-.56l-.4 1.96zm4.88.6a6.98 6.98 0 006.3-3.61c1.38-2.3 2.07-5.64 2.19-9.88l-2-.05c-.12 4.1-.79 7.03-1.9 8.9a4.98 4.98 0 01-4.59 2.65v2zm8.49-13.49l.93-35.92-2-.05-.93 35.92 2 .05zm-.07-34.94h48.44v-2h-48.44v2zm47.44-1V229h2v-60.37h-2zM694.83 229v1h1.51l-.6-1.4-.91.4zm-16.85 0l-.95.33.24.67h.7v-1zm-1.17-5.85l1-.1-.22-2.1-1.49 1.5.7.7zm-35.33 2.8l-.66.77h.01l.64-.76zm-4.8-20.23l-.94-.34v.02l-.01.01.95.3zm3.27-4.92l-.64-.76h-.01l-.01.02.66.74zm4.33-3.27l-.52-.86-.01.01h-.01l.54.85zm11.59-3.28l.15.99h.03l.02-.01-.2-.98zm6.2-.94l.11 1h.01l-.12-1zm11.7-2.45l-.4-.92.4.92zm-16.27-10.77l.6.8h.02l-.62-.8zm-3.5 7.14v1h.85l.13-.84-.99-.16zm-15.57 0l-1-.07-.07 1.07h1.07v-1zm38.26 12.4h1v-1.76l-1.51.9.51.86zM665 202.8l.16.99-.16-.99zm-9.6 2.93l-.61-.79-.02.01.64.78zm-.23 12.05l-.68.72.01.02.02.02.65-.76zm17.44-1.4l.66.74-.66-.75zM694.83 228h-16.85v2h16.85v-2zm-15.9.67a24.8 24.8 0 01-1.13-5.62l-1.99.2c.24 2.39.64 4.42 1.23 6.08l1.88-.66zm-2.83-6.23c-4.86 4.86-11.1 7.31-18.83 7.31v2c8.19 0 14.97-2.61 20.25-7.9l-1.42-1.4zm-18.83 7.31c-6.55 0-11.57-1.56-15.15-4.56l-1.29 1.53c4.06 3.4 9.58 5.03 16.44 5.03v-2zm-15.14-4.55c-3.57-3.06-5.39-7.25-5.39-12.7h-2c0 5.95 2.01 10.72 6.08 14.22l1.3-1.52zm-5.39-12.7c0-2.5.3-4.65.89-6.48l-1.9-.6a23.3 23.3 0 00-.99 7.08h2zm.88-6.44c.65-1.8 1.65-3.3 3-4.51l-1.33-1.5a12.87 12.87 0 00-3.55 5.33l1.88.68zm2.98-4.5a41.03 41.03 0 014.23-3.2l-1.1-1.67c-1.36.88-2.84 2-4.42 3.35l1.3 1.53zm4.2-3.18a18.32 18.32 0 015.44-1.98l-.45-1.95c-2.47.56-4.5 1.29-6.03 2.22l1.04 1.71zm5.44-1.98c2.4-.55 4.33-.93 5.78-1.16l-.31-1.98c-1.51.24-3.49.64-5.92 1.19l.45 1.95zm5.83-1.17c1.44-.3 3.47-.61 6.11-.92l-.23-1.99c-2.66.31-4.77.63-6.29.95l.41 1.96zm6.13-.92c5.83-.78 9.87-1.61 11.97-2.54l-.8-1.83c-1.8.8-5.57 1.6-11.44 2.38l.27 1.99zm11.96-2.53a5.83 5.83 0 002.73-2.23c.63-1 .92-2.17.92-3.49h-2c0 1.03-.22 1.81-.6 2.42-.39.6-.98 1.1-1.83 1.46l.78 1.84zm3.65-5.72c0-2.94-1-5.28-3.13-6.86-2.06-1.53-5.03-2.21-8.75-2.21v2c3.53 0 6 .66 7.56 1.82 1.51 1.12 2.32 2.8 2.32 5.25h2zM665.93 177c-3.91 0-6.99.7-9.04 2.32l1.23 1.57c1.53-1.2 4.07-1.9 7.8-1.9v-2zm-9.02 2.3c-2.1 1.55-3.34 4.23-3.9 7.78l1.97.32c.53-3.31 1.63-5.39 3.12-6.5l-1.2-1.6zm-2.92 6.94h-15.56v2H654v-2zm-14.56 1.07c.45-6.55 2.9-11.34 7.28-14.53 4.42-3.22 10.94-4.9 19.69-4.9v-2c-8.96 0-15.96 1.72-20.86 5.28-4.95 3.6-7.62 8.99-8.1 16.01l1.99.14zm26.97-19.43c8.68 0 15 1.63 19.14 4.72 4.09 3.05 6.18 7.63 6.18 13.94h2c0-6.8-2.3-12.04-6.98-15.54-4.64-3.47-11.47-5.12-20.34-5.12v2zm25.32 18.66v26.09h2v-26.1h-2zm0 26.09c0 7.66.7 13.3 2.19 16.77l1.84-.78c-1.32-3.08-2.03-8.36-2.03-15.99h-2zm-15.54-13.84c-1.77 1.05-5.48 2.09-11.35 3.03l.32 1.97c5.84-.93 9.92-2 12.06-3.29l-1.03-1.71zm-11.34 3.02c-2.49.4-4.57.85-6.22 1.35-1.64.5-2.96 1.08-3.84 1.78l1.24 1.57c.6-.47 1.62-.96 3.18-1.44 1.54-.46 3.52-.9 5.95-1.28l-.31-1.98zm-10.08 3.14c-1.99 1.63-2.94 3.97-2.94 6.86h2c0-2.42.77-4.13 2.21-5.3l-1.27-1.56zm-2.94 6.86c0 2.72.86 5 2.65 6.7l1.38-1.46c-1.33-1.26-2.03-2.97-2.03-5.24h-2zm2.7 6.73c1.87 1.6 4.39 2.34 7.43 2.34v-2c-2.73 0-4.73-.66-6.14-1.86l-1.3 1.52zm7.43 2.34c4.62 0 8.43-1.22 11.3-3.76l-1.32-1.5c-2.42 2.14-5.71 3.26-9.98 3.26v2zm11.31-3.76c2.98-2.64 4.43-6.24 4.43-10.7h-2c0 3.98-1.28 7-3.76 9.2l1.33 1.5zm4.43-10.7v-6.78h-2v6.79h2zm82.33-37.78l.82.57 1.11-1.57h-1.93v1zm-19.89 28.2l-.82-.58-.4.57.4.58.82-.58zM762.48 229v1h1.91l-1.09-1.57-.82.57zm-18.96 0l-.83.55.3.45h.53v-1zm-12.75-19.54l.84-.55-.84-1.28-.84 1.29.84.54zM718.14 229v1h.54l.3-.46-.85-.54zm-18.84 0l-.82-.57-1.09 1.57h1.9v-1zm22-31.82l.82.56.4-.57-.4-.57-.83.58zm-20.01-28.55v-1h-1.92l1.1 1.57.82-.57zm18.95 0l.83-.56-.3-.44h-.53v1zM731 184.77l-.83.56.84 1.25.83-1.26-.84-.55zm10.65-16.14v-1h-.54l-.3.45.84.55zm17.55-.58l-19.89 28.2 1.64 1.15 19.89-28.2-1.64-1.15zm-19.89 29.34l22.35 32.18 1.64-1.14-22.35-32.18-1.64 1.15zM762.48 228h-18.96v2h18.96v-2zm-18.12.45l-12.75-19.54-1.68 1.1 12.76 19.54 1.67-1.1zm-14.43-19.53l-12.63 19.54 1.68 1.08L731.6 210l-1.68-1.08zM718.13 228H699.3v2h18.84v-2zm-18 1.57l21.99-31.82-1.65-1.14-22 31.82 1.65 1.14zm21.98-32.97l-20-28.55-1.64 1.15 20 28.55 1.64-1.15zm-20.82-26.97h18.95v-2H701.3v2zm18.12-.45l10.76 16.15 1.67-1.11-10.77-16.15-1.66 1.11zm12.43 16.14l10.65-16.14-1.67-1.1-10.65 16.14 1.67 1.1zm9.81-15.7h18.37v-2h-18.37v2z" fill="#0C3934"/>
</svg>
